<?xml version="1.0" encoding="utf-8"?>
<!-- Generator: Adobe Illustrator 27.9.5, SVG Export Plug-In . SVG Version: 9.03 Build 54986)  -->
<svg version="1.1" id="Calque_1" xmlns="http://www.w3.org/2000/svg" xmlns:xlink="http://www.w3.org/1999/xlink" x="0px" y="0px"
	 viewBox="0 0 1920 482.9" style="enable-background:new 0 0 1920 482.9;" xml:space="preserve">
<style type="text/css">
	.st0{fill:#FFFFFF;}
	.st1{fill:none;}
	.st2{opacity:0.5;fill:#FFF0A8;enable-background:new    ;}
	.st3{opacity:0.73;fill:#FFD200;enable-background:new    ;}
	.st4{opacity:0.55;fill:#C0C500;enable-background:new    ;}
	.st5{opacity:0.73;fill:#E58406;enable-background:new    ;}
</style>
<g>
	<g>
		<g id="Groupe_65" transform="translate(77.002)">
			<path id="DSC09623" class="st0" d="M-77,482.9h1920v-1118v1046c0,13.3-10.7,24-24,24H353c-237.5,0-430-192.5-430-430v-640V482.9z
				"/>
			<g id="Groupe_57">
				<path class="st1" d="M-77,1.5v64.3C-49.3,182,43.8,416.9,343,416.9h1394c18.2,0,33,14.8,33,33s-14.8,33-33,33H343
					C114.7,482.9-9.7,362-77,242.4L93,484.5h1920l-170-483H-77z"/>
				<path class="st2" d="M343,482.9h1394c18.2,0,33-14.8,33-33s-14.8-33-33-33H343C43.8,416.9-49.3,182-77,65.8v176.5
					C-9.7,362,114.7,482.9,343,482.9z"/>
				<path id="Tracé_111" class="st3" d="M1413,461.9H360c-151.3,0-272.4-54-359.8-160.4c-7-8.5-5.8-21.1,2.8-28.1
					s21.1-5.8,28.1,2.8C110.5,372.9,221.2,422,359.9,422h1053c11,0,20,9,20,20S1424,461.9,1413,461.9z"/>
				<path id="Tracé_158" class="st4" d="M1067,481.9H341.7c-97.4,0-183.2-22.8-255.1-67.7c-9.3-5.9-12.1-18.2-6.2-27.6
					c5.9-9.3,18.1-12.1,27.4-6.3c65.4,40.9,144.1,61.6,233.8,61.6H1067c11,0,20,9,20,20S1078,481.9,1067,481.9L1067,481.9z"/>
				<path id="Tracé_157" class="st5" d="M248.5,429C103,387.3,1.5,302.1-53.2,175.7c-4.4-10.1,0.3-21.9,10.4-26.3
					c10.1-4.4,21.9,0.3,26.3,10.4C33.2,274.7,126,352.3,259.4,390.6c10.6,3,16.8,14.1,13.7,24.7S259.1,432.1,248.5,429z"/>
			</g>
		</g>
	</g>
</g>
</svg>
