<?xml version="1.0" encoding="utf-8"?>
<!-- Generator: Adobe Illustrator 27.9.6, SVG Export Plug-In . SVG Version: 9.03 Build 54986)  -->
<svg version="1.1" id="Calque_1" xmlns="http://www.w3.org/2000/svg" xmlns:xlink="http://www.w3.org/1999/xlink" x="0px" y="0px"
	 viewBox="0 0 53.7 53.7" style="enable-background:new 0 0 53.7 53.7;" xml:space="preserve">
<style type="text/css">
	.st0{fill:#FFFFFF;}
	.st1{fill:#005078;}
</style>
<g id="btn_fleche" transform="translate(26.87) rotate(45)">
	<circle id="bg_btn" class="st0" cx="19" cy="19" r="19"/>
	<path id="flèche" class="st1" d="M12.4,26.1c-0.5,0-1-0.4-1-1c0-0.3,0.1-0.5,0.3-0.7l11.1-11.1H12.4c-0.5,0-1-0.4-1-1s0.4-1,1-1
		h12.7c0,0,0,0,0,0l0,0c0.2,0,0.5,0.1,0.7,0.3l0,0l0,0l0,0l0,0c0.1,0.1,0.2,0.2,0.2,0.3c0,0.1,0.1,0.2,0.1,0.3l0,0v12.7
		c0,0.5-0.4,1-1,1c-0.5,0-1-0.4-1-1c0,0,0,0,0,0V14.7L13.1,25.8C12.9,26,12.6,26.1,12.4,26.1"/>
</g>
</svg>
