<svg xmlns="http://www.w3.org/2000/svg" xmlns:xlink="http://www.w3.org/1999/xlink" width="286.979" height="187.266" viewBox="0 0 286.979 187.266">
  <defs>
    <linearGradient id="linear-gradient" x1="1" x2="0.129" y2="1" gradientUnits="objectBoundingBox">
      <stop offset="0" stop-color="#e58406"/>
      <stop offset="0.176" stop-color="#ffd200"/>
      <stop offset="0.377" stop-color="#fff0a8"/>
      <stop offset="0.619" stop-color="#ffd200"/>
      <stop offset="0.828" stop-color="#c0c500"/>
      <stop offset="1" stop-color="#73a219"/>
    </linearGradient>
  </defs>
  <g id="Groupe_62" data-name="Groupe 62" transform="translate(-1281.528 -4568.066)">
    <path id="picto_credits-impots" d="M22.782,163.21C10.914,160.052,1.908,149.544.272,136.948c-2.06-15.868,7.776-30.785,22.931-34.6,1.606-.4,1.952-1.074,1.95-2.639-.045-26.823-.006-53.644-.05-80.467C25.09,11.953,27.876,6.316,33.961,2.5A17.514,17.514,0,0,1,43.533,0Q62.69.04,81.846.011q23.683,0,47.365.006c9.442.012,16.582,6.23,18.088,15.739a23.48,23.48,0,0,1,.169,3.631q.014,27.815.007,55.632,0,28.23-.01,56.459c-.015,8.895-5.509,16.085-13.785,18.039a22.636,22.636,0,0,1-5.127.49q-35.241.047-70.483-.006a2.813,2.813,0,0,0-2.633,1.362A30.266,30.266,0,0,1,30.7,164.252,30.765,30.765,0,0,1,22.782,163.21ZM5.168,132.658c-.042,14.5,11.376,26.292,25.482,26.309,14.055.016,25.563-11.683,25.611-26.038.05-14.477-11.4-26.274-25.508-26.294h-.038C16.653,106.634,5.209,118.287,5.168,132.658ZM61.145,136.3c-.295,2.816-1.1,5.578-1.687,8.425h1.5q33.861,0,67.721,0c8.4,0,13.624-5.337,13.625-13.917q.006-55.787,0-111.573c0-8.6-5.205-13.926-13.605-13.927q-11.741,0-23.481.015c-20.4.021-40.808.042-61.21-.088C36.488,5.19,30.174,10.748,30.23,19.3c.174,26.706.064,53.414.064,80.121v1.833c.454.042.713.081.972.088a30.444,30.444,0,0,1,20.374,8.385,3.739,3.739,0,0,0,2.258.857c1.847.048,3.7.042,5.544.037,1.6,0,3.2-.009,4.8.021a6.045,6.045,0,0,1,5.964,6.118c.04,1.489.027,2.981.008,4.47-.051,3.8-2.424,6.318-6.123,6.491-.951.043-1.906.006-2.883.006A84.363,84.363,0,0,1,61.145,136.3ZM59.22,121.212a1.613,1.613,0,0,0,1.768,1.239c4.815-.077,3.977.428,4.055-4.118.006-.331-.015-.663,0-.992.046-.95-.335-1.437-1.314-1.428-2.257.022-4.513.007-6.917.007C57.7,117.837,58.54,119.49,59.22,121.212Zm-27.46,22.742a8.038,8.038,0,1,1,8.042,8.188H39.79A8.144,8.144,0,0,1,31.759,143.954Zm7.962-2.883a2.865,2.865,0,1,0,.066,0Zm-21.305,4.972a6.077,6.077,0,0,1,.806-1.418q9.373-13.379,18.762-26.746a7.209,7.209,0,0,1,.687-.917,2.4,2.4,0,0,1,3.361-.4,2.538,2.538,0,0,1,.809,3.364,5.363,5.363,0,0,1-.609.972q-9.378,13.374-18.787,26.727a11.285,11.285,0,0,1-1.992,1.869C19.037,149.486,17.817,147.747,18.416,146.043Zm3.065-16.209a8.205,8.205,0,0,1,.247-16.4,8.206,8.206,0,0,1-.148,16.4Zm-2.708-8.161a2.833,2.833,0,1,0,2.877-2.923H21.6A2.859,2.859,0,0,0,18.772,121.673Zm89.454,6c-3.388-.107-5.674-2.591-5.837-6.057a46.963,46.963,0,0,1,.018-5.121,6.009,6.009,0,0,1,6.024-5.866c1.478-.032,2.958-.024,4.438-.017.673,0,1.346.006,2.019.006,2.152,0,4.3-.03,6.455.006a6.047,6.047,0,0,1,6.154,6.078c.067,1.6.061,3.2.006,4.793-.123,3.544-2.42,6.079-5.883,6.181q-3.334.1-6.674.1Q111.584,127.78,108.226,127.676Zm-.713-7.065c-.024,1.352.47,1.866,1.792,1.838,1.526-.033,3.052-.025,4.58-.019,1.321.007,2.641.012,3.963-.006.717-.011,1.322,0,1.83.008,3.231.058,2.594.117,2.676-4.959.018-1.1-.4-1.6-1.526-1.569-1.933.054-3.868.015-5.8.014-1.022,0-2.042-.018-3.063,0-.75.015-1.373.006-1.891,0-.321-.006-.6-.012-.848-.012C107.2,115.9,107.586,116.321,107.513,120.611ZM79.791,127.7c-3.681-.09-6.032-2.716-6.072-6.515q-.023-2.069,0-4.135a6.118,6.118,0,0,1,6.329-6.423c2.1-.023,4.2,0,6.3,0s4.2-.024,6.3.006a6.169,6.169,0,0,1,6.265,6.356c.039,1.432.035,2.865,0,4.3-.086,3.681-2.468,6.318-6.042,6.412q-3.254.087-6.51.085Q83.073,127.778,79.791,127.7Zm-.914-10.09c.066.876.01,1.761.012,2.643.006,2.087.078,2.172,2.058,2.178,2.744.01,5.488.029,8.23,0,.662-.008,1.23,0,1.716.006,3.426.049,2.772.1,2.852-4.935.018-1.1-.414-1.613-1.531-1.589-1.936.043-3.874.012-5.81.012s-3.875.046-5.809-.018l-.156,0C79.319,115.9,78.781,116.336,78.877,117.606Zm.977-14.956a6.112,6.112,0,0,1-6.132-6.294c-.026-1.434-.019-2.867,0-4.3.042-3.711,2.355-6.367,5.944-6.477,4.409-.134,8.827-.126,13.237,0,3.513.1,5.89,2.7,6,6.282q.069,2.23,0,4.464a6.179,6.179,0,0,1-6.3,6.328c-2.1.028-4.2.006-6.3,0-1.336,0-2.672.013-4.008.013C81.487,102.671,80.671,102.666,79.854,102.65Zm-.978-10.1a17.073,17.073,0,0,1,0,2.807c-.139,1.493.383,2.118,1.907,2.029,1.823-.108,3.657-.026,5.486-.026.969,0,1.937.013,2.906,0,.729-.013,1.341,0,1.857,0,3.211.048,2.638.1,2.725-4.75.023-1.268-.441-1.8-1.694-1.792q-5.73.052-11.46,0h-.048C79.377,90.82,78.78,91.24,78.876,92.551ZM57.6,102.658c-2.1,0-4.2.026-6.3,0a6.16,6.16,0,0,1-6.263-6.191c-.069-1.54-.061-3.087,0-4.629.14-3.6,2.508-6.161,6.025-6.258,4.356-.121,8.719-.115,13.075-.008,3.679.092,6.024,2.714,6.072,6.517.018,1.433.026,2.867,0,4.3a6.1,6.1,0,0,1-6.15,6.267c-.812.014-1.624.019-2.436.019C60.282,102.67,58.941,102.658,57.6,102.658Zm-7.414-7c-.021,1.3.518,1.758,1.752,1.715,1.881-.066,3.764-.018,5.647-.017.968,0,1.936.016,2.9,0,.771-.015,1.413-.007,1.945,0,3.173.049,2.5.1,2.628-4.719.036-1.4-.5-1.848-1.8-1.824-1.6.03-3.19.023-4.786.018-1.255,0-2.511-.01-3.766,0-.631.005-1.175,0-1.642-.008-.331,0-.625-.009-.884-.009C49.785,90.821,50.258,91.216,50.187,95.663Zm66.789,7c-.681,0-1.362-.007-2.042-.006-2.1,0-4.2.023-6.295,0a6.085,6.085,0,0,1-6.258-6.159c-.073-1.6-.072-3.2,0-4.793.163-3.538,2.484-6.026,5.954-6.124q6.613-.187,13.234,0c3.53.106,5.829,2.668,5.937,6.308.044,1.542.053,3.088-.009,4.628a6.068,6.068,0,0,1-6.109,6.134c-.809.015-1.618.02-2.427.02Q117.97,102.669,116.977,102.664Zm3.646-5.286c1.231.045,1.808-.388,1.737-1.7a28.218,28.218,0,0,1,0-3.137c.075-1.3-.5-1.747-1.726-1.726-1.424.023-2.848.017-4.272.011s-2.848-.013-4.272.011c-.757.012-1.39,0-1.918-.013-3.175-.072-2.589-.144-2.64,5.087-.01,1.043.463,1.476,1.484,1.455,1.934-.039,3.869-.011,5.8-.01,1.154,0,2.309-.018,3.464-.018C119.063,97.342,119.843,97.35,120.623,97.378ZM79.65,77.547a6.014,6.014,0,0,1-5.923-6.127c-.036-1.6-.039-3.2,0-4.794a5.957,5.957,0,0,1,5.818-6.054c4.464-.088,8.932-.082,13.4-.006a5.988,5.988,0,0,1,5.944,5.954c.089,1.649.079,3.309.006,4.958a6.073,6.073,0,0,1-6.169,6.077c-2.152.034-4.3.007-6.456,0-.716,0-1.434,0-2.15.007-.652,0-1.3.008-1.956.008C81.325,77.573,80.487,77.567,79.65,77.547Zm-.768-10.308c.037,1.155.052,2.314,0,3.467-.055,1.13.378,1.6,1.5,1.572,1.353-.035,2.708-.029,4.063-.021.58,0,1.161.006,1.742.006,2.043,0,4.086-.019,6.127.009.918.013,1.436-.324,1.43-1.321a28.24,28.24,0,0,0-.06-3.789c-.07-.492-.781-1.256-1.214-1.267-2.873-.069-5.748-.066-8.622-.063q-1.816,0-3.631,0H80.2C79.252,65.828,78.852,66.266,78.882,67.239ZM59.762,77.566c-.7,0-1.4-.008-2.1-.007-2.152,0-4.3.031-6.456,0a6.075,6.075,0,0,1-6.158-6.091c-.079-1.594-.077-3.2,0-4.791a6.048,6.048,0,0,1,6.128-6.118q6.454-.094,12.911,0A5.987,5.987,0,0,1,70.209,66.8c.029,1.542.034,3.087,0,4.628a6,6,0,0,1-5.926,6.114c-.846.02-1.693.027-2.54.027C61.08,77.573,60.421,77.569,59.762,77.566Zm-9.574-6.927c-.02,1.2.448,1.663,1.627,1.643,1.434-.027,2.87-.019,4.3-.013,1.466.007,2.932.013,4.4-.014.8-.015,1.466,0,2.01.009,3.11.071,2.413.143,2.527-4.88.026-1.141-.41-1.589-1.512-1.564-1.933.042-3.867.011-5.8.009-1.021,0-2.041-.017-3.062,0-.752.014-1.379.006-1.9,0-.318-.005-.6-.01-.843-.01C49.805,65.819,50.262,66.231,50.188,70.639Zm66.824,6.927c-.692,0-1.383-.008-2.073-.007-2.152,0-4.3.03-6.455-.005a5.964,5.964,0,0,1-6.088-5.948,45,45,0,0,1,.018-5.284,5.849,5.849,0,0,1,5.761-5.748q6.774-.129,13.553,0a5.848,5.848,0,0,1,5.745,5.758,49.913,49.913,0,0,1,0,5.45,5.915,5.915,0,0,1-5.917,5.766c-.841.018-1.682.023-2.523.023C118.358,77.572,117.685,77.569,117.013,77.566Zm-9.492-6.954c-.019,1.174.38,1.713,1.6,1.67,1.935-.068,3.875-.018,5.814-.017.969,0,1.939.022,2.908,0,.84-.021,1.525-.009,2.084,0,2.951.07,2.345.139,2.431-4.937.02-1.175-.521-1.522-1.584-1.509-1.372.017-2.744.011-4.116.006-1.536-.006-3.071-.012-4.607.014-.766.013-1.4,0-1.931-.01-.363-.008-.676-.016-.944-.016C107.156,65.811,107.589,66.268,107.521,70.611ZM98.439,48.752h-12.1q-18.748,0-37.5,0c-4.693,0-7-2.386-7.013-7.239-.007-4.083-.019-8.167,0-12.25.025-4.469,2.465-6.949,6.846-6.95q37.579-.01,75.158,0c4.508,0,6.873,2.421,6.887,7.033.011,4.249.023,8.5,0,12.746-.027,4.22-2.427,6.654-6.556,6.658q-8,.005-16,0Zm25.121-5.267c1.569.007,2.053-.5,2.018-2.081-.09-3.971-.079-7.946,0-11.917.027-1.469-.51-1.9-1.887-1.9q-37.416.043-74.829,0c-1.409,0-1.9.513-1.881,1.938.06,3.862.018,7.725.021,11.587,0,2.32.02,2.34,2.22,2.34q18.5,0,37.01,0,8.765,0,17.53-.006Q113.659,43.447,123.56,43.485Z" transform="translate(1331.863 4568.066)" fill="url(#linear-gradient)"/>
    <path id="Tracé_148" data-name="Tracé 148" d="M-650,2251.588a22.449,22.449,0,0,1-7.937-1.454c-128.216-48.362-219.932-3-223.774-1.041a22.538,22.538,0,0,1-30.257-9.747,22.461,22.461,0,0,1,9.607-30.235c4.523-2.347,112.465-56.844,260.305-1.082a22.5,22.5,0,0,1,13.112,28.993A22.509,22.509,0,0,1-650,2251.588Z" transform="translate(654.034 6938.336) rotate(180)" fill="#c0c500" opacity="0.13"/>
  </g>
</svg>
