<?xml version="1.0" encoding="utf-8"?>
<!-- Generator: Adobe Illustrator 27.9.5, SVG Export Plug-In . SVG Version: 9.03 Build 54986)  -->
<svg version="1.1" id="Calque_1" xmlns="http://www.w3.org/2000/svg" xmlns:xlink="http://www.w3.org/1999/xlink" x="0px" y="0px"
	 viewBox="0 0 287 187.3" style="enable-background:new 0 0 287 187.3;" xml:space="preserve">
<style type="text/css">
	.st0{fill:#FFFFFF;}
	.st1{opacity:0.13;fill:#FFFFFF;enable-background:new    ;}
</style>
<g id="Groupe_62" transform="translate(-1281.528 -4568.066)">
	<path id="picto_credits-impots" class="st0" d="M1354.6,4731.3c-11.9-3.2-20.9-13.7-22.5-26.3c-2.1-15.9,7.8-30.8,22.9-34.6
		c1.6-0.4,2-1.1,1.9-2.6c0-26.8,0-53.6,0-80.5c0-7.3,2.8-12.9,8.9-16.7c2.9-1.7,6.2-2.6,9.6-2.5c12.8,0,25.5,0,38.3,0
		c15.8,0,31.6,0,47.4,0c9.4,0,16.6,6.2,18.1,15.7c0.2,1.2,0.2,2.4,0.2,3.6c0,18.5,0,37.1,0,55.6c0,18.8,0,37.6,0,56.5
		c0,8.9-5.5,16.1-13.8,18c-1.7,0.4-3.4,0.5-5.1,0.5c-23.5,0-47,0-70.5,0c-1.1-0.1-2.1,0.4-2.6,1.4c-5.7,8.1-14.9,12.9-24.7,12.9
		C1359.9,4732.3,1357.2,4732,1354.6,4731.3z M1337,4700.7c0,14.5,11.4,26.3,25.5,26.3c14.1,0,25.6-11.7,25.6-26
		c0.1-14.5-11.4-26.3-25.5-26.3h0C1348.5,4674.7,1337.1,4686.4,1337,4700.7z M1393,4704.4c-0.3,2.8-1.1,5.6-1.7,8.4h1.5
		c22.6,0,45.1,0,67.7,0c8.4,0,13.6-5.3,13.6-13.9c0-37.2,0-74.4,0-111.6c0-8.6-5.2-13.9-13.6-13.9c-7.8,0-15.7,0-23.5,0
		c-20.4,0-40.8,0-61.2-0.1c-7.5,0-13.8,5.5-13.8,14.1c0.2,26.7,0.1,53.4,0.1,80.1v1.8c0.5,0,0.7,0.1,1,0.1
		c7.6,0.2,14.9,3.1,20.4,8.4c0.6,0.5,1.4,0.8,2.3,0.9c1.8,0,3.7,0,5.5,0c1.6,0,3.2,0,4.8,0c3.3,0,6,2.8,6,6.1c0,1.5,0,3,0,4.5
		c-0.1,3.8-2.4,6.3-6.1,6.5c-1,0-1.9,0-2.9,0C1393.2,4698.6,1393.2,4701.5,1393,4704.4z M1391.1,4689.3c0.2,0.8,0.9,1.3,1.8,1.2
		c4.8-0.1,4,0.4,4.1-4.1c0-0.3,0-0.7,0-1c0-1-0.3-1.4-1.3-1.4c-2.3,0-4.5,0-6.9,0C1389.6,4685.9,1390.4,4687.6,1391.1,4689.3z
		 M1363.6,4712c0.1-4.4,3.7-8,8.2-7.9c4.4,0.1,8,3.7,7.9,8.2c-0.1,4.4-3.7,7.9-8,7.9h0C1367.2,4720.1,1363.6,4716.5,1363.6,4712
		L1363.6,4712z M1371.6,4709.1c-1.6,0-2.9,1.3-2.8,2.9c0,1.6,1.3,2.9,2.9,2.8c1.6,0,2.9-1.3,2.8-2.9
		C1374.5,4710.4,1373.2,4709.2,1371.6,4709.1L1371.6,4709.1z M1350.3,4714.1c0.2-0.5,0.5-1,0.8-1.4c6.2-8.9,12.5-17.8,18.8-26.7
		c0.2-0.3,0.4-0.6,0.7-0.9c0.8-1,2.3-1.2,3.4-0.4c1.1,0.7,1.5,2.2,0.8,3.4c-0.2,0.3-0.4,0.7-0.6,1c-6.3,8.9-12.5,17.8-18.8,26.7
		c-0.6,0.7-1.3,1.3-2,1.9C1350.9,4717.6,1349.7,4715.8,1350.3,4714.1L1350.3,4714.1z M1353.3,4697.9c-4.5-0.2-8-4.1-7.8-8.6
		c0.2-4.3,3.7-7.8,8.1-7.8c4.5,0.2,8,4,7.8,8.6C1361.2,4694.4,1357.7,4697.8,1353.3,4697.9L1353.3,4697.9z M1350.6,4689.7
		c0,1.6,1.4,2.8,2.9,2.7s2.8-1.4,2.7-2.9c0-1.5-1.3-2.7-2.8-2.7h-0.1C1351.9,4686.8,1350.6,4688.1,1350.6,4689.7
		C1350.6,4689.7,1350.6,4689.7,1350.6,4689.7L1350.6,4689.7z M1440.1,4695.7c-3.4-0.1-5.7-2.6-5.8-6.1c-0.1-1.7-0.1-3.4,0-5.1
		c0.1-3.3,2.8-5.9,6-5.9c1.5,0,3,0,4.4,0c0.7,0,1.3,0,2,0c2.2,0,4.3,0,6.5,0c3.3-0.1,6.1,2.6,6.2,5.9c0,0,0,0.1,0,0.1
		c0.1,1.6,0.1,3.2,0,4.8c-0.1,3.5-2.4,6.1-5.9,6.2c-2.2,0.1-4.4,0.1-6.7,0.1C1444.6,4695.8,1442.3,4695.8,1440.1,4695.7
		L1440.1,4695.7z M1439.4,4688.7c0,1.4,0.5,1.9,1.8,1.8c1.5,0,3.1,0,4.6,0c1.3,0,2.6,0,4,0c0.7,0,1.3,0,1.8,0c3.2,0.1,2.6,0.1,2.7-5
		c0-1.1-0.4-1.6-1.5-1.6c-1.9,0.1-3.9,0-5.8,0c-1,0-2,0-3.1,0c-0.8,0-1.4,0-1.9,0c-0.3,0-0.6,0-0.8,0
		C1439.1,4684,1439.4,4684.4,1439.4,4688.7L1439.4,4688.7z M1411.7,4695.8c-3.7-0.1-6-2.7-6.1-6.5c0-1.4,0-2.8,0-4.1
		c-0.2-3.4,2.4-6.2,5.8-6.4c0.2,0,0.4,0,0.5,0c2.1,0,4.2,0,6.3,0s4.2,0,6.3,0c3.4-0.1,6.2,2.7,6.3,6.1c0,0.1,0,0.2,0,0.3
		c0,1.4,0,2.9,0,4.3c-0.1,3.7-2.5,6.3-6,6.4c-2.2,0.1-4.3,0.1-6.5,0.1C1416,4695.8,1413.8,4695.8,1411.7,4695.8z M1410.7,4685.7
		c0.1,0.9,0,1.8,0,2.6c0,2.1,0.1,2.2,2.1,2.2c2.7,0,5.5,0,8.2,0c0.7,0,1.2,0,1.7,0c3.4,0,2.8,0.1,2.9-4.9c0-1.1-0.4-1.6-1.5-1.6
		c-1.9,0-3.9,0-5.8,0c-1.9,0-3.9,0-5.8,0h-0.2C1411.2,4684,1410.6,4684.4,1410.7,4685.7L1410.7,4685.7z M1411.7,4670.7
		c-3.4,0-6.1-2.7-6.1-6.1c0-0.1,0-0.1,0-0.2c0-1.4,0-2.9,0-4.3c0-3.7,2.4-6.4,5.9-6.5c4.4-0.1,8.8-0.1,13.2,0c3.5,0.1,5.9,2.7,6,6.3
		c0,1.5,0,3,0,4.5c0.1,3.4-2.6,6.2-6,6.3c-0.1,0-0.2,0-0.3,0c-2.1,0-4.2,0-6.3,0c-1.3,0-2.7,0-4,0
		C1413.3,4670.7,1412.5,4670.7,1411.7,4670.7L1411.7,4670.7z M1410.7,4660.6c0.1,0.9,0.1,1.9,0,2.8c-0.1,1.5,0.4,2.1,1.9,2
		c1.8-0.1,3.7,0,5.5,0c1,0,1.9,0,2.9,0c0.7,0,1.3,0,1.9,0c3.2,0,2.6,0.1,2.7-4.8c0-1.3-0.4-1.8-1.7-1.8c-3.8,0-7.6,0-11.5,0h0
		C1411.2,4658.9,1410.6,4659.3,1410.7,4660.6L1410.7,4660.6z M1389.5,4670.7c-2.1,0-4.2,0-6.3,0c-3.4,0.1-6.2-2.7-6.3-6.1
		c0,0,0-0.1,0-0.1c-0.1-1.5-0.1-3.1,0-4.6c0.1-3.6,2.5-6.2,6-6.3c4.4-0.1,8.7-0.1,13.1,0c3.7,0.1,6,2.7,6.1,6.5c0,1.4,0,2.9,0,4.3
		c0.1,3.4-2.6,6.2-5.9,6.3c-0.1,0-0.1,0-0.2,0c-0.8,0-1.6,0-2.4,0C1392.1,4670.7,1390.8,4670.7,1389.5,4670.7z M1382,4663.7
		c0,1.3,0.5,1.8,1.8,1.7c1.9-0.1,3.8,0,5.6,0c1,0,1.9,0,2.9,0c0.8,0,1.4,0,1.9,0c3.2,0,2.5,0.1,2.6-4.7c0-1.4-0.5-1.8-1.8-1.8
		c-1.6,0-3.2,0-4.8,0c-1.3,0-2.5,0-3.8,0c-0.6,0-1.2,0-1.6,0c-0.3,0-0.6,0-0.9,0C1381.6,4658.9,1382.1,4659.3,1382,4663.7
		L1382,4663.7z M1448.8,4670.7c-0.7,0-1.4,0-2,0c-2.1,0-4.2,0-6.3,0c-3.4,0.1-6.2-2.5-6.3-5.9c0-0.1,0-0.2,0-0.2
		c-0.1-1.6-0.1-3.2,0-4.8c0.2-3.5,2.5-6,6-6.1c4.4-0.1,8.8-0.1,13.2,0c3.5,0.1,5.8,2.7,5.9,6.3c0,1.5,0.1,3.1,0,4.6
		c0,3.4-2.7,6.1-6,6.1c0,0-0.1,0-0.1,0c-0.8,0-1.6,0-2.4,0C1450.2,4670.7,1449.5,4670.7,1448.8,4670.7L1448.8,4670.7z
		 M1452.5,4665.4c1.2,0,1.8-0.4,1.7-1.7c-0.1-1-0.1-2.1,0-3.1c0.1-1.3-0.5-1.7-1.7-1.7c-1.4,0-2.8,0-4.3,0c-1.4,0-2.8,0-4.3,0
		c-0.8,0-1.4,0-1.9,0c-3.2-0.1-2.6-0.1-2.6,5.1c0,1,0.5,1.5,1.5,1.5c1.9,0,3.9,0,5.8,0c1.2,0,2.3,0,3.5,0
		C1450.9,4665.4,1451.7,4665.4,1452.5,4665.4L1452.5,4665.4z M1411.5,4645.6c-3.3,0-6-2.8-5.9-6.1c0,0,0,0,0,0c0-1.6,0-3.2,0-4.8
		c-0.1-3.3,2.5-6,5.8-6.1c4.5-0.1,8.9-0.1,13.4,0c3.3,0,5.9,2.7,5.9,6c0.1,1.6,0.1,3.3,0,5c0,3.4-2.7,6.1-6.1,6.1c0,0-0.1,0-0.1,0
		c-2.2,0-4.3,0-6.5,0c-0.7,0-1.4,0-2.2,0c-0.7,0-1.3,0-2,0C1413.2,4645.6,1412.3,4645.6,1411.5,4645.6z M1410.7,4635.3
		c0,1.2,0.1,2.3,0,3.5c-0.1,1.1,0.4,1.6,1.5,1.6c1.4,0,2.7,0,4.1,0c0.6,0,1.2,0,1.7,0c2,0,4.1,0,6.1,0c0.9,0,1.4-0.3,1.4-1.3
		c0.1-1.3,0-2.5-0.1-3.8c-0.1-0.5-0.8-1.3-1.2-1.3c-2.9-0.1-5.7-0.1-8.6-0.1c-1.2,0-2.4,0-3.6,0h0
		C1411.1,4633.9,1410.7,4634.3,1410.7,4635.3z M1391.6,4645.6c-0.7,0-1.4,0-2.1,0c-2.2,0-4.3,0-6.5,0c-3.4,0-6.1-2.6-6.2-6
		c0,0,0-0.1,0-0.1c-0.1-1.6-0.1-3.2,0-4.8c0-3.3,2.6-6.1,6-6.1c0.1,0,0.1,0,0.2,0c4.3-0.1,8.6-0.1,12.9,0c3.3-0.1,6,2.5,6.1,5.8
		c0,0.1,0,0.3,0,0.4c0,1.5,0,3.1,0,4.6c0.1,3.3-2.6,6.1-5.9,6.1c0,0,0,0,0,0c-0.8,0-1.7,0-2.5,0
		C1392.9,4645.6,1392.3,4645.6,1391.6,4645.6z M1382.1,4638.7c0,1.2,0.4,1.7,1.6,1.6c1.4,0,2.9,0,4.3,0c1.5,0,2.9,0,4.4,0
		c0.8,0,1.5,0,2,0c3.1,0.1,2.4,0.1,2.5-4.9c0-1.1-0.4-1.6-1.5-1.6c-1.9,0-3.9,0-5.8,0c-1,0-2,0-3.1,0c-0.8,0-1.4,0-1.9,0
		c-0.3,0-0.6,0-0.8,0C1381.7,4633.9,1382.1,4634.3,1382.1,4638.7z M1448.9,4645.6c-0.7,0-1.4,0-2.1,0c-2.2,0-4.3,0-6.5,0
		c-3.3,0.1-6-2.5-6.1-5.8c0,0,0-0.1,0-0.1c-0.1-1.8-0.1-3.5,0-5.3c0.1-3.2,2.6-5.7,5.8-5.7c4.5-0.1,9-0.1,13.6,0
		c3.2,0.1,5.7,2.6,5.7,5.8c0.1,1.8,0.1,3.6,0,5.4c-0.1,3.2-2.7,5.8-5.9,5.8c-0.8,0-1.7,0-2.5,0
		C1450.2,4645.6,1449.5,4645.6,1448.9,4645.6L1448.9,4645.6z M1439.4,4638.7c0,1.2,0.4,1.7,1.6,1.7c1.9-0.1,3.9,0,5.8,0
		c1,0,1.9,0,2.9,0c0.8,0,1.5,0,2.1,0c3,0.1,2.3,0.1,2.4-4.9c0-1.2-0.5-1.5-1.6-1.5c-1.4,0-2.7,0-4.1,0c-1.5,0-3.1,0-4.6,0
		c-0.8,0-1.4,0-1.9,0c-0.4,0-0.7,0-0.9,0C1439,4633.9,1439.5,4634.3,1439.4,4638.7L1439.4,4638.7z M1430.3,4616.8h-12.1
		c-12.5,0-25,0-37.5,0c-4.7,0-7-2.4-7-7.2c0-4.1,0-8.2,0-12.2c0-4.5,2.5-6.9,6.8-6.9c25.1,0,50.1,0,75.2,0c4.5,0,6.9,2.4,6.9,7
		c0,4.2,0,8.5,0,12.7c0,4.2-2.4,6.7-6.6,6.7c-5.3,0-10.7,0-16,0L1430.3,4616.8z M1455.4,4611.6c1.6,0,2.1-0.5,2-2.1
		c-0.1-4-0.1-7.9,0-11.9c0-1.5-0.5-1.9-1.9-1.9c-24.9,0-49.9,0-74.8,0c-1.4,0-1.9,0.5-1.9,1.9c0.1,3.9,0,7.7,0,11.6
		c0,2.3,0,2.3,2.2,2.3c12.3,0,24.7,0,37,0c5.8,0,11.7,0,17.5,0C1442.2,4611.5,1448.8,4611.5,1455.4,4611.6z"/>
	<path id="Tracé_148" class="st1" d="M1304,4686.7c2.7,0,5.4,0.5,7.9,1.5c128.2,48.4,219.9,3,223.8,1c11-5.6,24.6-1.3,30.3,9.7
		c5.7,11,1.4,24.5-9.6,30.2c-4.5,2.3-112.5,56.8-260.3,1.1c-11.6-4.4-17.5-17.4-13.1-29c0,0,0,0,0,0
		C1286.3,4692.6,1294.7,4686.8,1304,4686.7z"/>
</g>
</svg>
