<?xml version="1.0" encoding="utf-8"?>
<!-- Generator: Adobe Illustrator 27.9.5, SVG Export Plug-In . SVG Version: 9.03 Build 54986)  -->
<svg version="1.1" id="Calque_1" xmlns="http://www.w3.org/2000/svg" xmlns:xlink="http://www.w3.org/1999/xlink" x="0px" y="0px"
	 viewBox="0 0 257 253.2" style="enable-background:new 0 0 257 253.2;" xml:space="preserve">
<style type="text/css">
	.st0{opacity:0.74;}
	.st1{fill:#FFC600;}
	.st2{fill:#5D9D1F;}
	.st3{opacity:0.6;}
	.st4{fill:#E06D00;}
	.st5{opacity:0.88;}
	.st6{fill:#FFCA00;}
	.st7{fill-rule:evenodd;clip-rule:evenodd;fill:#FFFFFF;}
	.st8{fill:url(#Ellipse_33-2_00000178886159557712358620000008596759290253523074_);}
	.st9{fill:url(#Ellipse_34_00000070080712909668801570000018396135090910289046_);}
</style>
<g id="Groupe_33" transform="translate(0 253.234) rotate(-90)">
	<g>
		<g id="Groupe_26">
			<g id="Groupe_25" transform="translate(0 0)">
				<g>
					<g id="Groupe_24">
						<g id="Groupe_14" transform="translate(72.11 131.873)" class="st0">
							<g id="Groupe_13">
								<g>
									<g>
										<g id="Groupe_12">
											<path id="Tracé_100" class="st1" d="M57.1,120.2c-15.6,0-31-3-45.4-8.8C2.1,107.5-2.5,96.7,1.3,87.2S15.9,73,25.4,76.8
												c21.2,8.6,45,8.2,65.9-1c21.5-9.4,38.3-27,46.6-48.9c17.3-44.8-4-96.1-47.7-114.5c-0.4-0.2-0.9-0.4-1.4-0.6
												c-9.5-3.8-14.2-14.6-10.4-24.1c3.8-9.5,14.6-14.2,24.1-10.4c0.6,0.3,1.3,0.5,1.9,0.8c15.2,6.4,28.9,15.7,40.4,27.5
												C156-83,164.9-69.6,171-54.8c12.7,30.4,13.2,64.5,1.3,95.2c-6,15.7-15.2,30.1-26.9,42.2c-11.2,11.6-24.7,20.9-39.5,27.4
												c-14.6,6.4-30.3,9.9-46.2,10.2C59,120.1,58,120.2,57.1,120.2"/>
										</g>
									</g>
								</g>
							</g>
						</g>
						<g id="Groupe_17" transform="translate(107.542 124.008)" class="st0">
							<g id="Groupe_16">
								<g>
									<g>
										<g id="Groupe_15">
											<path id="Tracé_101" class="st2" d="M18.5,113.8c-10.3,0-18.6-8.4-18.6-18.6s8.3-18.6,18.6-18.6
												c44.2,0,80.1-36.7,80.1-81.7c0-44.3-35.3-81-78.7-81.7c-0.4,0-0.9,0-1.4,0c-10.3,0-18.6-8.3-18.6-18.6S8.2-124,18.5-124
												l0,0c0.7,0,1.3,0,2,0c15.5,0.2,30.8,3.6,45,9.9c13.7,6.1,26.2,14.8,36.6,25.6c45.1,46.7,44.8,120.9-0.6,167.3
												c-10.6,10.9-23.3,19.5-37.2,25.5C49.8,110.6,34.2,113.8,18.5,113.8"/>
										</g>
									</g>
								</g>
							</g>
						</g>
						<g id="Groupe_20" transform="translate(0 129.719)" class="st3">
							<g id="Groupe_19">
								<g>
									<g>
										<g id="Groupe_18">
											<path id="Tracé_102" class="st4" d="M127.3,127.3c-5.6,0-11.1-0.4-16.6-1.1c-16.3-2.1-32-7.2-46.3-15.2
												c-14.3-8-26.9-18.6-37.1-31.4C5.9,52.7-3.6,18.2,1.2-15.9C3.5-32.3,9-48.2,17.3-62.5c17.2-29.7,45.3-51.5,78.3-60.8
												c9.9-2.8,20.1,3,22.9,12.9s-3,20.1-12.8,22.9C56.4-73.5,27.1-23,40.2,25C51,64.2,87.6,90,127.5,90
												c8.2,0,16.3-1.1,24.2-3.2c0.5-0.1,1-0.3,1.5-0.4c9.9-2.7,20.1,3.2,22.8,13.1c2.6,9.8-3,19.8-12.7,22.7
												c-0.7,0.2-1.4,0.4-2.1,0.6C150.2,125.8,138.7,127.3,127.3,127.3"/>
										</g>
									</g>
								</g>
							</g>
						</g>
						<g id="Groupe_23" transform="translate(12.222 0)" class="st5">
							<g id="Groupe_22">
								<g>
									<g id="Groupe_21">
										<path id="Tracé_103" class="st6" d="M111.6,240.1c-0.6,0-1.3,0-1.9,0c-14.8-0.2-29.4-3.4-42.9-9.5
											c-13.1-5.8-24.9-14.1-34.9-24.4C-11,161.7-10.7,91,32.6,46.8c10.1-10.3,22.2-18.6,35.5-24.3c8.1-3.5-0.8-1.5,25.2-7.4
											s36.9,8.7,36.9,17.3L130,50.8h-18.3c-41.1,0-74.6,34.1-74.6,76.1c0,41.3,32.9,75.4,73.3,76.1c0.4,0,0.8,0,1.3,0
											c10.3,0,18.6,8.3,18.6,18.6S121.9,240.1,111.6,240.1"/>
									</g>
								</g>
							</g>
						</g>
						<path id="Tracé_104" class="st7" d="M127.6,32c52.5,0,95.1,42.7,95.1,95.4s-42.6,95.4-95.1,95.4s-95.1-42.7-95.1-95.4
							S75.1,32,127.6,32"/>
					</g>
				</g>
			</g>
			<g id="Groupe_41" transform="translate(3059.595 -1485.293) rotate(90)">
				<g transform="matrix(1, 0, 0, 1, 1485.29, 2806.36)">
					
						<linearGradient id="Ellipse_33-2_00000123424126203847633040000001277822149369946043_" gradientUnits="userSpaceOnUse" x1="-402.1326" y1="1.9632" x2="-403.1036" y2="1.9751" gradientTransform="matrix(1.150152e-14 -187.834 187.834 1.150152e-14 -243.01 -75501.4766)">
						<stop  offset="0" style="stop-color:#FFFFFF"/>
						<stop  offset="1" style="stop-color:#E8E8E8"/>
					</linearGradient>
					
						<circle id="Ellipse_33-2" style="fill:url(#Ellipse_33-2_00000123424126203847633040000001277822149369946043_);" cx="126.9" cy="126.6" r="93.9"/>
				</g>
				
					<linearGradient id="Ellipse_34_00000091708556619607781710000002724792298050286508_" gradientUnits="userSpaceOnUse" x1="2567.3362" y1="2.0392" x2="2568.2612" y2="2.0392" gradientTransform="matrix(1.098104e-14 -179.334 179.334 1.098104e-14 1246.5065 463426.6562)">
					<stop  offset="0" style="stop-color:#FFFFFF"/>
					<stop  offset="1" style="stop-color:#F5F5F5"/>
				</linearGradient>
				
					<circle id="Ellipse_34" style="fill:url(#Ellipse_34_00000091708556619607781710000002724792298050286508_);" cx="1612.2" cy="2933" r="89.7"/>
			</g>
		</g>
	</g>
</g>
</svg>
