<?xml version="1.0" encoding="utf-8"?>
<!-- Generator: Adobe Illustrator 27.9.6, SVG Export Plug-In . SVG Version: 9.03 Build 54986)  -->
<svg version="1.1" id="Calque_1" xmlns="http://www.w3.org/2000/svg" xmlns:xlink="http://www.w3.org/1999/xlink" x="0px" y="0px"
	 viewBox="0 0 126 126" style="enable-background:new 0 0 126 126;" xml:space="preserve">
<style type="text/css">
	.st0{fill:#FFFFFF;}
	.st1{fill:#005078;}
</style>
<g id="btn_fleche" transform="translate(5138.5 -497.5) rotate(90)">
	<g transform="matrix(0, -1, 1, 0, 497.5, 5138.5)">
		<circle id="bg_btn-2" class="st0" cx="63" cy="63" r="43.5"/>
	</g>
	<path id="flèche" class="st1" d="M545.4,5091.7c-1.2,0-2.2-1-2.2-2.2c0-0.6,0.2-1.1,0.6-1.5l25.4-25.4h-23.9c-1.2,0-2.2-1-2.2-2.2
		s1-2.2,2.2-2.2h29.1c0,0,0,0,0,0l0,0c0.6,0,1.1,0.2,1.5,0.6l0,0l0,0l0,0l0,0l0,0l0,0l0,0c0.2,0.2,0.4,0.4,0.5,0.7
		c0.1,0.3,0.2,0.5,0.2,0.8v29.2c0,1.2-0.9,2.2-2.1,2.2c-1.2,0-2.2-0.9-2.2-2.1c0,0,0-0.1,0-0.1v-23.8l-25.4,25.4
		C546.5,5091.5,546,5091.7,545.4,5091.7"/>
</g>
</svg>
