<svg xmlns="http://www.w3.org/2000/svg" xmlns:xlink="http://www.w3.org/1999/xlink" width="768" height="231" viewBox="0 0 768 231">
  <defs>
    <clipPath id="clip-path">
      <rect id="Rectangle_71" data-name="Rectangle 71" width="768" height="231" transform="translate(0 0.036)" fill="#fff" stroke="#707070" stroke-width="1"/>
    </clipPath>
    <clipPath id="clip-path-2">
      <rect id="Rectangle_45" data-name="Rectangle 45" width="397.444" height="597.969" fill="none"/>
    </clipPath>
    <clipPath id="clip-path-3">
      <rect id="Rectangle_44" data-name="Rectangle 44" width="397.445" height="597.968" fill="none"/>
    </clipPath>
    <clipPath id="clip-path-4">
      <rect id="Rectangle_40" data-name="Rectangle 40" width="284.269" height="383.211" fill="none"/>
    </clipPath>
    <clipPath id="clip-path-5">
      <rect id="Rectangle_41" data-name="Rectangle 41" width="212.951" height="373.246" fill="none"/>
    </clipPath>
    <clipPath id="clip-path-6">
      <rect id="Rectangle_42" data-name="Rectangle 42" width="277.523" height="394.378" fill="none"/>
    </clipPath>
    <clipPath id="clip-path-7">
      <rect id="Rectangle_43" data-name="Rectangle 43" width="204.704" height="571.531" fill="none"/>
    </clipPath>
    <linearGradient id="linear-gradient" x1="0.489" y1="0.5" x2="1" y2="0.5" gradientUnits="objectBoundingBox">
      <stop offset="0" stop-color="#1fa138"/>
      <stop offset="1" stop-color="#78b12b"/>
    </linearGradient>
    <linearGradient id="linear-gradient-2" x1="0.504" y1="0.5" x2="1" y2="0.5" gradientUnits="objectBoundingBox">
      <stop offset="0" stop-color="#66b02f"/>
      <stop offset="1" stop-color="#c0d013"/>
    </linearGradient>
    <linearGradient id="linear-gradient-3" x1="0.529" y1="0.5" x2="1" y2="0.5" gradientUnits="objectBoundingBox">
      <stop offset="0" stop-color="#e6a100"/>
      <stop offset="1" stop-color="#fddc04"/>
    </linearGradient>
    <linearGradient id="linear-gradient-4" x1="0.513" y1="0.5" x2="1" y2="0.5" gradientUnits="objectBoundingBox">
      <stop offset="0" stop-color="#e6af58"/>
      <stop offset="1" stop-color="#faf3b8"/>
    </linearGradient>
  </defs>
  <g id="Groupe_64" data-name="Groupe 64" transform="translate(-543 -5691)">
    <g id="bg_logo" transform="translate(543 5690.964)" clip-path="url(#clip-path)">
      <g id="Groupe_44" data-name="Groupe 44" transform="matrix(0.966, 0.259, -0.259, 0.966, 324.889, -464.981)">
        <g id="Groupe_26" data-name="Groupe 26" clip-path="url(#clip-path-2)">
          <g id="Groupe_25" data-name="Groupe 25" transform="translate(0 0.001)">
            <g id="Groupe_24" data-name="Groupe 24" clip-path="url(#clip-path-3)">
              <g id="Groupe_14" data-name="Groupe 14" transform="translate(113.175 206.97)" opacity="0.74">
                <g id="Groupe_13" data-name="Groupe 13">
                  <g id="Groupe_12" data-name="Groupe 12" clip-path="url(#clip-path-4)">
                    <path id="Tracé_100" data-name="Tracé 100" d="M89.635,383.21a190.8,190.8,0,0,1-71.33-13.843,29.176,29.176,0,0,1,21.577-54.215,133.043,133.043,0,0,0,103.439-1.563c33.72-14.708,59.713-41.967,73.19-76.756,27.226-70.28-6.325-150.872-74.791-179.653-.705-.3-1.423-.591-2.134-.876A29.175,29.175,0,0,1,161.163,2.09c1.012.405,2.033.825,3.035,1.246a193,193,0,0,1,63.457,43.126,197.04,197.04,0,0,1,41.1,62.11,199.658,199.658,0,0,1,1.973,149.417,196.53,196.53,0,0,1-42.244,66.154,193.714,193.714,0,0,1-61.977,42.989A191.362,191.362,0,0,1,94,383.161c-1.455.033-2.912.05-4.363.05" transform="translate(0 0.001)" fill="#ffc600"/>
                  </g>
                </g>
              </g>
              <g id="Groupe_17" data-name="Groupe 17" transform="translate(168.785 194.627)" opacity="0.74">
                <g id="Groupe_16" data-name="Groupe 16">
                  <g id="Groupe_15" data-name="Groupe 15" clip-path="url(#clip-path-5)">
                    <path id="Tracé_101" data-name="Tracé 101" d="M29.086,373.246a29.19,29.19,0,0,1,0-58.379c69.306,0,125.691-57.53,125.691-128.244,0-69.559-55.434-127.081-123.571-128.226-.7-.012-1.413-.018-2.12-.018A29.19,29.19,0,0,1,29.086,0c1.031,0,2.072.009,3.095.026a180.336,180.336,0,0,1,70.627,15.589,183.247,183.247,0,0,1,57.438,40.221,186.2,186.2,0,0,1,38.579,58.948,189.746,189.746,0,0,1-.282,144.36,186.157,186.157,0,0,1-39.308,59.3,183.09,183.09,0,0,1-58.442,40.067,180.405,180.405,0,0,1-71.707,14.734" transform="translate(0 0)" fill="#5d9d1f"/>
                  </g>
                </g>
              </g>
              <g id="Groupe_20" data-name="Groupe 20" transform="translate(0 203.59)" opacity="0.6">
                <g id="Groupe_19" data-name="Groupe 19">
                  <g id="Groupe_18" data-name="Groupe 18" clip-path="url(#clip-path-6)">
                    <path id="Tracé_102" data-name="Tracé 102" d="M199.759,394.378a204.265,204.265,0,0,1-26.058-1.672,201.226,201.226,0,0,1-72.679-23.915,196.791,196.791,0,0,1-58.207-49.2A196.832,196.832,0,0,1,1.922,169.681a201.148,201.148,0,0,1,25.3-73.147A206.977,206.977,0,0,1,150.055,1.113a29.182,29.182,0,0,1,15.857,56.168C88.552,79.276,42.457,158.46,63.159,233.8c16.923,61.585,74.285,102.11,137.021,102.11a146.9,146.9,0,0,0,37.933-5c.792-.211,1.594-.432,2.387-.658a29.182,29.182,0,0,1,15.857,56.168c-1.093.311-2.2.616-3.291.907a206.276,206.276,0,0,1-53.307,7.052" transform="translate(0 0)" fill="#e06d00"/>
                  </g>
                </g>
              </g>
              <g id="Groupe_23" data-name="Groupe 23" transform="translate(19.182 -0.001)" opacity="0.88">
                <g id="Groupe_22" data-name="Groupe 22">
                  <g id="Groupe_21" data-name="Groupe 21" clip-path="url(#clip-path-7)">
                    <path id="Tracé_103" data-name="Tracé 103" d="M175.22,571.53c-.979,0-1.971-.008-2.947-.025a171.876,171.876,0,0,1-67.316-14.858,174.631,174.631,0,0,1-54.738-38.331,179.443,179.443,0,0,1,.963-250.228,174.481,174.481,0,0,1,55.695-38.183,171.767,171.767,0,0,1,39.495-11.652c.463-74.981-.23-187.608-.238-188.881a29.086,29.086,0,1,1,58.171-.367c.009,1.44.891,144.843,0,216.412l-.36,28.824H175.22c-64.54,0-117.047,53.587-117.047,119.454,0,64.792,51.621,118.372,115.072,119.438.652.011,1.317.016,1.975.016a29.19,29.19,0,0,1,0,58.379" transform="translate(0 0.001)" fill="#ffca00"/>
                  </g>
                </g>
              </g>
              <path id="Tracé_104" data-name="Tracé 104" d="M149.186,0c82.393,0,149.186,67.03,149.186,149.715S231.579,299.431,149.186,299.431,0,232.4,0,149.715,66.793,0,149.186,0" transform="translate(51.049 244.817)" fill="#fff" fill-rule="evenodd"/>
            </g>
          </g>
        </g>
      </g>
    </g>
    <g id="Objet_dynamique_vectoriel" data-name="Objet dynamique vectoriel" transform="translate(896.318 5692.281)">
      <g id="Groupe_3" data-name="Groupe 3" transform="translate(0 0)">
        <g id="Groupe_1" data-name="Groupe 1" transform="translate(0 43.295)">
          <path id="Tracé_1" data-name="Tracé 1" d="M108.542,273.114a8.609,8.609,0,0,0-5.627-1.854H89.26v31.283h3.872V289.317h10.134c4.718,0,7.89-3.191,7.89-7.942v-2.042A7.717,7.717,0,0,0,108.542,273.114Zm-1.26,8.261c0,3.542-2.517,4.07-4.018,4.07H93.13V275.13h9.783a4.93,4.93,0,0,1,3.138.948,4.03,4.03,0,0,1,1.23,3.254v2.044Z" transform="translate(-89.26 -267.022)" fill="#383838"/>
          <path id="Tracé_2" data-name="Tracé 2" d="M210.2,313.871v-2.179H206.42v22.473H210.2v-13.8c0-4.331,1.945-5.02,4.886-5.02h3.166V311.56h-3.232A5.643,5.643,0,0,0,210.2,313.871Z" transform="translate(-181.19 -298.644)" fill="#383838"/>
          <path id="Tracé_3" data-name="Tracé 3" d="M280.777,311.56h-8.739v3.781H277v15.091H270.89v3.732h15.053v-3.732h-5.166Z" transform="translate(-231.777 -298.644)" fill="#383838"/>
          <path id="Tracé_4" data-name="Tracé 4" d="M292.541,258.622a3.521,3.521,0,1,0-3.521-3.521A3.521,3.521,0,0,0,292.541,258.622Z" transform="translate(-246.003 -251.58)" fill="#383838"/>
          <path id="Tracé_5" data-name="Tracé 5" d="M520.614,330.568h-5.47a3.217,3.217,0,0,1-3.213-3.213V324.54s13.623-.065,14.357-.065a1.091,1.091,0,0,0,1.2-1.154v-4.755a6.791,6.791,0,0,0-6.74-7h-5.6a7,7,0,0,0-7,7v8.663a7,7,0,0,0,7,7h5.47c3.857,0,6.245-2.644,6.945-6.157l-3.527-.96C523.631,329.129,522.384,330.568,520.614,330.568Zm-8.685-12.158a3.175,3.175,0,0,1,3.213-3.163h5.6a2.922,2.922,0,0,1,2.959,3.112V320.7l-11.771.054v-2.345Z" transform="translate(-417.944 -298.651)" fill="#383838"/>
          <path id="Tracé_6" data-name="Tracé 6" d="M630.728,322.628a7.464,7.464,0,0,0-2.961-1.26c-.493-.105-1.91-.36-3.411-.631-1.46-.265-2.972-.536-3.573-.659-1.675-.342-2.242-.932-2.242-2.332a2.139,2.139,0,0,1,.808-1.9,3.97,3.97,0,0,1,2.212-.575h4.458c1.215,0,2.539.435,3.166,3.1l3.6-.864c-.9-3.831-3.254-5.941-6.77-5.941H621.56a7.677,7.677,0,0,0-4.378,1.258,6.236,6.236,0,0,0-.278,9.641,7.381,7.381,0,0,0,3.12,1.318c.644.131,2.175.409,3.656.676,1.408.254,2.862.517,3.3.609,1.981.42,2.255,1.38,2.255,2.354a3.375,3.375,0,0,1-.885,2.438,2.346,2.346,0,0,1-1.514.68h-5.644c-.9,0-2.774-.078-3.426-3.665l-3.676.889c1.023,4.223,3.48,6.456,7.1,6.456h5.644a6.069,6.069,0,0,0,4.13-1.731,6.79,6.79,0,0,0,2.05-5.069A5.688,5.688,0,0,0,630.728,322.628Z" transform="translate(-501.07 -298.651)" fill="#383838"/>
          <path id="Tracé_7" data-name="Tracé 7" d="M378.815,311.56c-3.2,0-5.086,1.038-6.15,2.821A6.32,6.32,0,0,0,367,311.56c-2.468,0-4.193.889-5.216,2.746v-2.614H358v22.473h3.781V321.037c0-3.028.646-5.812,4.432-5.812,2.285,0,4.049,1.637,4.049,4.544v14.4h3.781V320.327c0-3.4,1.4-5.123,4.272-5.123a3.98,3.98,0,0,1,4.26,4.307v14.652h3.781v-15.63C386.357,315.518,384.714,311.56,378.815,311.56Z" transform="translate(-300.128 -298.644)" fill="#383838"/>
        </g>
        <path id="Tracé_8" data-name="Tracé 8" d="M226.17,197.312c1.746-.566,3.564-1.111,5.153-1.5,1.008-5.767,4.557-9.357,8.75-10.821l-1.663-7.612C231.513,180.472,226.17,187.277,226.17,197.312Zm16.013-12.871a13.614,13.614,0,0,1,1.957-.2l1.947-8.73a21.938,21.938,0,0,0-3.779.549Zm25.075,5.909a21.4,21.4,0,0,0-7.91-11.12l-8.084,6.758a12.727,12.727,0,0,1,4.886,4.972q5.682-.514,11.108-.609Zm-17.047-14.684-3.949,8.672a13.533,13.533,0,0,1,2.591.579l6.251-7.985A20.981,20.981,0,0,0,250.211,175.665Z" transform="translate(-196.687 -148.596)" fill="url(#linear-gradient)"/>
        <path id="Tracé_9" data-name="Tracé 9" d="M217.73,165.074h0c.792-.267,1.387-.459,1.387-.459,0-10.035,5.343-16.838,12.24-19.932l-1.622-7.434C221.182,142.036,215.3,151.6,217.73,165.074Zm17.521-21.709a21.94,21.94,0,0,1,3.779-.549l2-8.976a28.218,28.218,0,0,0-5.657,1.044Zm11.975-9.333-4.07,8.937a20.981,20.981,0,0,1,4.893,1.266l6.329-8.084A25.749,25.749,0,0,0,247.226,134.032Zm12.938,5.922-7.871,6.579a21.4,21.4,0,0,1,7.91,11.12s5.733-.009,8.534.127C267.815,149.782,264.587,143.9,260.164,139.954Z" transform="translate(-189.632 -115.9)" fill="url(#linear-gradient-2)"/>
        <path id="Tracé_10" data-name="Tracé 10" d="M204.212,134.014c.678-.241,1.419-.5,2.192-.758h0c-2.429-13.472,3.454-23.038,12.006-27.825l-1.529-7.009C206.325,105.168,199.625,117.915,204.212,134.014Zm19.838-30.947a28.067,28.067,0,0,1,5.657-1.044l1.947-8.732a33.549,33.549,0,0,0-7.483,1.628Zm15.8-9.523-3.949,8.672a25.749,25.749,0,0,1,7.152,2.119l5.98-7.638A30.822,30.822,0,0,0,239.85,93.544Zm16.4,8.4-7.408,6.193c4.425,3.943,7.651,9.828,8.573,17.826,0,0,5.347.353,7.955.668A30.366,30.366,0,0,0,256.246,101.943Z" transform="translate(-178.306 -84.082)" fill="url(#linear-gradient-3)"/>
        <path id="Tracé_11" data-name="Tracé 11" d="M196.437,100.867c.379-.138,1.126-.4,1.126-.4-4.585-16.1,2.115-28.846,12.667-35.595l-1.441-6.6C197.243,67.172,190.578,82.655,196.437,100.867Zm21.082-39.5A33.6,33.6,0,0,1,225,59.738l2.052-9.206a38.541,38.541,0,0,0-9.415,2.595ZM233.2,59.992a30.768,30.768,0,0,1,9.18,3.153l6.994-8.933A38.612,38.612,0,0,0,237.51,50.53Zm25.514.777L249.6,68.391a30.367,30.367,0,0,1,9.12,24.687h0a94.723,94.723,0,0,1,10.838,1.93C271.821,80.633,267,68.7,258.715,60.77Z" transform="translate(-171.657 -50.53)" fill="url(#linear-gradient-4)"/>
      </g>
      <g id="Groupe_5" data-name="Groupe 5" transform="translate(65.34 45.139)">
        <g id="Groupe_4" data-name="Groupe 4" transform="translate(0)">
          <path id="Tracé_79" data-name="Tracé 79" d="M396.918,260.14a4.546,4.546,0,0,0-1.695.308A3.9,3.9,0,0,0,393,262.627a4.683,4.683,0,0,0,0,3.385,3.9,3.9,0,0,0,2.227,2.179,4.6,4.6,0,0,0,1.695.308,4.215,4.215,0,0,0,1.443-.218,3.877,3.877,0,0,0,1.049-.6v-1.858a3.55,3.55,0,0,1-.986.782,2.917,2.917,0,0,1-1.43.321,2.6,2.6,0,0,1-1.251-.321,2.4,2.4,0,0,1-.924-.9,2.537,2.537,0,0,1-.353-1.372,2.634,2.634,0,0,1,.353-1.385,2.416,2.416,0,0,1,.924-.9,2.467,2.467,0,0,1,1.251-.321,3.075,3.075,0,0,1,1.43.321,3.33,3.33,0,0,1,.986.782v-1.858a3.687,3.687,0,0,0-1.049-.616A4.215,4.215,0,0,0,396.918,260.14Zm9.639,4.216a2.581,2.581,0,0,0,.454-1.525,2.688,2.688,0,0,0-.366-1.4,2.444,2.444,0,0,0-1.049-.937,3.887,3.887,0,0,0-1.669-.334h-2.782v8.347h1.695v-3.026h.721l1.936,3.026h2.011l-2.24-3.23A2.562,2.562,0,0,0,406.557,264.356Zm-1.7-.562a1.59,1.59,0,0,1-1.049.334h-.973v-2.5h.973a1.586,1.586,0,0,1,1.049.334,1.124,1.124,0,0,1,.392.924A1.106,1.106,0,0,1,404.86,263.794Zm3.428-3.654V261.7H410.5v6.807H412.2V261.7h2.227V260.14Z" transform="translate(-392.68 -260.14)" fill="#e58406"/>
        </g>
      </g>
    </g>
  </g>
</svg>
