<?xml version="1.0" encoding="utf-8"?>
<!-- Generator: Adobe Illustrator 27.9.6, SVG Export Plug-In . SVG Version: 9.03 Build 54986)  -->
<svg version="1.1" id="Calque_1" xmlns="http://www.w3.org/2000/svg" xmlns:xlink="http://www.w3.org/1999/xlink" x="0px" y="0px"
	 viewBox="0 0 394.6 171.4" style="enable-background:new 0 0 394.6 171.4;" xml:space="preserve">
<style type="text/css">
	.st0{opacity:0.74;fill:#586DDD;enable-background:new    ;}
	.st1{opacity:0.74;fill:#FF99D6;enable-background:new    ;}
	.st2{opacity:0.6;fill:#45DB96;enable-background:new    ;}
	.st3{opacity:0.9;fill:#F5D836;enable-background:new    ;}
	.st4{fill:#FFFFFF;}
	.st5{fill:#383838;}
	.st6{fill:url(#Tracé_8_00000130622439883198008030000010565416870386307509_);}
	.st7{fill:url(#Tracé_9_00000149381920869584926330000010971745404648301482_);}
	.st8{fill:url(#Tracé_10_00000054239405962602374730000009138502961496664196_);}
	.st9{fill:url(#Tracé_11_00000077303801494736381120000001586383257950627492_);}
	.st10{fill:#E58406;}
	.st11{fill:#004F78;}
	.st12{fill:#F5D936;}
	.st13{fill:#45DB96;}
	.st14{fill:#12997D;}
	.st15{fill:#FF99D6;}
	.st16{fill:#596EDE;}
</style>
<g id="Groupe_64" transform="translate(-543 -5691)">
	<g>
		<g id="bg_logo" transform="translate(543 5690.964)">
			<g id="Groupe_44" transform="matrix(0.966, 0.259, -0.259, 0.966, 324.889, -464.981)">
				<path class="st0" d="M47.6,576.6c-32.9,14.5-70.2,15-103.4,1.6c-14.9-5.8-31.7,1.4-37.7,16.2c-6,14.9,1.2,31.9,16.1,38
					c22.7,9.1,46.9,13.8,71.3,13.8l0,0c1.5,0,2.9,0,4.4,0c25-0.6,49.6-6,72.5-16c23.3-10.1,44.3-24.7,62-43
					c18.4-19,32.8-41.5,42.2-66.2c11.2-28.9,15.4-59.6,12.7-89.9l-57.5,15.4c0.3,17.8-2.7,35.9-9.4,53.3
					C107.3,534.6,81.3,561.9,47.6,576.6z"/>
				<path class="st1" d="M-11,565.5c-16,0.1-28.9,13-29,29c-0.1,16.1,12.9,29.3,29,29.4l0,0c24.7,0,49.1-5,71.7-14.7
					c21.9-9.4,41.8-23,58.4-40.1c16.8-17.1,30.1-37.2,39.3-59.3c9.9-23.9,14.7-49.3,14.4-74.7L114,450.8
					C107.3,515.2,53.8,565.5-11,565.5z"/>
				<path class="st2" d="M-107.9,628.4c22.5,12.5,47.1,20.7,72.7,23.9c8.6,1.1,17.3,1.7,26.1,1.7l0,0c18,0,35.9-2.4,53.3-7.1
					c1.1-0.3,2.2-0.6,3.3-0.9c15.4-4.4,24.3-20.4,20.1-35.9c-4.3-15.5-20.4-24.6-35.9-20.3c-0.8,0.2-1.6,0.4-2.4,0.7
					c-12.4,3.3-25.1,5-37.9,5c-54,0-103.9-30-127.6-77.6l-57,15.3c6.9,16.3,16,31.8,27.3,46C-150.1,599.2-130.3,615.9-107.9,628.4z"
					/>
				<path class="st3" d="M-84.8,612.7c21.2,9.4,44.1,14.5,67.3,14.9c1,0,2,0,2.9,0l0,0c16-0.1,28.9-13,29-29
					c0.1-16.1-12.9-29.3-29-29.4c-0.7,0-1.3,0-2,0c-41.2-0.7-77.4-23.5-97.7-57.1l-57.9,15.5c8.1,16.8,19,32.6,32.6,46.8
					C-123.9,590.5-105.3,603.5-84.8,612.7z"/>
				<path class="st4" d="M-8.7,600.3c82.4,0,149.2-67,149.2-149.7c0-2.3-0.1-4.5-0.2-6.8l-281.6,75.5
					C-116.4,567.4-66.4,600.3-8.7,600.3z"/>
			</g>
		</g>
	</g>
	<g id="Objet_dynamique_vectoriel" transform="translate(896.318 5692.281)">
		<g id="Groupe_3" transform="translate(0 0)">
			<g id="Groupe_1" transform="translate(0 43.295)">
				<path id="Tracé_1" class="st5" d="M-223.5,3.5c-1.4-1.1-3.2-1.7-5-1.7h-12.3v27.3h3.5V17.7h9.1c4.2,0,7.1-2.8,7.1-6.9V9
					C-221,6.8-221.9,4.9-223.5,3.5z M-224.6,10.8c0,3.1-2.2,3.6-3.6,3.6h-9.1V5.3h8.8c1-0.1,2,0.3,2.8,0.8c0.8,0.7,1.2,1.7,1.1,2.9
					V10.8L-224.6,10.8z"/>
				<path id="Tracé_2" class="st5" d="M-214.8,11.5V9.6h-3.4v19.6h3.4v-12c0-3.8,1.7-4.4,4.4-4.4h2.9V9.5h-2.9
					C-212.2,9.4-213.8,10.2-214.8,11.5z"/>
				<path id="Tracé_3" class="st5" d="M-196.8,9.5h-7.8v3.3h4.5V26h-5.5v3.2h13.6V26h-4.7L-196.8,9.5z"/>
				<path id="Tracé_4" class="st5" d="M-199,4.3c1.7,0,3.1-1.4,3.1-3.1s-1.4-3.1-3.1-3.1c-1.7,0-3.1,1.4-3.1,3.1l0,0
					C-202.2,3-200.7,4.3-199,4.3z"/>
				<path id="Tracé_5" class="st5" d="M-148.5,26.1h-4.9c-1.6,0-2.9-1.2-2.9-2.8v-2.4c0,0,12.2-0.1,12.9-0.1c0.5,0.1,1-0.3,1.1-0.9
					c0-0.1,0-0.1,0-0.2v-4.2c0.1-3.2-2.5-6-5.9-6.1c-0.1,0-0.1,0-0.2,0h-5c-3.5,0-6.3,2.7-6.3,6.1v7.6c0,3.4,2.8,6.1,6.3,6.1h4.9
					c3.5,0,5.6-2.3,6.2-5.4l-3.1-0.9C-145.8,24.8-147,26.1-148.5,26.1z M-156.3,15.5c0-1.6,1.3-2.8,2.9-2.8l0,0h5
					c1.4,0,2.6,1.1,2.7,2.5c0,0.1,0,0.2,0,0.2v2l-10.6,0.1V15.5L-156.3,15.5z"/>
				<path id="Tracé_6" class="st5" d="M-124.3,19.2c-0.8-0.5-1.7-1-2.7-1.1c-0.4-0.1-1.7-0.3-3.1-0.5c-1.3-0.3-2.7-0.4-3.2-0.6
					c-1.5-0.3-2-0.8-2-2c-0.1-0.6,0.2-1.2,0.7-1.7c0.6-0.3,1.3-0.5,2-0.5h4c1.1,0,2.2,0.3,2.9,2.7l3.2-0.8c-0.8-3.3-3-5.2-6.1-5.2
					h-4c-1.4,0-2.8,0.3-4,1.1c-2.4,1.8-2.9,5.2-1,7.6c0.3,0.3,0.4,0.5,0.7,0.8c0.8,0.6,1.8,1,2.8,1.1c0.5,0.1,2,0.3,3.3,0.6
					c1.3,0.3,2.6,0.4,3,0.5c1.8,0.3,2.1,1.2,2.1,2.1c0,0.8-0.3,1.6-0.8,2.1c-0.4,0.3-0.8,0.5-1.3,0.6h-5c-0.8,0-2.5-0.1-3.1-3.2
					l-3.3,0.8c0.9,3.7,3.1,5.7,6.4,5.7h5c1.3,0,2.7-0.5,3.7-1.5c1.3-1.1,1.9-2.8,1.8-4.5C-122.2,21.7-122.9,20.1-124.3,19.2z"/>
				<path id="Tracé_7" class="st5" d="M-170.1,9.5c-2.9,0-4.6,0.9-5.5,2.4c-1.1-1.7-3.1-2.6-5.1-2.4c-2.2,0-3.8,0.8-4.7,2.4V9.6
					h-3.4v19.6h3.4V17.8c0-2.6,0.5-5.1,4-5.1c2.1,0,3.6,1.4,3.6,3.9v12.6h3.4v-12c0-3,1.3-4.5,3.9-4.5c2-0.2,3.7,1.3,3.9,3.2
					c0,0.2,0,0.3,0,0.5v12.8h3.4V15.6C-163.3,13-164.8,9.5-170.1,9.5z"/>
			</g>
			
				<linearGradient id="Tracé_8_00000021118012367156069820000015808835832809040303_" gradientUnits="userSpaceOnUse" x1="-936.8213" y1="-0.1947" x2="-936.3621" y2="-0.1947" gradientTransform="matrix(41.088 0 0 21.801 38295.8516 40.946)">
				<stop  offset="0" style="stop-color:#1FA138"/>
				<stop  offset="1" style="stop-color:#78B12B"/>
			</linearGradient>
			<path id="Tracé_8" style="fill:url(#Tracé_8_00000021118012367156069820000015808835832809040303_);" d="M-214.3,46.2
				c1.5-0.5,3.2-1,4.7-1.3c0.9-5.1,4.1-8.2,7.9-9.4l-1.5-6.6C-209.5,31.5-214.3,37.5-214.3,46.2z M-199.9,35
				c0.5-0.1,1.2-0.2,1.8-0.2l1.7-7.6c-1.2,0.1-2.2,0.3-3.4,0.4L-199.9,35z M-177.4,40.2c-1.3-3.9-3.7-7.3-7.1-9.7l-7.3,5.9
				c1.9,1,3.4,2.5,4.4,4.4C-183.9,40.4-180.6,40.2-177.4,40.2L-177.4,40.2z M-192.7,27.4l-3.5,7.6c0.8,0.1,1.5,0.3,2.3,0.5l5.7-7
				C-189.8,27.9-191.2,27.5-192.7,27.4L-192.7,27.4z"/>
			
				<linearGradient id="Tracé_9_00000150063433998520413080000003073361046344749229_" gradientUnits="userSpaceOnUse" x1="-936.7372" y1="-9.0263" x2="-936.2915" y2="-9.0263" gradientTransform="matrix(51.5589 0 0 31.234 48104.4297 314.9631)">
				<stop  offset="0" style="stop-color:#66B02F"/>
				<stop  offset="1" style="stop-color:#C0D013"/>
			</linearGradient>
			<path id="Tracé_9" style="fill:url(#Tracé_9_00000150063433998520413080000003073361046344749229_);" d="M-215.6,46.7
				L-215.6,46.7c0.7-0.3,1.3-0.4,1.3-0.4c0-8.7,4.8-14.7,11-17.4l-1.4-6.5C-212.4,26.5-217.7,34.9-215.6,46.7z M-199.8,27.7
				c1.1-0.3,2.2-0.4,3.4-0.4l1.8-7.9c-1.7,0.2-3.4,0.4-5.1,0.9L-199.8,27.7z M-189.1,19.5l-3.7,7.8c1.5,0.2,3,0.5,4.4,1.1l5.7-7.1
				C-184.6,20.5-186.8,19.8-189.1,19.5L-189.1,19.5z M-177.5,24.7l-7.1,5.8c3.4,2.4,5.9,5.8,7.1,9.7c0,0,5.1,0,7.6,0.1
				C-170.5,33.3-173.4,28.1-177.5,24.7L-177.5,24.7z"/>
			
				<linearGradient id="Tracé_10_00000128472466110435982690000000273851066523690113_" gradientUnits="userSpaceOnUse" x1="-936.6638" y1="-13.785" x2="-936.2404" y2="-13.785" gradientTransform="matrix(62.7606 0 0 40.723 58596.5547 590.9065)">
				<stop  offset="0" style="stop-color:#E6A100"/>
				<stop  offset="1" style="stop-color:#FDDC04"/>
			</linearGradient>
			<path id="Tracé_10" style="fill:url(#Tracé_10_00000128472466110435982690000000273851066523690113_);" d="M-217.5,47.3
				c0.6-0.2,1.3-0.4,2-0.7l0,0c-2.2-11.8,3.1-20.1,10.8-24.3l-1.3-6.1C-215.7,22.1-221.7,33.2-217.5,47.3z M-199.7,20.3
				c1.6-0.4,3.3-0.8,5.1-0.9l1.7-7.6c-2.2,0.3-4.6,0.7-6.7,1.4L-199.7,20.3z M-185.5,12l-3.5,7.6c2.2,0.3,4.4,1,6.5,1.8l5.4-6.6
				C-179.8,13.4-182.6,12.4-185.5,12z M-170.8,19.3l-6.7,5.4c4,3.4,6.9,8.6,7.7,15.5c0,0,4.8,0.3,7.2,0.6
				C-161.8,32.9-164.8,24.9-170.8,19.3L-170.8,19.3z"/>
			
				<linearGradient id="Tracé_11_00000111893407065695460590000007132245194678805655_" gradientUnits="userSpaceOnUse" x1="-936.6399" y1="-16.7761" x2="-936.2022" y2="-16.7761" gradientTransform="matrix(75.8448 0 0 50.337 70853.7266 870.1165)">
				<stop  offset="0" style="stop-color:#E6AF58"/>
				<stop  offset="1" style="stop-color:#FAF3B8"/>
			</linearGradient>
			<path id="Tracé_11" style="fill:url(#Tracé_11_00000111893407065695460590000007132245194678805655_);" d="M-218.5,47.6
				c0.4-0.1,1-0.3,1-0.3c-4.1-14.1,1.9-25.1,11.4-31.1l-1.3-5.8C-217.8,18.2-223.8,31.7-218.5,47.6z M-199.6,13.1
				c2.2-0.7,4.4-1.2,6.7-1.4l1.9-8c-2.9,0.4-5.8,1.1-8.4,2.3L-199.6,13.1z M-185.5,12c2.9,0.5,5.7,1.4,8.3,2.8L-171,7
				c-3.3-1.7-6.9-2.7-10.7-3.2L-185.5,12z M-162.5,12.6l-8.2,6.6c5.9,5.6,9,13.5,8.2,21.6l0,0c3.2,0.3,6.6,1,9.7,1.7
				C-150.8,30-155.2,19.6-162.5,12.6L-162.5,12.6z"/>
		</g>
		<g id="Groupe_5" transform="translate(65.34 45.139)">
			<g id="Groupe_4" transform="translate(0)">
				<path id="Tracé_79" class="st10" d="M-243.7-2c-0.5,0-1.1,0.1-1.5,0.3c-0.9,0.3-1.6,1-2,1.9c-0.4,1-0.4,2,0,3
					c0.4,0.9,1.1,1.6,2,1.9c0.4,0.2,1,0.3,1.5,0.3c0.4,0,0.9-0.1,1.3-0.2c0.4-0.1,0.6-0.3,0.9-0.5V2.9c-0.3,0.3-0.5,0.5-0.9,0.7
					c-0.4,0.2-0.8,0.3-1.3,0.3c-0.4,0-0.8-0.1-1.2-0.3c-0.4-0.2-0.6-0.4-0.8-0.8c-0.2-0.3-0.4-0.8-0.4-1.2s0.1-0.9,0.4-1.2
					c0.2-0.3,0.4-0.6,0.8-0.8c0.4-0.2,0.7-0.3,1.2-0.3s0.9,0.1,1.3,0.3c0.4,0.2,0.6,0.4,0.9,0.7v-1.7c-0.3-0.3-0.6-0.4-0.9-0.5
					C-242.8-1.9-243.2-2-243.7-2z M-234.9,1.6c0.3-0.3,0.4-0.9,0.4-1.3s-0.1-0.9-0.4-1.2c-0.3-0.3-0.5-0.6-0.9-0.8
					c-0.4-0.2-1-0.3-1.5-0.3h-2.5v7.2h1.5V2.7h0.6l1.7,2.6h1.8l-2-2.8C-235.7,2.3-235.2,2.1-234.9,1.6L-234.9,1.6z M-236.5,1.2
					c-0.3,0.2-0.6,0.3-0.9,0.3h-0.9v-2.2h0.9c0.4,0,0.7,0.1,0.9,0.3c0.3,0.2,0.4,0.5,0.4,0.8C-236.1,0.7-236.3,0.9-236.5,1.2
					L-236.5,1.2z M-233.4-2v1.4h2v5.9h1.5v-5.9h2V-2H-233.4z"/>
			</g>
		</g>
	</g>
	<g>
		<path class="st11" d="M809.3,5724.2c-1.5-0.7-2.6-2.2-2.6-3.9l0-0.1V5698H798v22.3c0,2.4-2,4.3-4.5,4.3c-2.5,0-4.4-2-4.5-4.4V5698
			h-8.6v22.3h0c0,7.1,5.9,12.9,13.1,12.9c3.4,0,6.5-1.3,8.8-3.3c1.9,1.7,4.3,2.8,7,3.2V5724.2z"/>
		<polygon class="st12" points="812.2,5699.5 812.2,5693.1 806.6,5698 806.6,5704.3 		"/>
		<polygon class="st13" points="798,5705.5 798,5719.5 802.1,5715.9 802.1,5708.3 806.6,5704.3 806.6,5698 		"/>
		<path class="st11" d="M782.6,5759.1c-1.3,0-2.1,1-2.1,2.2c0,1.2,0.7,2.2,2,2.2c1.4,0,2.1-1,2.1-2.2
			C784.7,5760,783.9,5759.1,782.6,5759.1 M782.6,5759.8c0.9,0,1.2,0.7,1.2,1.5c0,0.8-0.3,1.6-1.2,1.6c-0.8,0-1.2-0.7-1.2-1.6
			C781.3,5760.4,781.7,5759.8,782.6,5759.8 M787.3,5762.5c-0.1,0.3-0.3,0.5-0.6,0.5c-0.5,0-0.7-0.4-0.7-1.1c0-0.7,0.3-1.1,0.7-1.1
			c0.4,0,0.6,0.2,0.6,0.5h0.8c0-0.4-0.3-1.1-1.4-1.1c-1,0-1.5,0.8-1.5,1.7c0,1,0.5,1.7,1.5,1.7c0.9,0,1.3-0.6,1.4-1.1H787.3z
			 M790.6,5762.5c-0.1,0.3-0.3,0.5-0.6,0.5c-0.5,0-0.7-0.4-0.7-1.1c0-0.7,0.3-1.1,0.7-1.1c0.4,0,0.6,0.2,0.6,0.5h0.8
			c0-0.4-0.3-1.1-1.4-1.1c-1,0-1.5,0.8-1.5,1.7c0,1,0.5,1.7,1.5,1.7c0.9,0,1.3-0.6,1.4-1.1H790.6z M792,5763.5h0.8v-3.2H792V5763.5z
			 M792.8,5758.9H792v0.8h0.8V5758.9z M793.3,5760.9h0.5v1.8c0,0.5,0.2,0.9,0.8,0.9c0.2,0,0.4,0,0.6-0.1v-0.5c-0.1,0-0.2,0-0.2,0
			c-0.3,0-0.4-0.1-0.4-0.4v-1.7h0.7v-0.6h-0.7v-0.9h-0.8v0.9h-0.5V5760.9z M798.4,5761.3c0-0.7-0.5-1.1-1.3-1.1c-1,0-1.3,0.5-1.3,1
			h0.7c0-0.2,0.1-0.4,0.6-0.4c0.5,0,0.6,0.3,0.6,0.5v0.2h-0.5c-0.9,0-1.5,0.3-1.5,1.1c0,0.5,0.3,1,1.1,1c0.6,0,0.8-0.2,0.9-0.4
			c0,0.1,0,0.3,0.1,0.3h0.7c0-0.1,0-0.5,0-0.8V5761.3z M797.7,5762.1c0,0.5-0.1,0.9-0.7,0.9c-0.3,0-0.5-0.2-0.5-0.5
			c0-0.4,0.3-0.5,0.8-0.5L797.7,5762.1L797.7,5762.1z M799.3,5763.5h0.8v-1.8c0-0.6,0.2-0.9,0.7-0.9c0.4,0,0.6,0.3,0.6,0.7v2h0.8v-2
			c0-0.8-0.4-1.2-1.1-1.2c-0.6,0-0.8,0.3-1,0.5c0-0.1,0-0.4,0-0.4h-0.8c0,0.2,0,0.5,0,0.8V5763.5z M803,5763.5h0.8v-3.2H803V5763.5z
			 M803.7,5758.9H803v0.8h0.8V5758.9z M807.4,5762c0-0.1,0-0.2,0-0.3c0-0.8-0.4-1.6-1.5-1.6c-1,0-1.5,0.7-1.5,1.7
			c0,0.8,0.4,1.6,1.5,1.6c1,0,1.3-0.6,1.4-1h-0.8c-0.1,0.2-0.2,0.4-0.6,0.4c-0.5,0-0.7-0.4-0.7-0.9H807.4z M805.2,5761.6
			c0-0.5,0.2-0.8,0.7-0.8c0.5,0,0.7,0.3,0.7,0.8H805.2z M809.7,5763.5h0.8v-1.7h0.9c0.9,0,1.5-0.4,1.5-1.3c0-0.8-0.6-1.3-1.5-1.3
			h-1.7V5763.5z M810.5,5759.8h0.8c0.4,0,0.8,0.2,0.8,0.7c0,0.5-0.3,0.7-0.8,0.7h-0.8V5759.8z M813.3,5760.3l1.2,3.3
			c-0.1,0.4-0.3,0.5-0.7,0.5c-0.1,0-0.2,0-0.2,0v0.6c0.1,0,0.3,0,0.4,0c0.7,0,1-0.3,1.3-1.2l1.1-3.3h-0.8c-0.4,1.4-0.6,2.2-0.7,2.5
			h0c-0.1-0.3-0.4-1.2-0.8-2.5H813.3z M816.9,5763.5h0.8v-1.4c0-0.9,0.4-1.1,1.1-1.1v-0.7c-0.5,0-0.9,0.3-1.1,0.7c0-0.2,0-0.5,0-0.6
			h-0.8c0,0.2,0,0.5,0,0.9V5763.5z M822,5762c0-0.1,0-0.2,0-0.3c0-0.8-0.4-1.6-1.5-1.6c-1,0-1.5,0.7-1.5,1.7c0,0.8,0.4,1.6,1.5,1.6
			c1,0,1.3-0.6,1.4-1h-0.8c-0.1,0.2-0.2,0.4-0.6,0.4c-0.5,0-0.7-0.4-0.7-0.9H822z M819.9,5761.6c0-0.5,0.2-0.8,0.7-0.8
			c0.5,0,0.7,0.3,0.7,0.8H819.9z M820.9,5758.9l-0.7,0.9h0.7l1-0.9H820.9z M822.7,5763.5h0.8v-1.8c0-0.6,0.2-0.9,0.7-0.9
			c0.4,0,0.6,0.3,0.6,0.7v2h0.8v-2c0-0.8-0.4-1.2-1.1-1.2c-0.6,0-0.8,0.3-1,0.5c0-0.1,0-0.4,0-0.4h-0.8c0,0.2,0,0.5,0,0.8V5763.5z
			 M829.1,5762c0-0.1,0-0.2,0-0.3c0-0.8-0.4-1.6-1.5-1.6c-1,0-1.5,0.7-1.5,1.7c0,0.8,0.4,1.6,1.5,1.6c1,0,1.3-0.6,1.4-1h-0.8
			c-0.1,0.2-0.2,0.4-0.6,0.4c-0.5,0-0.7-0.4-0.7-0.9H829.1z M827,5761.6c0-0.5,0.2-0.8,0.7-0.8c0.5,0,0.7,0.3,0.7,0.8H827z
			 M828,5758.9l-0.7,0.9h0.7l1-0.9H828z M832.6,5762c0-0.1,0-0.2,0-0.3c0-0.8-0.4-1.6-1.5-1.6c-1,0-1.5,0.7-1.5,1.7
			c0,0.8,0.4,1.6,1.5,1.6c1,0,1.3-0.6,1.4-1h-0.8c-0.1,0.2-0.2,0.4-0.6,0.4c-0.5,0-0.7-0.4-0.7-0.9H832.6z M830.4,5761.6
			c0-0.5,0.2-0.8,0.7-0.8c0.5,0,0.7,0.3,0.7,0.8H830.4z M833.1,5762.5c0.1,0.6,0.5,1,1.4,1c0.9,0,1.3-0.5,1.3-1
			c0-0.5-0.2-0.8-1.2-1.1c-0.5-0.1-0.7-0.2-0.7-0.4c0-0.2,0.1-0.3,0.5-0.3c0.4,0,0.6,0.2,0.6,0.4h0.7c0-0.4-0.4-1-1.3-1
			c-0.9,0-1.3,0.5-1.3,0.9c0,0.4,0.2,0.8,1.2,1c0.5,0.1,0.7,0.2,0.7,0.5c0,0.2-0.1,0.4-0.5,0.4c-0.4,0-0.6-0.2-0.7-0.4H833.1z"/>
		<path class="st11" d="M781.6,5756.8h0.8v-3.6h1.3v-0.7h-3.5v0.7h1.3V5756.8z M786.3,5754.6c0-0.7-0.5-1.1-1.3-1.1
			c-1,0-1.3,0.5-1.3,1h0.7c0-0.2,0.1-0.4,0.6-0.4c0.5,0,0.6,0.3,0.6,0.5v0.2H785c-0.9,0-1.5,0.3-1.5,1.1c0,0.5,0.3,1,1.1,1
			c0.6,0,0.8-0.2,0.9-0.4c0,0.1,0,0.3,0.1,0.3h0.7c0-0.1,0-0.5,0-0.8V5754.6z M785.5,5755.4c0,0.5-0.1,0.9-0.7,0.9
			c-0.3,0-0.5-0.2-0.5-0.5c0-0.4,0.3-0.5,0.8-0.5L785.5,5755.4L785.5,5755.4z M787.1,5756.8h0.8v-1.4c0-0.9,0.4-1.1,1.1-1.1v-0.7
			c-0.5,0-0.9,0.3-1.1,0.7c0-0.2,0-0.5,0-0.6h-0.8c0,0.2,0,0.5,0,0.9V5756.8z M789.5,5755.7c0,0.4,0,0.7,0,1.1h0.7
			c0-0.1,0-0.2,0-0.3c0.2,0.3,0.4,0.4,0.9,0.4c0.9,0,1.4-0.8,1.4-1.7c0-0.9-0.5-1.6-1.3-1.6c-0.5,0-0.8,0.2-1,0.5v-1.7h-0.8V5755.7z
			 M791.8,5755.1c0,0.7-0.3,1.1-0.8,1.1c-0.6,0-0.8-0.5-0.8-1c0-0.7,0.2-1.1,0.8-1.1C791.5,5754.1,791.8,5754.6,791.8,5755.1
			 M796,5755.4c0-0.1,0-0.2,0-0.3c0-0.8-0.4-1.6-1.5-1.6c-1,0-1.5,0.7-1.5,1.7c0,0.8,0.4,1.6,1.5,1.6c1,0,1.3-0.6,1.4-1h-0.8
			c-0.1,0.2-0.2,0.4-0.6,0.4c-0.5,0-0.7-0.4-0.7-0.9H796z M793.9,5754.9c0-0.5,0.2-0.8,0.7-0.8c0.5,0,0.7,0.3,0.7,0.8H793.9z
			 M796.5,5755.8c0.1,0.6,0.5,1,1.4,1c0.9,0,1.3-0.5,1.3-1c0-0.5-0.2-0.8-1.2-1.1c-0.5-0.1-0.7-0.2-0.7-0.4c0-0.2,0.1-0.3,0.5-0.3
			c0.4,0,0.6,0.2,0.6,0.4h0.7c0-0.4-0.4-1-1.3-1c-0.9,0-1.3,0.5-1.3,0.9c0,0.4,0.2,0.8,1.2,1c0.5,0.1,0.7,0.2,0.7,0.5
			c0,0.2-0.1,0.4-0.5,0.4c-0.4,0-0.6-0.2-0.7-0.4H796.5z"/>
		<path class="st11" d="M782.7,5745.6v1.6c-0.1-0.2-0.3-0.3-0.8-0.3c-0.9,0-1.5,0.7-1.5,1.7c0,1,0.5,1.6,1.3,1.6
			c0.5,0,0.8-0.2,1-0.4c0,0.1,0,0.3,0,0.4h0.8c0-0.3,0-0.6,0-0.9v-3.7H782.7z M781.2,5748.5c0-0.7,0.3-1,0.8-1c0.6,0,0.7,0.4,0.7,1
			c0,0.5-0.1,1.1-0.8,1.1C781.5,5749.5,781.2,5749.2,781.2,5748.5 M787.1,5748.7c0-0.1,0-0.2,0-0.3c0-0.8-0.4-1.6-1.5-1.6
			c-1,0-1.5,0.7-1.5,1.7c0,0.8,0.4,1.6,1.5,1.6c1,0,1.3-0.6,1.4-1h-0.8c-0.1,0.2-0.2,0.4-0.6,0.4c-0.5,0-0.7-0.4-0.7-0.9H787.1z
			 M784.9,5748.2c0-0.5,0.2-0.8,0.7-0.8c0.5,0,0.7,0.3,0.7,0.8H784.9z M790.3,5750.1h0.8v-3.6h1.3v-0.7h-3.5v0.7h1.3V5750.1z
			 M795.1,5748.7c0-0.1,0-0.2,0-0.3c0-0.8-0.4-1.6-1.5-1.6c-1,0-1.5,0.7-1.5,1.7c0,0.8,0.4,1.6,1.5,1.6c1,0,1.3-0.6,1.4-1h-0.8
			c-0.1,0.2-0.2,0.4-0.6,0.4c-0.5,0-0.7-0.4-0.7-0.9H795.1z M792.9,5748.2c0-0.5,0.2-0.8,0.7-0.8c0.5,0,0.7,0.3,0.7,0.8H792.9z
			 M797.8,5749.1c-0.1,0.3-0.3,0.5-0.6,0.5c-0.5,0-0.7-0.4-0.7-1.1c0-0.7,0.3-1.1,0.7-1.1c0.4,0,0.6,0.2,0.6,0.5h0.8
			c0-0.4-0.3-1.1-1.4-1.1c-1,0-1.5,0.8-1.5,1.7c0,1,0.5,1.7,1.5,1.7c0.9,0,1.3-0.6,1.4-1.1H797.8z M799.1,5745.6v4.5h0.8v-1.7
			c0-0.5,0.2-0.9,0.7-0.9c0.4,0,0.6,0.2,0.6,0.7v1.9h0.8v-2c0-0.9-0.5-1.2-1.1-1.2c-0.5,0-0.8,0.2-1,0.5v-1.8H799.1z M802.8,5750.1
			h0.8v-1.8c0-0.6,0.2-0.9,0.7-0.9c0.4,0,0.6,0.3,0.6,0.7v2h0.8v-2c0-0.8-0.4-1.2-1.1-1.2c-0.6,0-0.8,0.3-1,0.5c0-0.1,0-0.4,0-0.4
			h-0.8c0,0.2,0,0.5,0,0.8V5750.1z M807.9,5746.8c-1,0-1.6,0.7-1.6,1.7c0,1,0.6,1.7,1.6,1.7c1,0,1.6-0.7,1.6-1.7
			C809.4,5747.5,808.8,5746.8,807.9,5746.8 M807.8,5747.4c0.5,0,0.8,0.4,0.8,1.1c0,0.6-0.3,1.1-0.8,1.1c-0.5,0-0.8-0.4-0.8-1.1
			C807.1,5747.8,807.3,5747.4,807.8,5747.4 M810.8,5745.6h-0.8v4.5h0.8V5745.6z M813.1,5746.8c-1,0-1.6,0.7-1.6,1.7
			c0,1,0.6,1.7,1.6,1.7c1,0,1.6-0.7,1.6-1.7C814.6,5747.5,814,5746.8,813.1,5746.8 M813,5747.4c0.5,0,0.8,0.4,0.8,1.1
			c0,0.6-0.3,1.1-0.8,1.1c-0.5,0-0.8-0.4-0.8-1.1C812.3,5747.8,812.6,5747.4,813,5747.4 M818.1,5747.8c0-0.3,0-0.7,0-0.9h-0.7
			c0,0.1,0,0.3,0,0.4c-0.1-0.2-0.3-0.4-0.9-0.4c-0.8,0-1.4,0.7-1.4,1.7c0,0.9,0.5,1.6,1.3,1.6c0.5,0,0.8-0.2,0.9-0.5v0.2
			c0,0.7-0.1,1.1-0.8,1.1c-0.4,0-0.6-0.2-0.6-0.4h-0.8c0,0.4,0.3,1,1.4,1c1.2,0,1.6-0.6,1.6-1.7V5747.8z M815.9,5748.5
			c0-0.7,0.3-1,0.8-1c0.6,0,0.7,0.4,0.7,1c0,0.6-0.2,1-0.8,1C816.2,5749.4,815.9,5749.1,815.9,5748.5 M819,5750.1h0.8v-3.2H819
			V5750.1z M819.8,5745.6H819v0.8h0.8V5745.6z M823.4,5748.7c0-0.1,0-0.2,0-0.3c0-0.8-0.4-1.6-1.5-1.6c-1,0-1.5,0.7-1.5,1.7
			c0,0.8,0.4,1.6,1.5,1.6c1,0,1.3-0.6,1.4-1h-0.8c-0.1,0.2-0.2,0.4-0.6,0.4c-0.5,0-0.7-0.4-0.7-0.9H823.4z M821.2,5748.2
			c0-0.5,0.2-0.8,0.7-0.8c0.5,0,0.7,0.3,0.7,0.8H821.2z"/>
		<path class="st11" d="M780.7,5739.1v2.6c0,1.4,0.8,1.8,1.8,1.8c0.9,0,1.8-0.4,1.8-1.8v-2.5h-0.8v2.6c0,0.9-0.4,1.1-1,1.1
			c-0.5,0-1-0.3-1-1.1v-2.6H780.7z M785,5743.4h0.8v-1.8c0-0.6,0.2-0.9,0.7-0.9c0.4,0,0.6,0.3,0.6,0.7v2h0.8v-2
			c0-0.8-0.4-1.2-1.1-1.2c-0.6,0-0.8,0.3-1,0.5c0-0.1,0-0.4,0-0.4H785c0,0.2,0,0.5,0,0.8V5743.4z M788.7,5743.4h0.8v-3.2h-0.8
			V5743.4z M789.5,5738.9h-0.8v0.8h0.8V5738.9z M790,5740.2l1.1,3.2h0.8l1.2-3.2h-0.8c-0.4,1.1-0.7,2-0.8,2.5h0
			c-0.1-0.4-0.4-1.3-0.7-2.5H790z M796.3,5742c0-0.1,0-0.2,0-0.3c0-0.8-0.4-1.6-1.5-1.6c-1,0-1.5,0.7-1.5,1.7c0,0.8,0.4,1.6,1.5,1.6
			c1,0,1.3-0.6,1.4-1h-0.8c-0.1,0.2-0.2,0.4-0.6,0.4c-0.5,0-0.7-0.4-0.7-0.9H796.3z M794.1,5741.5c0-0.5,0.2-0.8,0.7-0.8
			c0.5,0,0.7,0.3,0.7,0.8H794.1z M797,5743.4h0.8v-1.4c0-0.9,0.4-1.1,1.1-1.1v-0.7c-0.5,0-0.9,0.3-1.1,0.7c0-0.2,0-0.5,0-0.6H797
			c0,0.2,0,0.5,0,0.9V5743.4z M799.1,5742.5c0.1,0.6,0.5,1,1.4,1c0.9,0,1.3-0.5,1.3-1c0-0.5-0.2-0.8-1.2-1.1
			c-0.5-0.1-0.7-0.2-0.7-0.4c0-0.2,0.1-0.3,0.5-0.3c0.4,0,0.6,0.2,0.6,0.4h0.7c0-0.4-0.4-1-1.3-1c-0.9,0-1.3,0.5-1.3,0.9
			c0,0.4,0.2,0.8,1.2,1c0.5,0.1,0.7,0.2,0.7,0.5c0,0.2-0.1,0.4-0.5,0.4c-0.4,0-0.6-0.2-0.7-0.4H799.1z M802.5,5743.4h0.8v-3.2h-0.8
			V5743.4z M803.3,5738.9h-0.8v0.8h0.8V5738.9z M803.8,5740.8h0.5v1.8c0,0.5,0.2,0.9,0.8,0.9c0.2,0,0.4,0,0.6-0.1v-0.5
			c-0.1,0-0.2,0-0.2,0c-0.3,0-0.4-0.1-0.4-0.4v-1.7h0.7v-0.6h-0.7v-0.9h-0.8v0.9h-0.5V5740.8z M809,5742c0-0.1,0-0.2,0-0.3
			c0-0.8-0.4-1.6-1.5-1.6c-1,0-1.5,0.7-1.5,1.7c0,0.8,0.4,1.6,1.5,1.6c1,0,1.3-0.6,1.4-1h-0.8c-0.1,0.2-0.2,0.4-0.6,0.4
			c-0.5,0-0.7-0.4-0.7-0.9H809z M806.9,5741.5c0-0.5,0.2-0.8,0.7-0.8c0.5,0,0.7,0.3,0.7,0.8H806.9z M807.9,5738.8l-0.7,0.9h0.7
			l1-0.9H807.9z"/>
		<polygon class="st14" points="802.1,5708.3 802.1,5715.9 806.6,5712 806.6,5704.3 		"/>
		<polygon class="st15" points="806.6,5712 812.2,5707.1 812.2,5699.5 806.6,5704.4 		"/>
		<polygon class="st16" points="817.8,5694.7 812.2,5699.5 812.2,5707.1 812.2,5707.1 806.6,5712 806.6,5718.4 817.8,5708.7 		"/>
	</g>
</g>
</svg>
