<?xml version="1.0" encoding="utf-8"?>
<!-- Generator: Adobe Illustrator 27.9.5, SVG Export Plug-In . SVG Version: 9.03 Build 54986)  -->
<svg version="1.1" id="Calque_1" xmlns="http://www.w3.org/2000/svg" xmlns:xlink="http://www.w3.org/1999/xlink" x="0px" y="0px"
	 viewBox="0 0 394.6 171.4" style="enable-background:new 0 0 394.6 171.4;" xml:space="preserve">
<style type="text/css">
	.st0{opacity:0.74;fill:#FFC600;}
	.st1{opacity:0.74;fill:#5D9D1F;}
	.st2{opacity:0.6;fill:#E06D00;}
	.st3{opacity:0.88;fill:#FFCA00;}
	.st4{fill:#FFFFFF;}
	.st5{fill:#383838;}
	.st6{fill:url(#Tracé_8_00000125594158181379592490000016926054858321779087_);}
	.st7{fill:url(#Tracé_9_00000141442852182644577820000009443390049709910193_);}
	.st8{fill:url(#Tracé_10_00000154416177539407644730000016578003911143855241_);}
	.st9{fill:url(#Tracé_11_00000031929401171961972270000011790865086922267316_);}
	.st10{fill:#E58406;}
</style>
<g id="Groupe_64" transform="translate(-543 -5691)">
	<g>
		<g id="bg_logo" transform="translate(543 5690.964)">
			<g id="Groupe_44" transform="matrix(0.966, 0.259, -0.259, 0.966, 324.889, -464.981)">
				<path class="st0" d="M47.6,576.6c-32.9,14.5-70.2,15-103.4,1.6c-14.9-5.8-31.7,1.4-37.7,16.2c-6,14.9,1.2,31.9,16.1,38
					c22.7,9.1,46.9,13.8,71.3,13.8l0,0c1.5,0,2.9,0,4.4,0c25-0.6,49.6-6,72.5-16c23.3-10.1,44.3-24.7,62-43
					c18.4-19,32.8-41.5,42.2-66.2c11.2-28.9,15.4-59.6,12.7-89.9l-57.5,15.4c0.3,17.8-2.7,35.9-9.4,53.3
					C107.3,534.6,81.3,561.9,47.6,576.6z"/>
				<path class="st1" d="M-11,565.5c-16,0.1-28.9,13-29,29c-0.1,16.1,12.9,29.3,29,29.4l0,0c24.7,0,49.1-5,71.7-14.7
					c21.9-9.4,41.8-23,58.4-40.1c16.8-17.1,30.1-37.2,39.3-59.3c9.9-23.9,14.7-49.3,14.4-74.7L114,450.8
					C107.3,515.2,53.8,565.5-11,565.5z"/>
				<path class="st2" d="M-107.9,628.4c22.5,12.5,47.1,20.7,72.7,23.9c8.6,1.1,17.3,1.7,26.1,1.7l0,0c18,0,35.9-2.4,53.3-7.1
					c1.1-0.3,2.2-0.6,3.3-0.9c15.4-4.4,24.3-20.4,20.1-35.9c-4.3-15.5-20.4-24.6-35.9-20.3c-0.8,0.2-1.6,0.4-2.4,0.7
					c-12.4,3.3-25.1,5-37.9,5c-54,0-103.9-30-127.6-77.6l-57,15.3c6.9,16.3,16,31.8,27.3,46C-150.1,599.2-130.3,615.9-107.9,628.4z"
					/>
				<path class="st3" d="M-84.8,612.7c21.2,9.4,44.1,14.5,67.3,14.9c1,0,2,0,2.9,0l0,0c16-0.1,28.9-13,29-29
					c0.1-16.1-12.9-29.3-29-29.4c-0.7,0-1.3,0-2,0c-41.2-0.7-77.4-23.5-97.7-57.1l-57.9,15.5c8.1,16.8,19,32.6,32.6,46.8
					C-123.9,590.5-105.3,603.5-84.8,612.7z"/>
				<path class="st4" d="M-8.7,600.3c82.4,0,149.2-67,149.2-149.7c0-2.3-0.1-4.5-0.2-6.8l-281.6,75.5
					C-116.4,567.4-66.4,600.3-8.7,600.3z"/>
			</g>
		</g>
	</g>
	<g id="Objet_dynamique_vectoriel" transform="translate(896.318 5692.281)">
		<g id="Groupe_3" transform="translate(0 0)">
			<g id="Groupe_1" transform="translate(0 43.295)">
				<path id="Tracé_1" class="st5" d="M-197,6.1c-1.6-1.3-3.6-1.9-5.6-1.9h-13.7v31.3h3.9V22.3h10.1c4.7,0,7.9-3.2,7.9-7.9v-2
					C-194.3,9.9-195.2,7.7-197,6.1z M-198.3,14.4c0,3.5-2.5,4.1-4,4.1h-10.1V8.1h9.8c1.1-0.1,2.2,0.3,3.1,0.9c0.9,0.8,1.3,2,1.2,3.3
					L-198.3,14.4L-198.3,14.4z"/>
				<path id="Tracé_2" class="st5" d="M-187.3,15.2V13h-3.8v22.5h3.8V21.7c0-4.3,1.9-5,4.9-5h3.2v-3.8h-3.2
					C-184.4,12.8-186.2,13.7-187.3,15.2z"/>
				<path id="Tracé_3" class="st5" d="M-167.3,12.9h-8.7v3.8h5v15.1h-6.1v3.7h15.1v-3.7h-5.2L-167.3,12.9z"/>
				<path id="Tracé_4" class="st5" d="M-169.8,7c1.9,0,3.5-1.6,3.5-3.5c0-1.9-1.6-3.5-3.5-3.5c-1.9,0-3.5,1.6-3.5,3.5l0,0
					C-173.3,5.5-171.7,7-169.8,7z"/>
				<path id="Tracé_5" class="st5" d="M-113.6,31.9h-5.5c-1.8,0-3.2-1.4-3.2-3.2v-2.8c0,0,13.6-0.1,14.4-0.1c0.6,0.1,1.1-0.4,1.2-1
					c0-0.1,0-0.1,0-0.2v-4.8c0.1-3.7-2.8-6.9-6.6-7c-0.1,0-0.1,0-0.2,0h-5.6c-3.9,0-7,3.1-7,7v8.7c0,3.9,3.1,7,7,7h5.5
					c3.9,0,6.2-2.6,6.9-6.2l-3.5-1C-110.6,30.5-111.9,31.9-113.6,31.9z M-122.3,19.8c0-1.8,1.4-3.2,3.2-3.2c0,0,0,0,0,0h5.6
					c1.6,0,2.9,1.3,3,2.9c0,0.1,0,0.2,0,0.2V22l-11.8,0.1L-122.3,19.8L-122.3,19.8z"/>
				<path id="Tracé_6" class="st5" d="M-86.6,24c-0.9-0.6-1.9-1.1-3-1.3c-0.5-0.1-1.9-0.4-3.4-0.6c-1.5-0.3-3-0.5-3.6-0.7
					c-1.7-0.3-2.2-0.9-2.2-2.3c-0.1-0.7,0.2-1.4,0.8-1.9c0.7-0.4,1.4-0.6,2.2-0.6h4.5c1.2,0,2.5,0.4,3.2,3.1l3.6-0.9
					c-0.9-3.8-3.3-5.9-6.8-5.9h-4.5c-1.6,0-3.1,0.4-4.4,1.3c-2.7,2.1-3.2,6-1.1,8.7c0.3,0.3,0.5,0.6,0.8,0.9c0.9,0.7,2,1.1,3.1,1.3
					c0.6,0.1,2.2,0.4,3.7,0.7c1.4,0.3,2.9,0.5,3.3,0.6c2,0.4,2.3,1.4,2.3,2.4c0,0.9-0.3,1.8-0.9,2.4c-0.4,0.4-0.9,0.6-1.5,0.7h-5.6
					c-0.9,0-2.8-0.1-3.4-3.7l-3.7,0.9c1,4.2,3.5,6.5,7.1,6.5h5.6c1.5,0,3-0.6,4.1-1.7c1.4-1.3,2.1-3.2,2-5.1
					C-84.3,26.9-85.1,25.1-86.6,24z"/>
				<path id="Tracé_7" class="st5" d="M-137.6,12.9c-3.2,0-5.1,1-6.1,2.8c-1.2-1.9-3.4-3-5.7-2.8c-2.5,0-4.2,0.9-5.2,2.7V13h-3.8
					v22.5h3.8V22.4c0-3,0.6-5.8,4.4-5.8c2.3,0,4,1.6,4,4.5v14.4h3.8V21.7c0-3.4,1.4-5.1,4.3-5.1c2.2-0.2,4.1,1.5,4.3,3.7
					c0,0.2,0,0.4,0,0.6v14.7h3.8V19.9C-130.1,16.9-131.7,12.9-137.6,12.9z"/>
			</g>
			
				<linearGradient id="Tracé_8_00000080917827524340395310000010765377216419411130_" gradientUnits="userSpaceOnUse" x1="-485.2181" y1="521.1191" x2="-484.7072" y2="521.1191" gradientTransform="matrix(41.088 0 0 -21.801 19769.9199 11398.7295)">
				<stop  offset="0" style="stop-color:#1FA138"/>
				<stop  offset="1" style="stop-color:#78B12B"/>
			</linearGradient>
			<path id="Tracé_8" style="fill:url(#Tracé_8_00000080917827524340395310000010765377216419411130_);" d="M-186.8,48.7
				c1.7-0.6,3.6-1.1,5.2-1.5c1-5.8,4.6-9.4,8.8-10.8l-1.7-7.6C-181.5,31.9-186.8,38.7-186.8,48.7z M-170.8,35.8
				c0.6-0.1,1.3-0.2,2-0.2l1.9-8.7c-1.3,0.1-2.5,0.3-3.8,0.5L-170.8,35.8z M-145.7,41.8c-1.4-4.5-4.1-8.4-7.9-11.1l-8.1,6.8
				c2.1,1.2,3.8,2.9,4.9,5C-153,42-149.3,41.8-145.7,41.8L-145.7,41.8z M-162.8,27.1l-3.9,8.7c0.9,0.1,1.7,0.3,2.6,0.6l6.3-8
				C-159.5,27.7-161.1,27.3-162.8,27.1L-162.8,27.1z"/>
			
				<linearGradient id="Tracé_9_00000008125317183381400550000002844993499167418253_" gradientUnits="userSpaceOnUse" x1="-484.7781" y1="525.3442" x2="-484.2821" y2="525.3442" gradientTransform="matrix(51.5589 0 0 -31.234 24831.8516 16442.1562)">
				<stop  offset="0" style="stop-color:#66B02F"/>
				<stop  offset="1" style="stop-color:#C0D013"/>
			</linearGradient>
			<path id="Tracé_9" style="fill:url(#Tracé_9_00000008125317183381400550000002844993499167418253_);" d="M-188.2,49.2
				L-188.2,49.2c0.8-0.3,1.4-0.5,1.4-0.5c0-10,5.3-16.8,12.2-19.9l-1.6-7.4C-184.7,26.1-190.6,35.7-188.2,49.2z M-170.7,27.5
				c1.2-0.3,2.5-0.5,3.8-0.5l2-9c-1.9,0.2-3.8,0.5-5.7,1L-170.7,27.5z M-158.7,18.1l-4.1,8.9c1.7,0.2,3.3,0.6,4.9,1.3l6.3-8.1
				C-153.8,19.2-156.2,18.5-158.7,18.1L-158.7,18.1z M-145.8,24.1l-7.9,6.6c3.8,2.7,6.6,6.6,7.9,11.1c0,0,5.7,0,8.5,0.1
				C-138.1,33.9-141.3,28-145.8,24.1L-145.8,24.1z"/>
			
				<linearGradient id="Tracé_10_00000013881675270781024560000008334278614897401533_" gradientUnits="userSpaceOnUse" x1="-484.4554" y1="527.6196" x2="-483.9844" y2="527.6196" gradientTransform="matrix(62.7606 0 0 -40.723 30246.0469 21515.8242)">
				<stop  offset="0" style="stop-color:#E6A100"/>
				<stop  offset="1" style="stop-color:#FDDC04"/>
			</linearGradient>
			<path id="Tracé_10" style="fill:url(#Tracé_10_00000013881675270781024560000008334278614897401533_);" d="M-190.4,49.9
				c0.7-0.2,1.4-0.5,2.2-0.8l0,0c-2.4-13.5,3.5-23,12-27.8l-1.5-7C-188.3,21.1-195,33.8-190.4,49.9z M-170.6,19
				c1.8-0.5,3.7-0.9,5.7-1l1.9-8.7c-2.5,0.3-5.1,0.8-7.5,1.6L-170.6,19z M-154.8,9.5l-3.9,8.7c2.5,0.4,4.9,1.1,7.2,2.1l6-7.6
				C-148.4,11.1-151.5,10-154.8,9.5z M-138.4,17.9l-7.4,6.2c4.4,3.9,7.7,9.8,8.6,17.8c0,0,5.3,0.4,8,0.7
				C-128.4,33.4-131.7,24.3-138.4,17.9L-138.4,17.9z"/>
			
				<linearGradient id="Tracé_11_00000097461122878389563540000001108290230082320044_" gradientUnits="userSpaceOnUse" x1="-484.235" y1="529.05" x2="-483.748" y2="529.05" gradientTransform="matrix(75.8448 0 0 -50.337 36571.9102 26655.9609)">
				<stop  offset="0" style="stop-color:#E6AF58"/>
				<stop  offset="1" style="stop-color:#FAF3B8"/>
			</linearGradient>
			<path id="Tracé_11" style="fill:url(#Tracé_11_00000097461122878389563540000001108290230082320044_);" d="M-191.5,50.3
				c0.4-0.1,1.1-0.4,1.1-0.4c-4.6-16.1,2.1-28.8,12.7-35.6l-1.4-6.6C-190.7,16.6-197.4,32.1-191.5,50.3z M-170.4,10.8
				c2.4-0.8,4.9-1.4,7.5-1.6l2.1-9.2c-3.2,0.5-6.4,1.3-9.4,2.6L-170.4,10.8z M-154.8,9.5c3.2,0.6,6.3,1.6,9.2,3.2l7-8.9
				c-3.7-1.9-7.7-3.1-11.9-3.7L-154.8,9.5z M-129.2,10.2l-9.1,7.6c6.6,6.4,10,15.5,9.1,24.7l0,0c3.6,0.4,7.3,1.1,10.8,1.9
				C-116.1,30.1-121,18.2-129.2,10.2L-129.2,10.2z"/>
		</g>
		<g id="Groupe_5" transform="translate(65.34 45.139)">
			<g id="Groupe_4" transform="translate(0)">
				<path id="Tracé_79" class="st10" d="M-212.1,0c-0.6,0-1.2,0.1-1.7,0.3c-1,0.4-1.8,1.2-2.2,2.2c-0.4,1.1-0.4,2.3,0,3.4
					c0.4,1,1.2,1.8,2.2,2.2c0.5,0.2,1.1,0.3,1.7,0.3c0.5,0,1-0.1,1.4-0.2c0.4-0.1,0.7-0.3,1-0.6V5.7c-0.3,0.3-0.6,0.6-1,0.8
					c-0.4,0.2-0.9,0.3-1.4,0.3c-0.4,0-0.9-0.1-1.3-0.3c-0.4-0.2-0.7-0.5-0.9-0.9c-0.2-0.4-0.4-0.9-0.4-1.4c0-0.5,0.1-1,0.4-1.4
					c0.2-0.4,0.5-0.7,0.9-0.9c0.4-0.2,0.8-0.3,1.3-0.3c0.5,0,1,0.1,1.4,0.3c0.4,0.2,0.7,0.5,1,0.8V0.8c-0.3-0.3-0.7-0.5-1-0.6
					C-211.1,0.1-211.6,0-212.1,0z M-202.4,4.2c0.3-0.4,0.5-1,0.5-1.5c0-0.5-0.1-1-0.4-1.4c-0.3-0.4-0.6-0.7-1-0.9
					c-0.5-0.2-1.1-0.3-1.7-0.3h-2.8v8.3h1.7v-3h0.7l1.9,3h2l-2.2-3.2C-203.2,5-202.7,4.7-202.4,4.2L-202.4,4.2z M-204.1,3.7
					c-0.3,0.2-0.7,0.4-1,0.3h-1V1.5h1c0.4,0,0.8,0.1,1,0.3c0.3,0.2,0.4,0.6,0.4,0.9C-203.7,3.1-203.9,3.4-204.1,3.7L-204.1,3.7z
					 M-200.7,0v1.6h2.2v6.8h1.7V1.6h2.2V0H-200.7z"/>
			</g>
		</g>
	</g>
</g>
</svg>
