<?xml version="1.0" encoding="utf-8"?>
<!-- Generator: Adobe Illustrator 27.9.6, SVG Export Plug-In . SVG Version: 9.03 Build 54986)  -->
<svg version="1.1" id="Calque_1" xmlns="http://www.w3.org/2000/svg" xmlns:xlink="http://www.w3.org/1999/xlink" x="0px" y="0px"
	 viewBox="0 0 728.7 1268.5" style="enable-background:new 0 0 728.7 1268.5;" xml:space="preserve">
<style type="text/css">
	.st0{fill:url(#Tracé_160_00000036964439549616372370000013474071063677288354_);}
	.st1{opacity:0.68;fill:#586DDD;enable-background:new    ;}
	.st2{opacity:0.68;fill:#129A7E;enable-background:new    ;}
	.st3{fill:#F5D836;}
	.st4{fill:url(#Ellipse_33-3_00000147208153986473906760000002511412392981299128_);}
	.st5{fill:url(#Ellipse_34_00000045620180278068925620000004762654339915288746_);}
	.st6{fill:#FF99D6;}
	.st7{fill:url(#Ellipse_33-4_00000066504390188593815970000002764803032404936064_);}
	.st8{fill:url(#Ellipse_34-2_00000013872721634203172410000007532009672244584884_);}
</style>
<g id="Groupe_58" transform="translate(-296.571 -2038.11)">
	
		<linearGradient id="Tracé_160_00000178904086626841037170000008922418275405242500_" gradientUnits="userSpaceOnUse" x1="362.972" y1="3092.1802" x2="362.972" y2="3091.1802" gradientTransform="matrix(666.2463 0 0 -1175.3999 -241178.1562 3636633.5)">
		<stop  offset="0" style="stop-color:#F5D836"/>
		<stop  offset="0.1369" style="stop-color:#F5D836"/>
		<stop  offset="0.3547" style="stop-color:#45DB96"/>
		<stop  offset="0.6676" style="stop-color:#45DB96"/>
		<stop  offset="0.8603" style="stop-color:#FF99D6"/>
		<stop  offset="1" style="stop-color:#FF99D6"/>
	</linearGradient>
	<path id="Tracé_160" style="fill:url(#Tracé_160_00000178904086626841037170000008922418275405242500_);" d="M965,3260.5
		c-10.2,0-18.5-8.3-18.5-18.5l0,0v-86.8c0-11.4-4.2-15.3-5.5-16.6c-6.2-5.8-17.5-6.4-21.4-6.2c-0.4,0-1,0.1-1.4,0.1H384.1
		c-21.9,0-39.1-6.5-51.1-19.4c-15.7-17-15.8-38.3-15.6-43.5v-798.3c-0.2-5.1-0.1-25.8,15.3-42.4c11.9-12.8,29-19.3,51-19.3h532.4
		c11.7,0,20-2.6,24.7-7.9c6.8-7.6,5.7-19.6,5.7-19.7c-0.1-0.6-0.1-1.5-0.1-2.1v-76.2c0-10.2,8.3-18.5,18.5-18.5s18.5,8.3,18.5,18.5
		v75.3c0.5,6.2,1.2,29-14.7,47c-12,13.6-29.7,20.5-52.6,20.5H383.8c-11.1,0-19,2.5-23.7,7.3c-6,6.3-5.6,15.7-5.6,15.8
		c0,0.3,0,0.9,0,1.1v799.3c0,0.5,0,0.9-0.1,1.4l0,0c0,0-0.3,10,5.9,16.6c4.7,4.9,12.7,7.4,23.8,7.4h533.4
		c5.7-0.3,30.4-0.7,48.3,15.8c8,7.4,17.6,21,17.6,43.9v86.8C983.5,3252.2,975.2,3260.5,965,3260.5C965,3260.5,965,3260.5,965,3260.5
		z"/>
	<path id="Tracé_153" class="st1" d="M360.1,3017.5c-10.2,0-18.5-8.3-18.5-18.5l0,0v-659.8c0-10.2,8.3-18.5,18.5-18.5
		s18.5,8.3,18.5,18.5V2999C378.6,3009.2,370.3,3017.5,360.1,3017.5L360.1,3017.5z"/>
	<path id="Tracé_155" class="st2" d="M315.1,2817.1c-10.2,0-18.5-8.3-18.5-18.5l0,0v-408c0-10.2,8.3-18.5,18.5-18.5
		s18.5,8.3,18.5,18.5v408C333.6,2808.8,325.3,2817.1,315.1,2817.1L315.1,2817.1z"/>
	<circle id="Ellipse_38" class="st3" cx="965" cy="2098" r="34"/>
	<g id="Groupe_48" transform="translate(-700.043 -763.451)">
		<g transform="matrix(1, 0, 0, 1, 996.61, 2801.56)">
			
				<linearGradient id="Ellipse_33-3_00000037683933647156894950000011200892808501478531_" gradientUnits="userSpaceOnUse" x1="71.6634" y1="1054.8475" x2="70.6924" y2="1054.8354" gradientTransform="matrix(2.786072e-15 -45.5 -45.5 -2.786072e-15 48663.7109 3298.1848)">
				<stop  offset="0" style="stop-color:#FFFFFF"/>
				<stop  offset="1" style="stop-color:#E8E8E8"/>
			</linearGradient>
			
				<circle id="Ellipse_33-3" style="fill:url(#Ellipse_33-3_00000037683933647156894950000011200892808501478531_);" cx="668.4" cy="60.3" r="22.8"/>
		</g>
		
			<linearGradient id="Ellipse_34_00000121265743985665333110000000289234458323147904_" gradientUnits="userSpaceOnUse" x1="1068.026" y1="3856.6243" x2="1068.951" y2="3856.6243" gradientTransform="matrix(2.415126e-15 -39.442 -39.442 -2.415126e-15 153778.0156 45005.1562)">
			<stop  offset="0" style="stop-color:#FFFFFF"/>
			<stop  offset="1" style="stop-color:#F5F5F5"/>
		</linearGradient>
		
			<circle id="Ellipse_34" style="fill:url(#Ellipse_34_00000121265743985665333110000000289234458323147904_);" cx="1665" cy="2861.8" r="19.7"/>
	</g>
	<circle id="Ellipse_36" class="st6" cx="965" cy="3246" r="34"/>
	<g id="Groupe_46" transform="translate(-700.043 384.549)">
		<g transform="matrix(1, 0, 0, 1, 996.61, 1653.56)">
			
				<linearGradient id="Ellipse_33-4_00000044156171973040204440000003161260493353822367_" gradientUnits="userSpaceOnUse" x1="71.6634" y1="1054.8475" x2="70.6924" y2="1054.8354" gradientTransform="matrix(2.786072e-15 -45.5 -45.5 -2.786072e-15 48663.7109 4446.1846)">
				<stop  offset="0" style="stop-color:#FFFFFF"/>
				<stop  offset="1" style="stop-color:#E8E8E8"/>
			</linearGradient>
			
				<circle id="Ellipse_33-4" style="fill:url(#Ellipse_33-4_00000044156171973040204440000003161260493353822367_);" cx="668.4" cy="1208.3" r="22.8"/>
		</g>
		
			<linearGradient id="Ellipse_34-2_00000168098138111513998570000015195644084405118608_" gradientUnits="userSpaceOnUse" x1="1068.026" y1="2708.6243" x2="1068.951" y2="2708.6243" gradientTransform="matrix(2.415126e-15 -39.442 -39.442 -2.415126e-15 108498.6016 45005.1562)">
			<stop  offset="0" style="stop-color:#FFFFFF"/>
			<stop  offset="1" style="stop-color:#F5F5F5"/>
		</linearGradient>
		
			<circle id="Ellipse_34-2" style="fill:url(#Ellipse_34-2_00000168098138111513998570000015195644084405118608_);" cx="1665" cy="2861.8" r="19.7"/>
	</g>
</g>
</svg>
