<?xml version="1.0" encoding="utf-8"?>
<!-- Generator: Adobe Illustrator 27.9.6, SVG Export Plug-In . SVG Version: 9.03 Build 54986)  -->
<svg version="1.1" id="Calque_1" xmlns="http://www.w3.org/2000/svg" xmlns:xlink="http://www.w3.org/1999/xlink" x="0px" y="0px"
	 viewBox="0 0 247.3 93.9" style="enable-background:new 0 0 247.3 93.9;" xml:space="preserve">
<style type="text/css">
	.st0{fill:#383838;}
	.st1{fill:url(#Tracé_8_00000113333144948328179790000018440509521641198476_);}
	.st2{fill:url(#Tracé_9_00000036961491965796996260000004510422032104357817_);}
	.st3{fill:url(#Tracé_10_00000163053311899417714110000012623681043609307834_);}
	.st4{fill:url(#Tracé_11_00000176744034192661581890000000666465519059345581_);}
	.st5{fill:#E58406;}
	.st6{fill:#004F78;}
	.st7{fill:#F5D936;}
	.st8{fill:#45DB96;}
	.st9{fill:#12997D;}
	.st10{fill:#FF99D6;}
	.st11{fill:#596EDE;}
</style>
<g id="Objet_dynamique_vectoriel" transform="translate(-89.26 -50.53)">
	<g id="Groupe_3" transform="translate(89.26 50.53)">
		<g id="Groupe_1" transform="translate(0 51.526)">
			<path id="Tracé_1" class="st0" d="M22.9,7.3C21,5.7,18.7,5,16.2,5H0v37.2h4.6V26.5h12.1c5.6,0,9.4-3.8,9.4-9.5v-2.4
				C26.2,11.8,25.1,9.1,22.9,7.3z M21.4,17.1c0,4.2-3,4.8-4.8,4.8H4.6V9.6h11.6c1.3-0.1,2.7,0.3,3.7,1.1c1,1,1.6,2.4,1.5,3.9
				L21.4,17.1L21.4,17.1z"/>
			<path id="Tracé_2" class="st0" d="M34.5,18.1v-2.6H30v26.7h4.5V25.8c0-5.2,2.3-6,5.8-6h3.8v-4.5h-3.8
				C38,15.3,35.9,16.3,34.5,18.1z"/>
			<path id="Tracé_3" class="st0" d="M58.3,15.4H47.9v4.5h5.9v18h-7.3v4.4h17.9v-4.4h-6.1L58.3,15.4z"/>
			<path id="Tracé_4" class="st0" d="M55.4,8.4c2.3,0,4.2-1.9,4.2-4.2c0-2.3-1.9-4.2-4.2-4.2c-2.3,0-4.2,1.9-4.2,4.2
				C51.2,6.5,53.1,8.4,55.4,8.4L55.4,8.4z"/>
			<path id="Tracé_5" class="st0" d="M122.2,38h-6.5c-2.1,0-3.8-1.7-3.8-3.8v-3.4c0,0,16.2-0.1,17.1-0.1c0.7,0.1,1.3-0.5,1.4-1.2
				c0-0.1,0-0.1,0-0.2v-5.7c0.1-4.5-3.4-8.2-7.8-8.3c-0.1,0-0.1,0-0.2,0h-6.7c-4.6,0-8.3,3.7-8.3,8.3V34c0,4.6,3.7,8.3,8.3,8.3h6.5
				c4.6,0,7.4-3.1,8.3-7.3l-4.2-1.1C125.8,36.3,124.3,38,122.2,38z M111.9,23.5c0-2.1,1.7-3.8,3.8-3.8c0,0,0,0,0,0h6.7
				c1.9,0,3.5,1.5,3.5,3.4c0,0.1,0,0.2,0,0.3v2.8l-14,0.1L111.9,23.5L111.9,23.5z"/>
			<path id="Tracé_6" class="st0" d="M154.3,28.5c-1.1-0.8-2.3-1.3-3.5-1.5c-0.6-0.1-2.3-0.4-4.1-0.8c-1.7-0.3-3.5-0.6-4.3-0.8
				c-2-0.4-2.7-1.1-2.7-2.8c-0.1-0.9,0.3-1.7,1-2.3c0.8-0.5,1.7-0.7,2.6-0.7h5.3c1.4,0,3,0.5,3.8,3.7l4.3-1
				c-1.1-4.6-3.9-7.1-8.1-7.1h-5.3c-1.8,0-3.7,0.5-5.2,1.5c-3.2,2.5-3.8,7.2-1.3,10.4c0.3,0.4,0.6,0.7,1,1.1
				c1.1,0.8,2.4,1.3,3.7,1.6c0.8,0.2,2.6,0.5,4.4,0.8c1.7,0.3,3.4,0.6,3.9,0.7c2.4,0.5,2.7,1.6,2.7,2.8c0,1.1-0.3,2.1-1.1,2.9
				c-0.5,0.5-1.1,0.8-1.8,0.8H143c-1.1,0-3.3-0.1-4.1-4.4l-4.4,1.1c1.2,5,4.1,7.7,8.5,7.7h6.7c1.8,0,3.6-0.8,4.9-2.1
				c1.6-1.6,2.5-3.8,2.4-6C157.1,32,156.1,29.9,154.3,28.5z"/>
			<path id="Tracé_7" class="st0" d="M93.6,15.4c-3.8,0-6.1,1.2-7.3,3.4c-1.5-2.2-4.1-3.5-6.7-3.4c-2.9,0-5,1.1-6.2,3.3v-3.1h-4.5
				v26.7h4.5V26.7c0-3.6,0.8-6.9,5.3-6.9c2.7,0,4.8,1.9,4.8,5.4v17.1H88V25.8c0-4,1.7-6.1,5.1-6.1c3.8,0,5.1,2.7,5.1,5.1v17.4h4.5
				V23.7C102.6,20.1,100.7,15.4,93.6,15.4z"/>
		</g>
		
			<linearGradient id="Tracé_8_00000064343070425946383970000004934619830549690021_" gradientUnits="userSpaceOnUse" x1="-213.0528" y1="452.9753" x2="-212.5418" y2="452.9753" gradientTransform="matrix(48.899 0 0 -25.946 10477.0703 11797.8994)">
			<stop  offset="0" style="stop-color:#1FA138"/>
			<stop  offset="1" style="stop-color:#78B12B"/>
		</linearGradient>
		<path id="Tracé_8" style="fill:url(#Tracé_8_00000064343070425946383970000004934619830549690021_);" d="M35.1,58
			c2.1-0.7,4.2-1.3,6.1-1.8c1.2-6.9,5.4-11.1,10.4-12.9l-2-9.1C41.4,37.9,35.1,46,35.1,58z M54.1,42.7c0.8-0.1,1.5-0.2,2.3-0.2
			L58.8,32c-1.5,0.1-3,0.3-4.5,0.7L54.1,42.7z M84,49.7c-1.6-5.3-4.9-10-9.4-13.2l-9.6,8c2.5,1.4,4.5,3.4,5.8,5.9
			C75.3,50,79.7,49.8,84,49.7L84,49.7z M63.7,32.2L59,42.5c1,0.1,2.1,0.4,3.1,0.7l7.4-9.5C67.6,33,65.7,32.5,63.7,32.2L63.7,32.2z"
			/>
		
			<linearGradient id="Tracé_9_00000040577385530342487740000009123868998698137744_" gradientUnits="userSpaceOnUse" x1="-213.9433" y1="457.3285" x2="-213.4473" y2="457.3285" gradientTransform="matrix(61.3625 0 0 -37.172 13191.8125 17039.7559)">
			<stop  offset="0" style="stop-color:#66B02F"/>
			<stop  offset="1" style="stop-color:#C0D013"/>
		</linearGradient>
		<path id="Tracé_9" style="fill:url(#Tracé_9_00000040577385530342487740000009123868998698137744_);" d="M33.4,58.5L33.4,58.5
			c0.9-0.3,1.6-0.5,1.6-0.5c0-11.9,6.4-20,14.6-23.7l-1.9-8.8C37.5,31.1,30.5,42.5,33.4,58.5z M54.3,32.7c1.5-0.3,3-0.6,4.5-0.7
			l2.4-10.7c-2.3,0.2-4.5,0.6-6.7,1.2L54.3,32.7z M68.5,21.6l-4.8,10.6c2,0.3,3.9,0.8,5.8,1.5l7.5-9.6C74.4,22.8,71.5,22,68.5,21.6
			L68.5,21.6z M83.9,28.6l-9.4,7.8c4.5,3.3,7.8,7.9,9.4,13.2c0,0,6.8,0,10.2,0.2C93,40.3,89.2,33.3,83.9,28.6L83.9,28.6z"/>
		
			<linearGradient id="Tracé_10_00000153698823173704999620000002037427123975789495_" gradientUnits="userSpaceOnUse" x1="-214.5519" y1="459.6731" x2="-214.0809" y2="459.6731" gradientTransform="matrix(74.6817 0 0 -48.466 16091.6855 22313.7012)">
			<stop  offset="0" style="stop-color:#E6A100"/>
			<stop  offset="1" style="stop-color:#FDDC04"/>
		</linearGradient>
		<path id="Tracé_10" style="fill:url(#Tracé_10_00000153698823173704999620000002037427123975789495_);" d="M30.8,59.4
			c0.8-0.3,1.7-0.6,2.6-0.9l0,0c-2.9-16,4.1-27.4,14.3-33.1l-1.8-8.3C33.3,25.1,25.4,40.3,30.8,59.4z M54.4,22.6
			c2.2-0.6,4.5-1.1,6.7-1.2L63.5,11c-3,0.3-6,1-8.9,1.9L54.4,22.6z M73.2,11.3l-4.7,10.3c2.9,0.4,5.8,1.3,8.5,2.5l7.1-9.1
			C80.7,13.2,77.1,11.9,73.2,11.3L73.2,11.3z M92.8,21.3l-8.8,7.4c5.3,4.7,9.1,11.7,10.2,21.2c0,0,6.4,0.4,9.5,0.8
			C104.6,39.7,100.7,28.9,92.8,21.3L92.8,21.3z"/>
		
			<linearGradient id="Tracé_11_00000032630778545639747470000014281631918688023739_" gradientUnits="userSpaceOnUse" x1="-215.0717" y1="461.1467" x2="-214.5847" y2="461.1467" gradientTransform="matrix(90.259 0 0 -59.906 19485.3828 27655.4082)">
			<stop  offset="0" style="stop-color:#E6AF58"/>
			<stop  offset="1" style="stop-color:#FAF3B8"/>
		</linearGradient>
		<path id="Tracé_11" style="fill:url(#Tracé_11_00000032630778545639747470000014281631918688023739_);" d="M29.5,59.9
			c0.5-0.2,1.3-0.5,1.3-0.5c-5.5-19.2,2.5-34.3,15.1-42.4l-1.7-7.9C30.4,19.8,22.5,38.2,29.5,59.9z M54.6,12.9
			c2.9-1,5.9-1.6,8.9-1.9l2.4-11c-3.8,0.6-7.6,1.6-11.2,3.1L54.6,12.9z M73.2,11.3c3.8,0.7,7.5,1.9,10.9,3.8l8.3-10.6
			C88.1,2.2,83.3,0.7,78.4,0L73.2,11.3z M103.6,12.2l-10.9,9.1c7.9,7.6,11.9,18.4,10.9,29.4h0c4.3,0.5,8.6,1.3,12.9,2.3
			C119.2,35.8,113.5,21.6,103.6,12.2L103.6,12.2z"/>
	</g>
	<g id="Groupe_5" transform="translate(167.022 104.25)">
		<g id="Groupe_4" transform="translate(0)">
			<path id="Tracé_79" class="st5" d="M5,0C4.4,0,3.7,0.1,3,0.4C1.8,0.8,0.9,1.8,0.4,3c-0.5,1.3-0.5,2.7,0,4C0.9,8.2,1.8,9.1,3,9.6
				C3.7,9.8,4.4,10,5,10c0.6,0,1.2-0.1,1.7-0.3C7.2,9.5,7.6,9.3,8,9V6.8C7.7,7.1,7.3,7.5,6.8,7.7C6.3,8,5.7,8.1,5.1,8.1
				c-0.5,0-1-0.1-1.5-0.4C3.2,7.4,2.8,7.1,2.5,6.6C2.3,6.1,2.1,5.6,2.1,5c0-0.6,0.1-1.1,0.4-1.6c0.3-0.4,0.6-0.8,1.1-1.1
				c0.5-0.3,1-0.4,1.5-0.4c0.6,0,1.2,0.1,1.7,0.4C7.3,2.5,7.7,2.8,8,3.2V1C7.6,0.7,7.2,0.4,6.8,0.3C6.2,0.1,5.6,0,5,0z M16.5,5
				c0.4-0.5,0.6-1.2,0.5-1.8c0-0.6-0.1-1.2-0.4-1.7c-0.3-0.5-0.7-0.9-1.2-1.1c-0.6-0.3-1.3-0.4-2-0.4h-3.3V10h2V6.4H13l2.3,3.6h2.4
				L15,6.1C15.6,5.9,16.1,5.5,16.5,5L16.5,5z M14.5,4.3c-0.4,0.3-0.8,0.4-1.2,0.4h-1.2v-3h1.2c0.5,0,0.9,0.1,1.2,0.4
				C14.8,2.4,15,2.9,15,3.3C15,3.7,14.8,4.1,14.5,4.3L14.5,4.3z M18.6,0v1.9h2.6V10h2V1.9h2.6V0H18.6z"/>
		</g>
	</g>
</g>
<g>
	<path class="st6" d="M213,40.8c-2-0.9-3.3-2.8-3.4-5.1l0-0.1V6.3h-11.2v29.3c0,3.2-2.6,5.7-5.8,5.7c-3.2,0-5.7-2.6-5.8-5.7V6.3
		h-11.2v29.3h0c0,9.3,7.6,16.9,17,16.9c4.4,0,8.4-1.7,11.4-4.4c2.5,2.2,5.6,3.7,9,4.2V40.8z"/>
	<polygon class="st7" points="216.8,8.4 216.8,0 209.6,6.3 209.6,14.7 	"/>
	<polygon class="st8" points="198.3,16.2 198.3,34.5 203.6,29.9 203.6,19.9 209.6,14.7 209.6,6.3 	"/>
	<path class="st6" d="M178.4,86.4c-1.7,0-2.7,1.3-2.7,2.9c0,1.6,0.9,2.9,2.7,2.9c1.8,0,2.7-1.4,2.7-2.9
		C181.1,87.6,180.1,86.4,178.4,86.4 M178.4,87.3c1.1,0,1.6,0.9,1.6,2c0,1.1-0.4,2-1.6,2c-1.1,0-1.6-0.9-1.6-2.1
		C176.8,88.2,177.3,87.3,178.4,87.3 M184.5,90.8c-0.1,0.4-0.4,0.6-0.8,0.6c-0.6,0-0.9-0.5-0.9-1.4c0-0.9,0.3-1.4,0.9-1.4
		c0.5,0,0.7,0.3,0.8,0.7h1c0-0.5-0.4-1.5-1.8-1.5c-1.3,0-2,1-2,2.2c0,1.3,0.7,2.2,1.9,2.2c1.2,0,1.7-0.7,1.8-1.4H184.5z M188.8,90.8
		c-0.1,0.4-0.4,0.6-0.8,0.6c-0.6,0-0.9-0.5-0.9-1.4c0-0.9,0.3-1.4,0.9-1.4c0.5,0,0.7,0.3,0.8,0.7h1c0-0.5-0.4-1.5-1.8-1.5
		c-1.3,0-2,1-2,2.2c0,1.3,0.7,2.2,1.9,2.2c1.2,0,1.7-0.7,1.8-1.4H188.8z M190.6,92.2h1V88h-1V92.2z M191.7,86.2h-1v1h1V86.2z
		 M192.3,88.8h0.7v2.3c0,0.7,0.3,1.1,1,1.1c0.2,0,0.5,0,0.7-0.1v-0.7c-0.1,0-0.2,0-0.3,0c-0.4,0-0.5-0.1-0.5-0.5v-2.2h0.9V88H194
		v-1.2h-1V88h-0.7V88.8z M198.9,89.3c0-1-0.6-1.4-1.7-1.4c-1.2,0-1.7,0.6-1.7,1.3h1c0.1-0.3,0.2-0.6,0.7-0.6c0.6,0,0.7,0.3,0.7,0.7
		v0.3h-0.6c-1.2,0-2,0.4-2,1.4c0,0.6,0.4,1.3,1.4,1.3c0.8,0,1.1-0.3,1.2-0.6c0,0.2,0,0.4,0.1,0.5h1c0-0.1-0.1-0.6-0.1-1V89.3z
		 M197.9,90.3c0,0.6-0.1,1.2-0.9,1.2c-0.4,0-0.7-0.3-0.7-0.6c0-0.5,0.3-0.7,1.1-0.7h0.5V90.3z M200,92.2h1v-2.3
		c0-0.8,0.3-1.2,0.9-1.2c0.6,0,0.7,0.4,0.7,0.9v2.6h1v-2.7c0-1.1-0.6-1.6-1.4-1.6c-0.8,0-1.1,0.4-1.2,0.7c0-0.1,0-0.5,0-0.6h-1
		c0,0.3,0,0.7,0,1V92.2z M204.8,92.2h1V88h-1V92.2z M205.8,86.2h-1v1h1V86.2z M210.5,90.3c0-0.1,0-0.2,0-0.4c0-1-0.5-2-1.9-2
		c-1.3,0-2,1-2,2.2c0,1.1,0.6,2.1,1.9,2.1c1.3,0,1.7-0.8,1.9-1.3h-1c-0.1,0.3-0.3,0.5-0.8,0.5c-0.6,0-0.9-0.5-0.9-1.2H210.5z
		 M207.7,89.6c0.1-0.6,0.3-1,0.9-1c0.6,0,0.9,0.5,0.9,1H207.7z M213.5,92.2h1.1V90h1.2c1.1,0,2-0.6,2-1.8c0-1.1-0.8-1.7-2-1.7h-2.3
		V92.2z M214.5,87.4h1.1c0.6,0,1,0.3,1,0.9c0,0.6-0.4,0.9-1,0.9h-1.1V87.4z M218.2,88l1.5,4.3c-0.2,0.5-0.4,0.7-0.9,0.7
		c-0.1,0-0.2,0-0.3,0v0.8c0.2,0,0.4,0,0.5,0c1,0,1.3-0.3,1.7-1.6l1.4-4.3h-1c-0.6,1.9-0.8,2.8-0.9,3.3h0c-0.1-0.4-0.5-1.6-1-3.3
		H218.2z M222.9,92.2h1v-1.9c0-1.1,0.5-1.4,1.4-1.4v-1c-0.7,0-1.2,0.4-1.4,0.9c0-0.3,0-0.7,0-0.8h-1c0,0.3,0,0.7,0,1.1V92.2z
		 M229.5,90.3c0-0.1,0-0.2,0-0.4c0-1-0.5-2-1.9-2c-1.3,0-2,1-2,2.2c0,1.1,0.6,2.1,1.9,2.1c1.3,0,1.7-0.8,1.9-1.3h-1
		c-0.1,0.3-0.3,0.5-0.8,0.5c-0.6,0-0.9-0.5-0.9-1.2H229.5z M226.7,89.6c0.1-0.6,0.3-1,0.9-1c0.6,0,0.9,0.5,0.9,1H226.7z M228,86.1
		l-1,1.2h0.9l1.3-1.2H228z M230.4,92.2h1v-2.3c0-0.8,0.3-1.2,0.9-1.2c0.6,0,0.7,0.4,0.7,0.9v2.6h1v-2.7c0-1.1-0.6-1.6-1.4-1.6
		c-0.8,0-1.1,0.4-1.2,0.7c0-0.1,0-0.5,0-0.6h-1c0,0.3,0,0.7,0,1V92.2z M238.7,90.3c0-0.1,0-0.2,0-0.4c0-1-0.5-2-1.9-2
		c-1.3,0-2,1-2,2.2c0,1.1,0.6,2.1,1.9,2.1c1.3,0,1.7-0.8,1.9-1.3h-1c-0.1,0.3-0.3,0.5-0.8,0.5c-0.6,0-0.9-0.5-0.9-1.2H238.7z
		 M235.9,89.6c0.1-0.6,0.3-1,0.9-1s0.9,0.5,0.9,1H235.9z M237.2,86.1l-1,1.2h0.9l1.3-1.2H237.2z M243.2,90.3c0-0.1,0-0.2,0-0.4
		c0-1-0.5-2-1.9-2c-1.3,0-2,1-2,2.2c0,1.1,0.6,2.1,1.9,2.1c1.3,0,1.7-0.8,1.9-1.3h-1c-0.1,0.3-0.3,0.5-0.8,0.5
		c-0.6,0-0.9-0.5-0.9-1.2H243.2z M240.4,89.6c0.1-0.6,0.3-1,0.9-1c0.6,0,0.9,0.5,0.9,1H240.4z M243.8,90.9c0.1,0.7,0.6,1.3,1.8,1.3
		c1.2,0,1.7-0.6,1.7-1.3c0-0.6-0.2-1.1-1.6-1.4c-0.7-0.2-0.9-0.3-0.9-0.5c0-0.2,0.1-0.4,0.6-0.4c0.6,0,0.7,0.3,0.8,0.5h1
		c0-0.6-0.5-1.2-1.7-1.2c-1.2,0-1.6,0.6-1.6,1.2c0,0.6,0.2,1,1.5,1.3c0.7,0.2,0.8,0.3,0.8,0.6c0,0.3-0.2,0.5-0.7,0.5
		c-0.5,0-0.8-0.2-0.9-0.6H243.8z"/>
	<path class="st6" d="M177.1,83.4h1.1v-4.8h1.7v-0.9h-4.5v0.9h1.7V83.4z M183.2,80.5c0-1-0.6-1.4-1.7-1.4c-1.2,0-1.7,0.6-1.7,1.3h1
		c0.1-0.3,0.2-0.6,0.7-0.6c0.6,0,0.7,0.3,0.7,0.7v0.3h-0.6c-1.2,0-2,0.4-2,1.4c0,0.6,0.4,1.3,1.4,1.3c0.8,0,1.1-0.3,1.2-0.6
		c0,0.2,0,0.4,0.1,0.5h1c0-0.1-0.1-0.6-0.1-1V80.5z M182.2,81.6c0,0.6-0.1,1.2-0.9,1.2c-0.4,0-0.7-0.3-0.7-0.6
		c0-0.5,0.3-0.7,1.1-0.7h0.5V81.6z M184.3,83.4h1v-1.9c0-1.1,0.5-1.4,1.4-1.4v-1c-0.7,0-1.2,0.4-1.4,0.9c0-0.3,0-0.7,0-0.8h-1
		c0,0.3,0,0.7,0,1.1V83.4z M187.4,82c0,0.5,0,0.9,0,1.4h1c0-0.1,0-0.3,0-0.4c0.2,0.3,0.5,0.5,1.1,0.5c1.2,0,1.8-1,1.8-2.3
		c0-1.2-0.6-2.1-1.7-2.1c-0.7,0-1.1,0.3-1.2,0.6v-2.3h-1V82z M190.3,81.2c0,0.9-0.4,1.4-1,1.4c-0.7,0-1-0.6-1-1.4
		c0-0.9,0.3-1.4,1-1.4C190,79.9,190.3,80.5,190.3,81.2 M195.8,81.5c0-0.1,0-0.2,0-0.4c0-1-0.5-2-1.9-2c-1.3,0-2,1-2,2.2
		c0,1.1,0.6,2.1,1.9,2.1c1.3,0,1.7-0.8,1.9-1.3h-1c-0.1,0.3-0.3,0.5-0.8,0.5c-0.6,0-0.9-0.5-0.9-1.2H195.8z M193,80.9
		c0.1-0.6,0.3-1,0.9-1c0.6,0,0.9,0.5,0.9,1H193z M196.4,82.2c0.1,0.7,0.6,1.3,1.8,1.3c1.2,0,1.7-0.6,1.7-1.3c0-0.6-0.2-1.1-1.6-1.4
		c-0.7-0.2-0.9-0.3-0.9-0.5c0-0.2,0.1-0.4,0.6-0.4c0.6,0,0.7,0.3,0.8,0.5h1c0-0.6-0.5-1.2-1.7-1.2c-1.2,0-1.6,0.6-1.6,1.2
		c0,0.6,0.2,1,1.5,1.3c0.7,0.2,0.8,0.3,0.8,0.6c0,0.3-0.2,0.5-0.7,0.5c-0.5,0-0.8-0.2-0.9-0.6H196.4z"/>
	<path class="st6" d="M178.6,68.7v2.1c-0.1-0.2-0.4-0.4-1.1-0.4c-1.2,0-1.9,0.9-1.9,2.2c0,1.3,0.7,2.1,1.7,2.1c0.7,0,1-0.2,1.2-0.6
		c0,0.1,0,0.4,0,0.5h1c0-0.4,0-0.8,0-1.2v-4.8H178.6z M176.6,72.5c0-0.9,0.4-1.4,1-1.4c0.8,0,1,0.6,1,1.3c0,0.7-0.1,1.4-1,1.4
		C177,73.9,176.6,73.4,176.6,72.5 M184.2,72.7c0-0.1,0-0.2,0-0.4c0-1-0.5-2-1.9-2c-1.3,0-2,1-2,2.2c0,1.1,0.6,2.1,1.9,2.1
		c1.3,0,1.7-0.8,1.9-1.3h-1c-0.1,0.3-0.3,0.5-0.8,0.5c-0.6,0-0.9-0.5-0.9-1.2H184.2z M181.4,72.1c0.1-0.6,0.3-1,0.9-1
		c0.6,0,0.9,0.5,0.9,1H181.4z M188.4,74.6h1.1v-4.8h1.7V69h-4.5v0.9h1.7V74.6z M194.6,72.7c0-0.1,0-0.2,0-0.4c0-1-0.5-2-1.9-2
		c-1.3,0-2,1-2,2.2c0,1.1,0.6,2.1,1.9,2.1c1.3,0,1.7-0.8,1.9-1.3h-1c-0.1,0.3-0.3,0.5-0.8,0.5c-0.6,0-0.9-0.5-0.9-1.2H194.6z
		 M191.8,72.1c0.1-0.6,0.3-1,0.9-1s0.9,0.5,0.9,1H191.8z M198,73.3c-0.1,0.4-0.4,0.6-0.8,0.6c-0.6,0-0.9-0.5-0.9-1.4
		c0-0.9,0.3-1.4,0.9-1.4c0.5,0,0.7,0.3,0.8,0.7h1c0-0.5-0.4-1.5-1.8-1.5c-1.3,0-2,1-2,2.2c0,1.3,0.7,2.2,1.9,2.2
		c1.2,0,1.7-0.7,1.8-1.4H198z M199.8,68.7v6h1v-2.2c0-0.7,0.2-1.2,0.9-1.2c0.5,0,0.8,0.3,0.8,0.9v2.5h1V72c0-1.2-0.7-1.6-1.4-1.6
		c-0.7,0-1,0.3-1.2,0.6v-2.3H199.8z M204.6,74.6h1v-2.3c0-0.8,0.3-1.2,0.9-1.2c0.6,0,0.7,0.4,0.7,0.9v2.6h1V72
		c0-1.1-0.6-1.6-1.4-1.6c-0.8,0-1.1,0.4-1.2,0.7c0-0.1,0-0.5,0-0.6h-1c0,0.3,0,0.7,0,1.1V74.6z M211.1,70.3c-1.3,0-2.1,0.9-2.1,2.2
		c0,1.3,0.7,2.2,2,2.2c1.3,0,2-1,2-2.2C213.1,71.2,212.3,70.3,211.1,70.3 M211.1,71.2c0.7,0,1,0.5,1,1.4c0,0.8-0.3,1.4-1,1.4
		c-0.6,0-1-0.5-1-1.4C210.1,71.6,210.5,71.2,211.1,71.2 M215,68.7h-1v6h1V68.7z M217.9,70.3c-1.3,0-2.1,0.9-2.1,2.2
		c0,1.3,0.7,2.2,2,2.2c1.3,0,2-1,2-2.2C219.9,71.2,219.1,70.3,217.9,70.3 M217.8,71.2c0.7,0,1,0.5,1,1.4c0,0.8-0.3,1.4-1,1.4
		c-0.6,0-1-0.5-1-1.4C216.9,71.6,217.2,71.2,217.8,71.2 M224.5,71.6c0-0.4,0-0.9,0-1.2h-1c0,0.1,0,0.3,0,0.5
		c-0.1-0.2-0.4-0.6-1.1-0.6c-1,0-1.8,0.9-1.8,2.2c0,1.2,0.7,2,1.7,2c0.6,0,1-0.2,1.2-0.6v0.2c0,0.9-0.2,1.4-1,1.4
		c-0.5,0-0.7-0.2-0.8-0.6h-1c0,0.5,0.4,1.3,1.8,1.3c1.5,0,2-0.8,2-2.2V71.6z M221.5,72.5c0-0.9,0.4-1.3,1-1.3c0.8,0,1,0.5,1,1.3
		c0,0.8-0.2,1.3-1,1.3C221.9,73.8,221.5,73.3,221.5,72.5 M225.5,74.6h1v-4.2h-1V74.6z M226.6,68.7h-1v1h1V68.7z M231.2,72.7
		c0-0.1,0-0.2,0-0.4c0-1-0.5-2-1.9-2c-1.3,0-2,1-2,2.2c0,1.1,0.6,2.1,1.9,2.1c1.3,0,1.7-0.8,1.9-1.3h-1c-0.1,0.3-0.3,0.5-0.8,0.5
		c-0.6,0-0.9-0.5-0.9-1.2H231.2z M228.4,72.1c0.1-0.6,0.3-1,0.9-1c0.6,0,0.9,0.5,0.9,1H228.4z"/>
	<path class="st6" d="M175.9,60.2v3.3c0,1.8,1.1,2.4,2.3,2.4c1.2,0,2.3-0.5,2.3-2.4v-3.3h-1.1v3.4c0,1.1-0.5,1.5-1.2,1.5
		c-0.6,0-1.3-0.3-1.3-1.5v-3.4H175.9z M181.6,65.9h1v-2.3c0-0.8,0.3-1.2,0.9-1.2c0.6,0,0.7,0.4,0.7,0.9v2.6h1v-2.7
		c0-1.1-0.6-1.6-1.4-1.6c-0.8,0-1.1,0.4-1.2,0.7c0-0.1,0-0.5,0-0.6h-1c0,0.3,0,0.7,0,1.1V65.9z M186.3,65.9h1v-4.2h-1V65.9z
		 M187.3,59.9h-1v1h1V59.9z M188,61.7l1.4,4.2h1.1l1.5-4.2h-1c-0.5,1.4-0.9,2.7-1,3.3h0c-0.1-0.5-0.5-1.8-0.9-3.3H188z M196.2,64
		c0-0.1,0-0.2,0-0.4c0-1-0.5-2-1.9-2c-1.3,0-2,1-2,2.2c0,1.1,0.6,2.1,1.9,2.1c1.3,0,1.7-0.8,1.9-1.3h-1c-0.1,0.3-0.3,0.5-0.8,0.5
		c-0.6,0-0.9-0.5-0.9-1.2H196.2z M193.4,63.3c0.1-0.6,0.3-1,0.9-1c0.6,0,0.9,0.5,0.9,1H193.4z M197,65.9h1V64c0-1.1,0.5-1.4,1.4-1.4
		v-1c-0.7,0-1.2,0.4-1.4,0.9c0-0.3,0-0.7,0-0.8h-1c0,0.3,0,0.7,0,1.1V65.9z M199.8,64.6c0.1,0.7,0.6,1.3,1.8,1.3
		c1.2,0,1.7-0.6,1.7-1.3c0-0.6-0.2-1.1-1.6-1.4c-0.7-0.2-0.9-0.3-0.9-0.5c0-0.2,0.1-0.4,0.6-0.4c0.6,0,0.7,0.3,0.8,0.5h1
		c0-0.6-0.5-1.2-1.7-1.2c-1.2,0-1.6,0.6-1.6,1.2c0,0.6,0.2,1,1.5,1.3c0.7,0.2,0.8,0.3,0.8,0.6c0,0.3-0.2,0.5-0.7,0.5
		c-0.5,0-0.8-0.2-0.9-0.6H199.8z M204.2,65.9h1v-4.2h-1V65.9z M205.2,59.9h-1v1h1V59.9z M205.9,62.5h0.7v2.3c0,0.7,0.3,1.1,1,1.1
		c0.2,0,0.5,0,0.7-0.1v-0.7c-0.1,0-0.2,0-0.3,0c-0.4,0-0.5-0.1-0.5-0.5v-2.2h0.9v-0.8h-0.9v-1.2h-1v1.2h-0.7V62.5z M212.7,64
		c0-0.1,0-0.2,0-0.4c0-1-0.5-2-1.9-2c-1.3,0-2,1-2,2.2c0,1.1,0.6,2.1,1.9,2.1c1.3,0,1.7-0.8,1.9-1.3h-1c-0.1,0.3-0.3,0.5-0.8,0.5
		c-0.6,0-0.9-0.5-0.9-1.2H212.7z M209.9,63.3c0.1-0.6,0.3-1,0.9-1c0.6,0,0.9,0.5,0.9,1H209.9z M211.1,59.8l-1,1.2h0.9l1.3-1.2H211.1
		z"/>
	<polygon class="st9" points="203.6,19.9 203.6,29.9 209.6,24.7 209.6,14.7 	"/>
	<polygon class="st10" points="209.6,24.7 216.8,18.3 216.8,8.4 209.6,14.7 	"/>
	<polygon class="st11" points="224,2.1 216.8,8.4 216.8,18.3 216.8,18.3 209.6,24.7 209.6,33 224,20.4 	"/>
</g>
</svg>
