<svg xmlns="http://www.w3.org/2000/svg" xmlns:xlink="http://www.w3.org/1999/xlink" width="157.03" height="93.864" viewBox="0 0 157.03 93.864">
  <defs>
    <linearGradient id="linear-gradient" x1="0.489" y1="0.5" x2="1" y2="0.5" gradientUnits="objectBoundingBox">
      <stop offset="0" stop-color="#1fa138"/>
      <stop offset="1" stop-color="#78b12b"/>
    </linearGradient>
    <linearGradient id="linear-gradient-2" x1="0.504" y1="0.5" x2="1" y2="0.5" gradientUnits="objectBoundingBox">
      <stop offset="0" stop-color="#66b02f"/>
      <stop offset="1" stop-color="#c0d013"/>
    </linearGradient>
    <linearGradient id="linear-gradient-3" x1="0.529" y1="0.5" x2="1" y2="0.5" gradientUnits="objectBoundingBox">
      <stop offset="0" stop-color="#e6a100"/>
      <stop offset="1" stop-color="#fddc04"/>
    </linearGradient>
    <linearGradient id="linear-gradient-4" x1="0.513" y1="0.5" x2="1" y2="0.5" gradientUnits="objectBoundingBox">
      <stop offset="0" stop-color="#e6af58"/>
      <stop offset="1" stop-color="#faf3b8"/>
    </linearGradient>
  </defs>
  <g id="Objet_dynamique_vectoriel" data-name="Objet dynamique vectoriel" transform="translate(-89.26 -50.53)">
    <g id="Groupe_3" data-name="Groupe 3" transform="translate(89.26 50.53)">
      <g id="Groupe_1" data-name="Groupe 1" transform="translate(0 51.526)">
        <path id="Tracé_1" data-name="Tracé 1" d="M112.208,273.467a10.246,10.246,0,0,0-6.7-2.207H89.26v37.23h4.608V292.749h12.061c5.615,0,9.39-3.8,9.39-9.452v-2.43A9.185,9.185,0,0,0,112.208,273.467Zm-1.5,9.831c0,4.216-3,4.844-4.782,4.844H93.865V275.865h11.643a5.867,5.867,0,0,1,3.734,1.128,4.8,4.8,0,0,1,1.463,3.872V283.3Z" transform="translate(-89.26 -266.216)" fill="#383838"/>
        <path id="Tracé_2" data-name="Tracé 2" d="M210.92,314.31v-2.594h-4.5v26.746h4.5V322.034c0-5.154,2.314-5.974,5.815-5.974H220.5v-4.5h-3.847A6.716,6.716,0,0,0,210.92,314.31Z" transform="translate(-176.394 -296.188)" fill="#383838"/>
        <path id="Tracé_3" data-name="Tracé 3" d="M282.656,311.56h-10.4v4.5h5.9v17.96H270.89v4.441H288.8v-4.441h-6.148Z" transform="translate(-224.341 -296.188)" fill="#383838"/>
        <path id="Tracé_4" data-name="Tracé 4" d="M293.21,259.96a4.19,4.19,0,1,0-4.19-4.19A4.19,4.19,0,0,0,293.21,259.96Z" transform="translate(-237.825 -251.58)" fill="#383838"/>
        <path id="Tracé_5" data-name="Tracé 5" d="M522.984,334.179h-6.51a3.829,3.829,0,0,1-3.824-3.824v-3.35s16.213-.077,17.086-.077a1.3,1.3,0,0,0,1.422-1.374V319.9a8.082,8.082,0,0,0-8.022-8.327h-6.661a8.336,8.336,0,0,0-8.327,8.327v10.31a8.336,8.336,0,0,0,8.327,8.327h6.51c4.59,0,7.432-3.147,8.265-7.327l-4.2-1.143C526.574,332.467,525.09,334.179,522.984,334.179Zm-10.336-14.47a3.779,3.779,0,0,1,3.824-3.765h6.661a3.478,3.478,0,0,1,3.521,3.7v2.788l-14.008.064V319.71Z" transform="translate(-400.795 -296.196)" fill="#383838"/>
        <path id="Tracé_6" data-name="Tracé 6" d="M633.89,324.73a8.883,8.883,0,0,0-3.524-1.5c-.587-.126-2.273-.428-4.06-.751-1.738-.315-3.537-.638-4.252-.784-1.994-.407-2.668-1.11-2.668-2.776a2.546,2.546,0,0,1,.961-2.258,4.725,4.725,0,0,1,2.632-.684h5.305c1.445,0,3.021.518,3.767,3.69l4.29-1.028c-1.071-4.559-3.872-7.071-8.057-7.071H622.98a9.136,9.136,0,0,0-5.21,1.5,7.422,7.422,0,0,0-.331,11.474,8.785,8.785,0,0,0,3.714,1.568c.766.156,2.589.487,4.352.8,1.676.3,3.406.615,3.926.725,2.358.5,2.683,1.643,2.683,2.8a4.017,4.017,0,0,1-1.053,2.9,2.792,2.792,0,0,1-1.8.81h-6.717c-1.066,0-3.3-.092-4.078-4.362l-4.375,1.058c1.217,5.026,4.142,7.683,8.452,7.683h6.717a7.223,7.223,0,0,0,4.916-2.06,8.081,8.081,0,0,0,2.44-6.033A6.769,6.769,0,0,0,633.89,324.73Z" transform="translate(-479.584 -296.196)" fill="#383838"/>
        <path id="Tracé_7" data-name="Tracé 7" d="M382.772,311.56c-3.8,0-6.053,1.235-7.319,3.357a7.521,7.521,0,0,0-6.745-3.357c-2.937,0-4.99,1.058-6.207,3.268v-3.111H358v26.746h4.5V322.839c0-3.6.769-6.917,5.274-6.917,2.719,0,4.818,1.948,4.818,5.408v17.133h4.5V321.993c0-4.047,1.663-6.1,5.085-6.1,3.808,0,5.069,2.719,5.069,5.126V338.46h4.5v-18.6C391.747,316.27,389.792,311.56,382.772,311.56Z" transform="translate(-289.126 -296.188)" fill="#383838"/>
      </g>
      <path id="Tracé_8" data-name="Tracé 8" d="M226.17,201.456c2.078-.674,4.242-1.322,6.133-1.786,1.2-6.863,5.423-11.136,10.413-12.878l-1.979-9.06C232.528,181.415,226.17,189.513,226.17,201.456Zm19.057-15.318a16.2,16.2,0,0,1,2.33-.238l2.317-10.39a26.111,26.111,0,0,0-4.5.654Zm29.842,7.032a25.47,25.47,0,0,0-9.413-13.235l-9.621,8.042a15.146,15.146,0,0,1,5.815,5.918q6.762-.611,13.219-.725Zm-20.287-17.476-4.7,10.321a16.106,16.106,0,0,1,3.083.689l7.44-9.5A24.969,24.969,0,0,0,254.782,175.695Z" transform="translate(-191.082 -143.48)" fill="url(#linear-gradient)"/>
      <path id="Tracé_9" data-name="Tracé 9" d="M217.835,171.011h0c.943-.318,1.65-.546,1.65-.546,0-11.943,6.358-20.039,14.567-23.722l-1.93-8.847C221.943,143.594,214.944,154.978,217.835,171.011Zm20.851-25.836a26.111,26.111,0,0,1,4.5-.654l2.381-10.682a33.582,33.582,0,0,0-6.733,1.243Zm14.252-11.107L248.094,144.7a24.969,24.969,0,0,1,5.823,1.507l7.532-9.621A30.644,30.644,0,0,0,252.938,134.068Zm15.4,7.048-9.367,7.829a25.47,25.47,0,0,1,9.413,13.234s6.822-.01,10.157.151C277.442,152.813,273.6,145.808,268.336,141.116Z" transform="translate(-184.395 -112.489)" fill="url(#linear-gradient-2)"/>
      <path id="Tracé_10" data-name="Tracé 10" d="M204.491,141.756c.807-.287,1.689-.592,2.609-.9h0c-2.891-16.033,4.111-27.417,14.288-33.114l-1.82-8.342C207.005,107.427,199.032,122.6,204.491,141.756ZM228.1,104.925a33.4,33.4,0,0,1,6.733-1.243l2.317-10.392a39.927,39.927,0,0,0-8.906,1.938Zm18.8-11.333-4.7,10.321a30.644,30.644,0,0,1,8.511,2.522l7.117-9.09A36.681,36.681,0,0,0,246.9,93.592Zm19.513,10-8.816,7.371c5.267,4.693,9.106,11.7,10.2,21.215,0,0,6.364.42,9.467.794A36.139,36.139,0,0,0,266.417,103.587Z" transform="translate(-173.66 -82.331)" fill="url(#linear-gradient-3)"/>
      <path id="Tracé_11" data-name="Tracé 11" d="M196.849,110.436c.451-.164,1.34-.482,1.34-.482-5.456-19.157,2.517-34.329,15.075-42.361l-1.715-7.855C197.808,70.336,189.876,88.762,196.849,110.436Zm25.09-47.01a39.99,39.99,0,0,1,8.906-1.938l2.442-10.956a45.867,45.867,0,0,0-11.2,3.088ZM240.6,61.791a36.617,36.617,0,0,1,10.925,3.752l8.324-10.631A45.952,45.952,0,0,0,245.73,50.53Zm30.365.925-10.851,9.07a36.14,36.14,0,0,1,10.854,29.38h-.005a112.729,112.729,0,0,1,12.9,2.3C286.564,86.356,280.828,72.155,270.966,62.716Z" transform="translate(-167.358 -50.53)" fill="url(#linear-gradient-4)"/>
    </g>
    <g id="Groupe_5" data-name="Groupe 5" transform="translate(167.022 104.25)">
      <g id="Groupe_4" data-name="Groupe 4" transform="translate(0)">
        <path id="Tracé_79" data-name="Tracé 79" d="M397.724,260.14a5.411,5.411,0,0,0-2.017.366,4.645,4.645,0,0,0-2.65,2.594,5.573,5.573,0,0,0,0,4.029,4.645,4.645,0,0,0,2.65,2.594,5.469,5.469,0,0,0,2.017.367,5.015,5.015,0,0,0,1.717-.259,4.613,4.613,0,0,0,1.248-.718V266.9a4.224,4.224,0,0,1-1.174.93,3.472,3.472,0,0,1-1.7.382,3.1,3.1,0,0,1-1.489-.382,2.856,2.856,0,0,1-1.1-1.069,3.02,3.02,0,0,1-.42-1.633,3.135,3.135,0,0,1,.42-1.648,2.875,2.875,0,0,1,1.1-1.069,2.936,2.936,0,0,1,1.489-.382,3.659,3.659,0,0,1,1.7.382,3.963,3.963,0,0,1,1.174.93v-2.212a4.387,4.387,0,0,0-1.248-.733A5.017,5.017,0,0,0,397.724,260.14Zm11.471,5.018a3.072,3.072,0,0,0,.541-1.815,3.2,3.2,0,0,0-.436-1.663,2.909,2.909,0,0,0-1.248-1.115,4.626,4.626,0,0,0-1.986-.4h-3.311V270.1h2.017v-3.6h.859l2.3,3.6h2.394l-2.665-3.844A3.05,3.05,0,0,0,409.195,265.158Zm-2.02-.669a1.892,1.892,0,0,1-1.248.4h-1.158v-2.975h1.158a1.887,1.887,0,0,1,1.248.4,1.338,1.338,0,0,1,.466,1.1A1.317,1.317,0,0,1,407.175,264.489Zm4.08-4.349V262h2.635v8.1h2.017V262h2.65V260.14Z" transform="translate(-392.68 -260.14)" fill="#e58406"/>
      </g>
    </g>
  </g>
</svg>
