<?xml version="1.0" encoding="UTF-8"?>
<svg xmlns="http://www.w3.org/2000/svg" id="Layer_1" data-name="Layer 1" viewBox="0 0 24 24" width="512" height="512"><path d="M23.208,16.354l-5.523,4.96c-1.931,1.732-4.422,2.687-7.015,2.687H.5c-.276,0-.5-.224-.5-.5s.224-.5,.5-.5H10.67c2.346,0,4.6-.863,6.347-2.431l5.504-4.941c.539-.539,.643-1.399,.223-1.983-.267-.37-.658-.594-1.104-.63-.436-.03-.87,.123-1.183,.435l-4.179,3.808c-.453,.458-1.082,.743-1.777,.743h-5c-.276,0-.5-.224-.5-.5s.224-.5,.5-.5h5c.4,0,.764-.158,1.033-.414,.013-.015,.027-.03,.042-.044l.018-.016c.252-.268,.407-.629,.407-1.026,0-.827-.673-1.5-1.5-1.5h-5.912c-2.537,0-4.923,.988-6.718,2.782l-1.008,1.062c-.189,.203-.507,.209-.706,.019-.201-.189-.209-.506-.019-.706l1.017-1.071c1.993-1.993,4.63-3.085,7.434-3.085h5.912c1.296,0,2.365,.991,2.488,2.255l2.778-2.53c.502-.503,1.216-.769,1.954-.707,.732,.059,1.4,.438,1.835,1.042,.704,.977,.555,2.393-.347,3.293ZM5.004,1.627c-.031-.437,.131-.867,.443-1.18S6.183-.021,6.628,.004c3.167,.223,5.047,1.416,5.872,3.853C13.326,1.42,15.205,.227,18.373,.004c.436-.021,.867,.13,1.18,.443,.312,.312,.475,.743,.443,1.181-.304,4.312-2.405,6.238-6.996,6.365v1.507c0,.276-.224,.5-.5,.5s-.5-.224-.5-.5v-1.507c-4.591-.127-6.692-2.053-6.996-6.366ZM13.007,6.993c4.034-.117,5.727-1.673,5.991-5.437,.011-.148-.045-.295-.152-.402-.099-.099-.23-.154-.366-.154-.012,0-.023,0-.035,.002-3.765,.265-5.32,1.957-5.438,5.991ZM6.002,1.556c.265,3.765,1.957,5.32,5.991,5.438-.117-4.034-1.673-5.727-5.437-5.991-.012,0-.024-.002-.036-.002-.136,0-.268,.056-.366,.154-.107,.107-.163,.254-.152,.401Z"/></svg>
