<svg xmlns="http://www.w3.org/2000/svg" width="286.979" height="187.265" viewBox="0 0 286.979 187.265">
  <g id="Groupe_60" data-name="Groupe 60" transform="translate(-352.494 -4568.067)">
    <g id="Groupe_31" data-name="Groupe 31" transform="translate(437.21 4568.067)">
      <g id="Groupe_32" data-name="Groupe 32" transform="translate(0)">
        <path id="picto_presta-demande" d="M8.645,164.252c-2.776-.753-5.27-1.992-6.842-4.515A34.367,34.367,0,0,1,0,155.911V8.341A38.884,38.884,0,0,1,1.908,4.374C3.384,2,5.788.875,8.325,0H107.58a1.919,1.919,0,0,0,.407.236c5.388,1.538,8.148,5.152,8.152,10.795q.02,30.069.006,60.136v3.9c.559-.688.891-1.06,1.183-1.461q12.432-17.1,24.865-34.2c2.98-4.08,7.057-5.867,12.027-4.837A11.533,11.533,0,0,1,163.74,44a11.879,11.879,0,0,1-2.347,9.81q-15.821,21.668-31.561,43.4c-4.206,5.787-8.387,11.594-12.642,17.345a5.288,5.288,0,0,0-1.065,3.388c.035,11.224.021,22.449.021,33.675,0,7.417-1.77,10.028-8.565,12.636ZM11.462,6.818C7.929,6.819,6.8,7.964,6.8,11.555q0,70.575,0,141.151c0,3.583,1.13,4.726,4.669,4.728q14.968,0,29.935,0,31.7,0,63.395,0c3.32,0,4.446-1.121,4.455-4.411.008-3.154,0-6.309,0-9.463V126.145a24.676,24.676,0,0,1-3.48,1.968c-4.148,1.527-8.34,2.937-12.523,4.367-3.214,1.1-5.236-.395-5.174-3.832.078-4.384.1-8.772.356-13.145a7.917,7.917,0,0,1,1.324-3.955c6.11-8.565,12.357-17.03,18.5-25.575a5.311,5.311,0,0,0,.961-2.9q.078-35.848.04-71.7c0-3.5-1.075-4.559-4.627-4.559l-46.585,0ZM95.191,124.557l8.325-2.918c-2.876-2.1-5.453-3.986-8.325-6.087Zm4.062-14.547,8.335,6.087,39.678-54.5-8.33-6.055Zm49.077-67.19c-1.925,2.187-3.576,4.615-5.409,7.022l8.34,6.089c1.6-2.187,3.136-4.294,4.684-6.389a5,5,0,0,0-.669-6.9,5.382,5.382,0,0,0-3.512-1.327A4.506,4.506,0,0,0,148.329,42.821ZM77.464,147.168q-21.107,0-42.213-.008a8.248,8.248,0,0,1-2.054-.214,3.352,3.352,0,0,1,.062-6.472,8.77,8.77,0,0,1,2.056-.195q10.553-.019,21.106-.008,10.393,0,20.787,0a14.049,14.049,0,0,1,1.438.027,3.417,3.417,0,0,1,.094,6.827,6.952,6.952,0,0,1-.871.042Zm-60.234-20.56c-2.256-.039-3.49-1.4-3.532-3.69-.04-2.19-.008-4.381-.008-6.571s-.031-4.381.008-6.572c.043-2.4,1.273-3.637,3.688-3.656q6.558-.054,13.116,0a3.336,3.336,0,0,1,3.649,3.571q.1,6.648,0,13.3a3.377,3.377,0,0,1-3.643,3.617q-3.342.049-6.684.05Q20.526,126.662,17.231,126.608Zm3.354-6.96h6.621V113.03H20.584Zm40.729.09q-2.535,0-5.068,0c-3.851,0-7.7.008-11.553-.014a3.393,3.393,0,0,1-3.7-3.5c.071-1.936,1.573-3.281,3.776-3.291,5.114-.021,10.228-.008,15.341-.008h5.061q6.579,0,13.158.005a3.325,3.325,0,0,1,3.425,2.361,2.955,2.955,0,0,1-1.145,3.673,5.538,5.538,0,0,1-2.839.745c-2.67.033-5.341.042-8.012.042C66.945,119.749,64.13,119.739,61.314,119.738ZM17.235,99.194a3.245,3.245,0,0,1-3.526-3.49q-.072-6.731,0-13.462a3.247,3.247,0,0,1,3.354-3.521c4.53-.091,9.065-.083,13.6-.01a3.3,3.3,0,0,1,3.479,3.438q.126,6.808,0,13.621c-.041,2.167-1.425,3.346-3.626,3.432-.106.005-.213,0-.319,0q-3.2,0-6.4,0c-.68,0-1.361,0-2.041.007-.649,0-1.3.006-1.949.006C18.947,99.219,18.091,99.213,17.235,99.194ZM20.6,92.345h6.6V85.662H20.6Zm62.839.046q-18.873,0-37.746,0a12.332,12.332,0,0,1-1.756-.046A3.429,3.429,0,0,1,41,88.887,3.358,3.358,0,0,1,44.1,85.613c.529-.05,1.065-.037,1.6-.037q11.916,0,23.832,0,12.315,0,24.631-.005a3.449,3.449,0,0,1,3.323,1.8,2.776,2.776,0,0,1-.22,3.437,5.361,5.361,0,0,1-3.114,1.516c-1.591.083-3.186.106-4.782.106C87.394,92.427,85.416,92.392,83.44,92.392ZM17.328,71.849A3.339,3.339,0,0,1,13.7,68.264c-.047-2.244-.009-4.489-.01-6.732,0-2.191-.035-4.383.009-6.573a3.335,3.335,0,0,1,3.589-3.617q6.64-.056,13.279,0a3.279,3.279,0,0,1,3.554,3.339q.147,6.89,0,13.784c-.044,2.138-1.489,3.368-3.681,3.383q-3.35.023-6.7.024Q20.537,71.874,17.328,71.849Zm3.246-6.9h6.592V58.214H20.574Zm24.579.092c-2.588-.038-4.144-1.32-4.158-3.428s1.546-3.457,4.115-3.463c6.716-.017,13.433-.007,20.151-.007h6.557q12.955,0,25.909,0a10.264,10.264,0,0,1,1.908.116,3.372,3.372,0,0,1,.042,6.643,9.794,9.794,0,0,1-1.907.128q-26.067.01-52.136.006h-.479Zm29.839-27.43q-9.351,0-18.7,0v0c-7.3,0-14.6.019-21.9-.011a3.37,3.37,0,0,1-3.64-3.406A3.474,3.474,0,0,1,34.431,30.8c.319-.01.64,0,.959,0h7.034q17.505,0,35.011,0a10.747,10.747,0,0,1,1.6.046,3.432,3.432,0,0,1,2.922,3.472,3.323,3.323,0,0,1-3.125,3.251c-.644.044-1.29.055-1.937.055S75.624,37.613,74.992,37.613ZM18.438,23.971a9.5,9.5,0,0,1-2.373-.23,3.193,3.193,0,0,1-2.355-3.234,3.2,3.2,0,0,1,2.4-3.2,8.128,8.128,0,0,1,2.055-.213q39.92-.017,79.842,0a7.817,7.817,0,0,1,2.053.227,3.35,3.35,0,0,1-.046,6.43,9.757,9.757,0,0,1-2.374.222q-19.76.018-39.521.009H43.69Q31.063,23.981,18.438,23.971Z" fill="#fff"/>
      </g>
    </g>
    <path id="Tracé_152" data-name="Tracé 152" d="M-650,2251.588a22.449,22.449,0,0,1-7.937-1.454c-128.216-48.362-219.932-3-223.774-1.041a22.538,22.538,0,0,1-30.257-9.747,22.461,22.461,0,0,1,9.607-30.235c4.523-2.347,112.465-56.844,260.305-1.082a22.5,22.5,0,0,1,13.112,28.993A22.509,22.509,0,0,1-650,2251.588Z" transform="translate(-275 6938.336) rotate(180)" fill="#fff" opacity="0.13"/>
  </g>
</svg>
