<?xml version="1.0" encoding="utf-8"?>
<!-- Generator: Adobe Illustrator 27.9.6, SVG Export Plug-In . SVG Version: 9.03 Build 54986)  -->
<svg version="1.1" id="Calque_1" xmlns="http://www.w3.org/2000/svg" xmlns:xlink="http://www.w3.org/1999/xlink" x="0px" y="0px"
	 viewBox="0 0 287 187.3" style="enable-background:new 0 0 287 187.3;" xml:space="preserve">
<style type="text/css">
	.st0{fill:url(#picto_presta-demande_00000025436523204249580910000001440669205698992294_);}
	.st1{opacity:0.13;fill:#586DDD;enable-background:new    ;}
</style>
<g id="Groupe_60" transform="translate(-352.494 -4568.067)">
	<g id="Groupe_31" transform="translate(437.21 4568.067)">
		<g id="Groupe_32" transform="translate(0)">
			
				<linearGradient id="picto_presta-demande_00000065772623210004762730000001241732798288509569_" gradientUnits="userSpaceOnUse" x1="37.9204" y1="179.2675" x2="-68.8305" y2="57.8657" gradientTransform="matrix(1 0 0 -1 84.716 187.89)">
				<stop  offset="0" style="stop-color:#586DDD"/>
				<stop  offset="0.1676" style="stop-color:#FF99D6"/>
				<stop  offset="0.3194" style="stop-color:#F5D836"/>
				<stop  offset="0.5223" style="stop-color:#F5D836"/>
				<stop  offset="0.6676" style="stop-color:#45DB96"/>
				<stop  offset="0.8395" style="stop-color:#129A7E"/>
				<stop  offset="1" style="stop-color:#005078"/>
			</linearGradient>
			
				<path id="picto_presta-demande" style="fill:url(#picto_presta-demande_00000065772623210004762730000001241732798288509569_);" d="
				M8.6,164.3c-2.8-0.8-5.3-2-6.8-4.5c-0.7-1.2-1.3-2.5-1.8-3.8V8.3c0.6-1.4,1.2-2.7,1.9-4C3.4,2,5.8,0.9,8.3,0h99.3
				c0.1,0.1,0.3,0.2,0.4,0.2c5.4,1.5,8.1,5.2,8.2,10.8c0,20,0,40.1,0,60.1V75c0.6-0.7,0.9-1.1,1.2-1.5c8.3-11.4,16.6-22.8,24.9-34.2
				c3-4.1,7.1-5.9,12-4.8c4.9,0.8,8.7,4.6,9.5,9.4c0.7,3.5-0.1,7.1-2.3,9.8c-10.5,14.4-21.1,28.9-31.6,43.4
				c-4.2,5.8-8.4,11.6-12.6,17.3c-0.7,1-1.1,2.2-1.1,3.4c0,11.2,0,22.4,0,33.7c0,7.4-1.8,10-8.6,12.6L8.6,164.3z M11.5,6.8
				c-3.5,0-4.7,1.1-4.7,4.7c0,47,0,94.1,0,141.2c0,3.6,1.1,4.7,4.7,4.7c10,0,20,0,29.9,0c21.1,0,42.3,0,63.4,0
				c3.3,0,4.4-1.1,4.5-4.4c0-3.2,0-6.3,0-9.5v-17.4c-1.1,0.7-2.3,1.4-3.5,2c-4.1,1.5-8.3,2.9-12.5,4.4c-3.2,1.1-5.2-0.4-5.2-3.8
				c0.1-4.4,0.1-8.8,0.4-13.1c0.1-1.4,0.5-2.8,1.3-4c6.1-8.6,12.4-17,18.5-25.6c0.6-0.9,0.9-1.9,1-2.9c0.1-23.9,0.1-47.8,0-71.7
				c0-3.5-1.1-4.6-4.6-4.6H58L11.5,6.8z M95.2,124.6l8.3-2.9c-2.9-2.1-5.5-4-8.3-6.1V124.6z M99.3,110l8.3,6.1l39.7-54.5l-8.3-6.1
				L99.3,110z M148.3,42.8c-1.9,2.2-3.6,4.6-5.4,7l8.3,6.1c1.6-2.2,3.1-4.3,4.7-6.4c1.7-2.1,1.4-5.2-0.7-6.9c-1-0.8-2.2-1.3-3.5-1.3
				C150.5,41.3,149.2,41.8,148.3,42.8L148.3,42.8z M77.5,147.2c-14.1,0-28.1,0-42.2,0c-0.7,0-1.4-0.1-2.1-0.2
				c-1.8-0.5-2.8-2.3-2.3-4.1c0.3-1.1,1.2-2,2.4-2.3c0.7-0.1,1.4-0.2,2.1-0.2c7,0,14.1,0,21.1,0c6.9,0,13.9,0,20.8,0
				c0.5,0,1,0,1.4,0c1.9,0.1,3.4,1.6,3.3,3.5c-0.1,1.8-1.5,3.2-3.2,3.3c-0.3,0-0.6,0-0.9,0H77.5z M17.2,126.6
				c-2.3,0-3.5-1.4-3.5-3.7c0-2.2,0-4.4,0-6.6s0-4.4,0-6.6c0-2.4,1.3-3.6,3.7-3.7c4.4,0,8.7,0,13.1,0c1.8-0.2,3.5,1.2,3.6,3
				c0,0.2,0,0.4,0,0.6c0.1,4.4,0.1,8.9,0,13.3c0.1,1.9-1.3,3.5-3.1,3.6c-0.2,0-0.4,0-0.5,0c-2.2,0-4.5,0-6.7,0.1
				C21.6,126.7,19.4,126.6,17.2,126.6L17.2,126.6z M20.6,119.6h6.6V113h-6.6V119.6z M61.3,119.7c-1.7,0-3.4,0-5.1,0
				c-3.9,0-7.7,0-11.6,0c-1.9,0.2-3.5-1.2-3.7-3.1c0-0.1,0-0.3,0-0.4c0.1-1.9,1.6-3.3,3.8-3.3c5.1,0,10.2,0,15.3,0h5.1
				c4.4,0,8.8,0,13.2,0c1.6-0.1,3,0.9,3.4,2.4c0.6,1.3,0.1,2.9-1.1,3.7c-0.9,0.5-1.8,0.8-2.8,0.7c-2.7,0-5.3,0-8,0
				C66.9,119.7,64.1,119.7,61.3,119.7L61.3,119.7z M17.2,99.2c-1.8,0.2-3.4-1.2-3.5-2.9c0-0.2,0-0.4,0-0.5c0-4.5,0-9,0-13.5
				c-0.2-1.8,1.2-3.4,3-3.5c0.1,0,0.3,0,0.4,0c4.5-0.1,9.1-0.1,13.6,0c1.8-0.1,3.4,1.3,3.5,3.1c0,0.1,0,0.2,0,0.3
				c0.1,4.5,0.1,9.1,0,13.6c0,2.2-1.4,3.3-3.6,3.4c-0.1,0-0.2,0-0.3,0c-2.1,0-4.3,0-6.4,0c-0.7,0-1.4,0-2,0s-1.3,0-1.9,0
				C18.9,99.2,18.1,99.2,17.2,99.2z M20.6,92.3h6.6v-6.7h-6.6V92.3z M83.4,92.4c-12.6,0-25.2,0-37.7,0c-0.6,0-1.2,0-1.8,0
				c-1.7-0.2-3-1.7-2.9-3.5c0-1.7,1.4-3.1,3.1-3.3c0.5-0.1,1.1,0,1.6,0c7.9,0,15.9,0,23.8,0c8.2,0,16.4,0,24.6,0
				c1.4-0.1,2.7,0.6,3.3,1.8c0.7,1.1,0.6,2.5-0.2,3.4c-0.8,0.8-1.9,1.4-3.1,1.5c-1.6,0.1-3.2,0.1-4.8,0.1
				C87.4,92.4,85.4,92.4,83.4,92.4L83.4,92.4z M17.3,71.8c-1.8,0.2-3.5-1.2-3.6-3c0-0.2,0-0.4,0-0.6c0-2.2,0-4.5,0-6.7s0-4.4,0-6.6
				c-0.2-1.8,1.2-3.5,3-3.6c0.2,0,0.4,0,0.6,0c4.4,0,8.9,0,13.3,0c1.8-0.2,3.4,1.2,3.5,3c0,0.1,0,0.2,0,0.3c0.1,4.6,0.1,9.2,0,13.8
				c0,2.1-1.5,3.4-3.7,3.4s-4.5,0-6.7,0C21.6,71.9,19.5,71.9,17.3,71.8z M20.6,64.9h6.6v-6.7h-6.6V64.9z M45.2,65
				c-2.6,0-4.1-1.3-4.2-3.4s1.5-3.5,4.1-3.5c6.7,0,13.4,0,20.2,0h6.6c8.6,0,17.3,0,25.9,0c0.6,0,1.3,0,1.9,0.1
				c1.8,0.3,3.1,2,2.8,3.9c-0.2,1.4-1.3,2.5-2.7,2.8C99,65,98.4,65,97.8,65c-17.4,0-34.8,0-52.1,0H45.2L45.2,65z M75,37.6
				c-6.2,0-12.5,0-18.7,0l0,0c-7.3,0-14.6,0-21.9,0c-1.9,0.1-3.5-1.2-3.6-3.1c0-0.1,0-0.2,0-0.3c0-1.9,1.6-3.4,3.5-3.4h0.1
				c0.3,0,0.6,0,1,0h7c11.7,0,23.3,0,35,0c0.5,0,1.1,0,1.6,0c1.7,0.3,3,1.7,2.9,3.5c0,1.7-1.4,3.1-3.1,3.3c-0.6,0-1.3,0.1-1.9,0.1
				S75.6,37.6,75,37.6L75,37.6z M18.4,24c-0.8,0-1.6-0.1-2.4-0.2c-1.4-0.4-2.4-1.7-2.4-3.2s0.9-2.8,2.4-3.2c0.7-0.2,1.4-0.2,2.1-0.2
				c26.6,0,53.2,0,79.8,0c0.7,0,1.4,0.1,2.1,0.2c1.8,0.5,2.8,2.4,2.2,4.2c-0.3,1.1-1.2,1.9-2.3,2.3c-0.8,0.2-1.6,0.2-2.4,0.2
				c-13.2,0-26.3,0-39.5,0H43.7C35.3,24,26.9,24,18.4,24z"/>
		</g>
	</g>
	<path id="Tracé_152" class="st1" d="M375,4686.7c2.7,0,5.4,0.5,7.9,1.5c128.2,48.4,219.9,3,223.8,1c11-5.6,24.6-1.3,30.3,9.7
		s1.4,24.5-9.6,30.2c-4.5,2.3-112.5,56.8-260.3,1.1c-11.6-4.4-17.5-17.4-13.1-29l0,0C357.2,4692.6,365.6,4686.8,375,4686.7z"/>
</g>
</svg>
