<svg xmlns="http://www.w3.org/2000/svg" xmlns:xlink="http://www.w3.org/1999/xlink" width="286.979" height="187.265" viewBox="0 0 286.979 187.265">
  <defs>
    <linearGradient id="linear-gradient" x1="1" y1="0.042" x2="0.082" y2="1" gradientUnits="objectBoundingBox">
      <stop offset="0" stop-color="#e58406"/>
      <stop offset="0.23" stop-color="#ffd200"/>
      <stop offset="0.427" stop-color="#fff0a8"/>
      <stop offset="0.644" stop-color="#ffd200"/>
      <stop offset="0.879" stop-color="#bac202"/>
      <stop offset="1" stop-color="#73a219"/>
    </linearGradient>
  </defs>
  <g id="Groupe_61" data-name="Groupe 61" transform="translate(-816.494 -4568.067)">
    <path id="Tracé_147" data-name="Tracé 147" d="M-650,2251.588a22.449,22.449,0,0,1-7.937-1.454c-128.216-48.362-219.932-3-223.774-1.041a22.538,22.538,0,0,1-30.257-9.747,22.461,22.461,0,0,1,9.607-30.235c4.523-2.347,112.465-56.844,260.305-1.082a22.5,22.5,0,0,1,13.112,28.993A22.509,22.509,0,0,1-650,2251.588Z" transform="translate(189 6938.336) rotate(180)" fill="#c0c500" opacity="0.13"/>
    <path id="picto_avantages" d="M0,158.166V144.52c.9-1.071,1.841-2.057,3.442-1.429,1.576.617,1.7,1.939,1.683,3.375-.031,3.012-.014,6.026-.008,9.04.006,2.743.8,3.561,3.556,3.566q11.255.018,22.51,0c2.848,0,3.614-.8,3.614-3.676q0-38.975,0-77.95c0-2.912-.721-3.654-3.583-3.657q-11.17-.01-22.341,0c-3.09,0-3.756.685-3.757,3.83q0,27.8-.028,55.605a5,5,0,0,1-.673,2.705C3.4,137.393,1.693,137.081,0,135.308V74.582c.15-.287.322-.566.448-.864,1.35-3.191,3.706-5.008,7.21-5.029,8.186-.045,16.372-.063,24.557,0a7.522,7.522,0,0,1,7.695,7.827c.024,1.979,0,3.959,0,6.164H41.87c4.832,0,9.665-.067,14.5.027a5.833,5.833,0,0,0,5.559-3.144A100.676,100.676,0,0,0,77.042,26.341c.02-4.037-.037-8.074.017-12.111a14.211,14.211,0,0,1,28.155-2.717,15.292,15.292,0,0,1,.252,3.05q.03,12.794.01,25.586c0,.4.118.932-.088,1.166-.662.749-1.4,1.855-2.2,1.935s-1.87-.766-2.512-1.483c-.4-.445-.3-1.4-.3-2.133-.024-8.585.037-17.171-.062-25.756a8.385,8.385,0,0,0-5.3-7.892A8.626,8.626,0,0,0,85.7,7.066a8.758,8.758,0,0,0-3.539,7.226c-.074,6.366.05,12.745-.313,19.094A102.672,102.672,0,0,1,65.537,83.35,9.5,9.5,0,0,1,57.015,87.8c-5,.013-10,0-15.006,0H40.032v55h3c4.662,0,9.323.011,13.985,0a9.97,9.97,0,0,1,8.582,4.39q2.58,3.6,5.1,7.251a9.9,9.9,0,0,0,8.477,4.607c11.994.045,23.988.02,35.982.015a3.476,3.476,0,0,0,.676-.2,14.394,14.394,0,0,1-2.928-10.754,14.231,14.231,0,0,1,5.833-9.684c-3.684-2.987-5.922-6.7-5.948-11.513-.025-4.844,2.067-8.631,5.945-11.717-3.714-2.973-5.921-6.707-5.943-11.522a14.141,14.141,0,0,1,5.877-11.632c-6.75-6.026-7.734-12.87-2.872-20.72H105.479c0,.744.029,1.582,0,2.418-.23,5.611-.061,11.278-.817,16.819-.974,7.155-4.48,13.3-9.452,18.536-3.25,3.418-6.634,6.711-9.979,10.039-1.418,1.411-2.907,1.5-4.026.319-1.063-1.122-.943-2.541.4-3.9,2.959-2.99,5.953-5.947,8.915-8.934a32.463,32.463,0,0,0,9.847-23.738q-.018-14.5,0-29a10.865,10.865,0,0,1,.059-1.7,2.447,2.447,0,0,1,2.734-2.223,2.31,2.31,0,0,1,2.293,2.476c.046,3.354.023,6.709.028,10.063.007,3.07.6,3.666,3.7,3.667l14.346,0q15.594-.006,31.189.013c7.411.013,12.97,4.188,14.631,10.878,1.121,4.517.086,8.438-3.565,13.262,5.454,2.709,8.792,6.965,8.81,13.189.016,6.248-3.243,10.556-8.762,13.256,7.6,9.146,3.131,19.738-4.935,23.228.377.51.737.984,1.086,1.467a14.147,14.147,0,0,1-9.869,22.589,26.82,26.82,0,0,1-3.063.141q-10.484,0-20.968,0-23.709-.011-47.418.043c-6.4.024-11.318-2.332-14.8-7.738a53.561,53.561,0,0,0-4.456-6.235c-.9-1.031-2.346-2.163-3.586-2.211-5.892-.231-11.8-.1-17.913-.1,0,2.642.006,5.18,0,7.718-.012,5.374-3.072,8.5-8.431,8.527-2.573.011-5.145,0-7.718-.016-4.647-.024-9.3-.049-13.938.076-.174,0-.347.007-.518.007C4.822,164.252,1.614,162.614,0,158.166Zm119.813-13.724a8.624,8.624,0,0,0-1.01,9.461c1.715,3.591,4.79,5.159,8.7,5.167,7.549.014,15.1.064,22.646-.044a11.782,11.782,0,0,0,4.741-1.078,8.947,8.947,0,0,0-3.477-16.9c-4.193-.162-8.4-.036-12.6-.036v-.053c-3.859,0-7.719.007-11.578,0H127.2A8.808,8.808,0,0,0,119.813,144.442Zm7.243-26.668a8.926,8.926,0,0,0-8.7,6.142c-2.009,6.011,2.341,11.854,9,11.906,9.255.072,18.512.03,27.769,0a11.28,11.28,0,0,0,3.022-.4,8.976,8.976,0,0,0,6.455-9.465,8.871,8.871,0,0,0-8.75-8.16c-4.824-.112-9.653-.026-14.48-.026v-.009c-2.9,0-5.8-.014-8.692-.014Q129.865,117.749,127.056,117.774Zm.886-23.239a13.751,13.751,0,0,0-3.536.389A8.918,8.918,0,0,0,118,104.88c.532,4.46,4.285,7.7,9.333,7.733,10.907.077,21.817.109,32.723-.057a11.609,11.609,0,0,0,5.709-1.774,8.61,8.61,0,0,0,3.347-9.931,9.02,9.02,0,0,0-8.782-6.31c-3.762-.053-7.523-.042-11.286-.032q-2.623.007-5.246.009-4.227,0-8.454-.007Q131.639,94.512,127.941,94.536ZM141.206,89.4c4.487,0,8.973.019,13.459-.013a13.651,13.651,0,0,0,3.208-.3,9.047,9.047,0,0,0,6.768-9.1c-.269-4.458-3.463-8.365-7.837-8.472-10.381-.253-20.772-.139-31.158-.027a7.546,7.546,0,0,0-5.973,3.506,8.624,8.624,0,0,0-.979,9.026,8.212,8.212,0,0,0,7.523,5.283c4.99.163,9.992.041,14.988.041ZM124.26,29.734C121.442,14.482,133.561.014,148.032,0c5.526.061,9.682,1.035,13.526,3.21,1.766,1,2.359,2.334,1.66,3.726-.723,1.44-2.254,1.721-4.107.756-12.206-6.36-26.353-.074-29.543,13.127A20.233,20.233,0,1,0,167.135,15.8a3.924,3.924,0,0,1-.621-2.52c.269-.814,1.218-1.866,1.96-1.94a3.343,3.343,0,0,1,2.631,1.294,22.8,22.8,0,0,1,3.49,11.432,25.427,25.427,0,0,1-22.658,26.571,24.867,24.867,0,0,1-2.774.156A25.551,25.551,0,0,1,124.26,29.734ZM149.2,36.76c-1.494-.031-2.453-1.1-2.5-2.849-.037-1.245-.007-2.493-.007-4.033-1.3.735-2.4,1.385-3.529,1.982-1.558.824-2.959.528-3.73-.742-.8-1.312-.324-2.75,1.24-3.706,1.056-.646,2.128-1.261,3.439-2.035-1.249-.732-2.227-1.3-3.2-1.878-1.733-1.02-2.289-2.379-1.539-3.762.769-1.418,2.3-1.659,4.126-.64.892.5,1.775,1.009,2.668,1.5.082.045.212.006.526.006,0-1.225-.025-2.449.006-3.67.044-1.825,1.078-2.987,2.594-2.97s2.481,1.163,2.511,3.023c.02,1.185,0,2.372,0,3.9,1.273-.708,2.329-1.3,3.39-1.882,1.637-.9,3.091-.67,3.887.6.84,1.337.345,2.8-1.318,3.82-1.014.621-2.049,1.209-3.293,1.94,1.123.67,2.118,1.263,3.112,1.858,1.792,1.075,2.355,2.521,1.523,3.9-.812,1.348-2.255,1.552-4.029.561-.985-.551-1.964-1.113-3.272-1.854,0,1.5.02,2.766-.006,4.027-.035,1.829-.986,2.9-2.524,2.9Z" transform="translate(872.765 4568.067)" fill="url(#linear-gradient)"/>
  </g>
</svg>
