<?xml version="1.0" encoding="utf-8"?>
<!-- Generator: Adobe Illustrator 27.9.6, SVG Export Plug-In . SVG Version: 9.03 Build 54986)  -->
<svg version="1.1" id="Calque_1" xmlns="http://www.w3.org/2000/svg" xmlns:xlink="http://www.w3.org/1999/xlink" x="0px" y="0px"
	 viewBox="0 0 287 187.3" style="enable-background:new 0 0 287 187.3;" xml:space="preserve">
<style type="text/css">
	.st0{opacity:0.13;fill:#586DDD;enable-background:new    ;}
	.st1{fill:url(#picto_avantages_00000013186346419083169180000016286502002663073682_);}
</style>
<g id="Groupe_61" transform="translate(-816.494 -4568.067)">
	<path id="Tracé_147" class="st0" d="M839,4686.7c2.7,0,5.4,0.5,7.9,1.5c128.2,48.4,219.9,3,223.8,1c11-5.6,24.6-1.3,30.3,9.7
		c5.7,11,1.4,24.5-9.6,30.2c-4.5,2.3-112.5,56.8-260.3,1.1c-11.6-4.4-17.5-17.4-13.1-29c0,0,0,0,0,0
		C821.2,4692.6,829.6,4686.8,839,4686.7z"/>
	
		<linearGradient id="picto_avantages_00000038413801059171370300000008991241714537799313_" gradientUnits="userSpaceOnUse" x1="664.4279" y1="5080.874" x2="663.5098" y2="5079.916" gradientTransform="matrix(174.6283 0 0 -164.257 -114971.4688 839152.3125)">
		<stop  offset="0" style="stop-color:#586DDD"/>
		<stop  offset="0.1676" style="stop-color:#FF99D6"/>
		<stop  offset="0.3194" style="stop-color:#F5D836"/>
		<stop  offset="0.5223" style="stop-color:#F5D836"/>
		<stop  offset="0.6676" style="stop-color:#45DB96"/>
		<stop  offset="0.8395" style="stop-color:#129A7E"/>
		<stop  offset="1" style="stop-color:#005078"/>
	</linearGradient>
	<path id="picto_avantages" style="fill:url(#picto_avantages_00000038413801059171370300000008991241714537799313_);" d="
		M872.8,4726.2v-13.6c0.9-1.1,1.8-2.1,3.4-1.4c1.6,0.6,1.7,1.9,1.7,3.4c0,3,0,6,0,9c0,2.7,0.8,3.6,3.6,3.6c7.5,0,15,0,22.5,0
		c2.8,0,3.6-0.8,3.6-3.7c0-26,0-52,0-77.9c0-2.9-0.7-3.7-3.6-3.7c-7.4,0-14.9,0-22.3,0c-3.1,0-3.8,0.7-3.8,3.8c0,18.5,0,37.1,0,55.6
		c0,0.9-0.2,1.9-0.7,2.7c-1,1.5-2.7,1.2-4.4-0.6v-60.7c0.2-0.3,0.3-0.6,0.4-0.9c1.3-3.2,3.7-5,7.2-5c8.2,0,16.4-0.1,24.6,0
		c4.2-0.1,7.6,3.2,7.7,7.3c0,0.2,0,0.3,0,0.5c0,2,0,4,0,6.2h2c4.8,0,9.7-0.1,14.5,0c2.3,0.1,4.5-1.1,5.6-3.1
		c9.9-16,15.1-34.4,15.1-53.2c0-4,0-8.1,0-12.1c0-7.8,6.4-14.2,14.2-14.2c6.8,0,12.6,4.8,13.9,11.5c0.2,1,0.3,2,0.3,3
		c0,8.5,0,17.1,0,25.6c0,0.4,0.1,0.9-0.1,1.2c-0.7,0.7-1.4,1.9-2.2,1.9c-0.8,0.1-1.9-0.8-2.5-1.5c-0.4-0.4-0.3-1.4-0.3-2.1
		c0-8.6,0-17.2-0.1-25.8c0-3.5-2.1-6.6-5.3-7.9c-3-1.5-6.7-1.1-9.3,1.1c-2.3,1.7-3.6,4.4-3.5,7.2c-0.1,6.4,0,12.7-0.3,19.1
		c-1,17.8-6.6,35-16.3,50c-1.8,2.9-5.1,4.6-8.5,4.5c-5,0-10,0-15,0h-2v55h3c4.7,0,9.3,0,14,0c3.4-0.1,6.7,1.5,8.6,4.4
		c1.7,2.4,3.4,4.8,5.1,7.3c1.8,2.9,5,4.6,8.5,4.6c12,0,24,0,36,0c0.2,0,0.5-0.1,0.7-0.2c-2.4-3-3.4-6.9-2.9-10.8
		c0.5-3.9,2.6-7.4,5.8-9.7c-3.7-3-5.9-6.7-5.9-11.5c0-4.8,2.1-8.6,5.9-11.7c-3.7-3-5.9-6.7-5.9-11.5c-0.1-4.6,2.1-8.9,5.9-11.6
		c-6.8-6-7.7-12.9-2.9-20.7h-10.3c0,0.7,0,1.6,0,2.4c-0.2,5.6-0.1,11.3-0.8,16.8c-1,7.2-4.5,13.3-9.5,18.5c-3.2,3.4-6.6,6.7-10,10
		c-1.4,1.4-2.9,1.5-4,0.3c-1.1-1.1-0.9-2.5,0.4-3.9c3-3,6-5.9,8.9-8.9c6.4-6.2,10-14.8,9.8-23.7c0-9.7,0-19.3,0-29
		c0-0.6,0-1.1,0.1-1.7c0.1-1.3,1.3-2.3,2.6-2.2c0,0,0.1,0,0.1,0c1.3,0,2.3,1,2.3,2.3c0,0.1,0,0.1,0,0.2c0,3.4,0,6.7,0,10.1
		c0,3.1,0.6,3.7,3.7,3.7h14.3c10.4,0,20.8,0,31.2,0c7.4,0,13,4.2,14.6,10.9c1.1,4.5,0.1,8.4-3.6,13.3c5.5,2.7,8.8,7,8.8,13.2
		c0,6.2-3.2,10.6-8.8,13.3c7.6,9.1,3.1,19.7-4.9,23.2c0.4,0.5,0.7,1,1.1,1.5c4.7,6.2,3.5,15.1-2.8,19.8c-2.1,1.6-4.5,2.5-7.1,2.8
		c-1,0.1-2,0.2-3.1,0.1c-7,0-14,0-21,0c-15.8,0-31.6,0-47.4,0c-6.4,0-11.3-2.3-14.8-7.7c-1.3-2.2-2.8-4.3-4.5-6.2
		c-0.9-1-2.3-2.2-3.6-2.2c-5.9-0.2-11.8-0.1-17.9-0.1c0,2.6,0,5.2,0,7.7c0,5.4-3.1,8.5-8.4,8.5c-2.6,0-5.1,0-7.7,0
		c-4.6,0-9.3,0-13.9,0.1c-0.2,0-0.3,0-0.5,0C877.6,4732.3,874.4,4730.7,872.8,4726.2z M992.6,4712.5c-2.2,2.7-2.6,6.4-1,9.5
		c1.7,3.6,4.8,5.2,8.7,5.2c7.5,0,15.1,0.1,22.6,0c1.6,0,3.3-0.4,4.7-1.1c4.4-2.2,6.2-7.6,3.9-12c-1.4-2.8-4.2-4.7-7.4-4.9
		c-4.2-0.2-8.4,0-12.6,0v-0.1c-3.9,0-7.7,0-11.6,0h0C997.1,4708.9,994.3,4710.2,992.6,4712.5z M999.8,4685.8
		c-3.9-0.1-7.5,2.4-8.7,6.1c-2,6,2.3,11.9,9,11.9c9.3,0.1,18.5,0,27.8,0c1,0,2-0.1,3-0.4c4.1-1.2,6.9-5.2,6.5-9.5
		c-0.4-4.6-4.2-8.1-8.8-8.2c-4.8-0.1-9.7,0-14.5,0v0c-2.9,0-5.8,0-8.7,0C1003.6,4685.8,1001.7,4685.8,999.8,4685.8z M1000.7,4662.6
		c-1.2,0-2.4,0.1-3.5,0.4c-4.3,1.2-7.1,5.5-6.4,10c0.5,4.5,4.3,7.7,9.3,7.7c10.9,0.1,21.8,0.1,32.7-0.1c2-0.1,4-0.7,5.7-1.8
		c3.2-2.2,4.6-6.2,3.3-9.9c-1.2-3.8-4.8-6.4-8.8-6.3c-3.8-0.1-7.5,0-11.3,0c-1.7,0-3.5,0-5.2,0c-2.8,0-5.6,0-8.5,0
		C1005.6,4662.6,1003.2,4662.6,1000.7,4662.6L1000.7,4662.6z M1014,4657.5c4.5,0,9,0,13.5,0c1.1,0,2.2-0.1,3.2-0.3
		c4.1-1.1,6.9-4.9,6.8-9.1c-0.3-4.5-3.5-8.4-7.8-8.5c-10.4-0.3-20.8-0.1-31.2,0c-2.4,0.1-4.7,1.4-6,3.5c-2,2.6-2.4,6.1-1,9
		c1.2,3.1,4.2,5.2,7.5,5.3C1004,4657.5,1009,4657.4,1014,4657.5L1014,4657.5z M997,4597.8c-2.8-15.3,9.3-29.7,23.8-29.7
		c5.5,0.1,9.7,1,13.5,3.2c1.8,1,2.4,2.3,1.7,3.7c-0.7,1.4-2.3,1.7-4.1,0.8c-12.2-6.4-26.4-0.1-29.5,13.1
		c-2.5,10.9,4.3,21.7,15.2,24.2c10.9,2.5,21.7-4.3,24.2-15.2c1.1-4.8,0.4-9.7-1.9-14.1c-0.5-0.7-0.7-1.6-0.6-2.5
		c0.3-0.8,1.2-1.9,2-1.9c1,0,2,0.5,2.6,1.3c2.2,3.4,3.4,7.4,3.5,11.4c0.7,13.5-9.3,25.1-22.7,26.6c-0.9,0.1-1.8,0.2-2.8,0.2
		C1009.6,4618.7,999.2,4609.9,997,4597.8z M1022,4604.8c-1.5,0-2.5-1.1-2.5-2.8c0-1.2,0-2.5,0-4c-1.3,0.7-2.4,1.4-3.5,2
		c-1.6,0.8-3,0.5-3.7-0.7c-0.8-1.3-0.3-2.8,1.2-3.7c1.1-0.6,2.1-1.3,3.4-2c-1.2-0.7-2.2-1.3-3.2-1.9c-1.7-1-2.3-2.4-1.5-3.8
		c0.8-1.4,2.3-1.7,4.1-0.6c0.9,0.5,1.8,1,2.7,1.5c0.1,0,0.2,0,0.5,0c0-1.2,0-2.4,0-3.7c0-1.8,1.1-3,2.6-3c1.5,0,2.5,1.2,2.5,3
		c0,1.2,0,2.4,0,3.9c1.3-0.7,2.3-1.3,3.4-1.9c1.6-0.9,3.1-0.7,3.9,0.6c0.8,1.3,0.3,2.8-1.3,3.8c-1,0.6-2,1.2-3.3,1.9
		c1.1,0.7,2.1,1.3,3.1,1.9c1.8,1.1,2.4,2.5,1.5,3.9c-0.8,1.3-2.3,1.6-4,0.6c-1-0.6-2-1.1-3.3-1.9c0,1.5,0,2.8,0,4
		C1024.5,4603.8,1023.6,4604.8,1022,4604.8L1022,4604.8z"/>
</g>
</svg>
