<svg id="Icons" xmlns="http://www.w3.org/2000/svg" viewBox="0 0 512 512"><defs><style>.cls-1{fill:#29a3fb;}.cls-2{fill:#0989d8;}.cls-3{fill:#aacfe5;}.cls-4{fill:#cde6f6;}.cls-5{fill:#eef9ff;}.cls-6{fill:#f39e22;}.cls-7{fill:#f9c744;}.cls-8{fill:#fff;}</style></defs><title>019-beer-export</title><circle class="cls-1" cx="256" cy="256" r="256"/><path class="cls-2" d="M493,353.07C454.71,446.32,363,512,256,512S57.29,446.32,19.05,353.07Z"/><path class="cls-3" d="M490.53,231.72V293a12,12,0,0,1-11.95,11.95H441.2V289.09h28.4a5.11,5.11,0,0,0,5.12-5.11V240.69a5.12,5.12,0,0,0-5.12-5.12H441.2V219.76h37.38A12,12,0,0,1,490.53,231.72Z"/><path class="cls-4" d="M490.53,231.72v54.62a12,12,0,0,1-11.95,12H455.35a3.61,3.61,0,0,1-3.61-3.61v-2a3.61,3.61,0,0,1,3.61-3.61h19.52A5.11,5.11,0,0,0,480,284V234.07a5.12,5.12,0,0,0-5.12-5.12H455.35a3.61,3.61,0,0,1-3.61-3.6v-2a3.61,3.61,0,0,1,3.61-3.61h23.23A12,12,0,0,1,490.53,231.72Z"/><ellipse class="cls-5" cx="486.01" cy="242.82" rx="4.52" ry="9.96"/><ellipse class="cls-5" cx="486.01" cy="262.76" rx="3.14" ry="6.91"/><path class="cls-3" d="M441.2,195.86V342.14a10.93,10.93,0,0,1-10.94,10.93H318.17a10.94,10.94,0,0,1-10.95-10.93V195.86a10.94,10.94,0,0,1,10.95-10.94H430.26A10.94,10.94,0,0,1,441.2,195.86Z"/><path class="cls-4" d="M441.2,195.86V342.14a10.93,10.93,0,0,1-10.94,10.93h-100a10.93,10.93,0,0,1-10.94-10.93V195.86a10.94,10.94,0,0,1,10.94-10.94h100A10.94,10.94,0,0,1,441.2,195.86Z"/><rect class="cls-5" x="429.13" y="198.57" width="12.08" height="49.16" rx="6.04"/><rect class="cls-5" x="429.13" y="258.01" width="12.08" height="30.8" rx="6.04"/><path class="cls-6" d="M319.3,184.93H429.13a0,0,0,0,1,0,0V323.72A13.14,13.14,0,0,1,416,336.85H332.44a13.14,13.14,0,0,1-13.14-13.14V184.93A0,0,0,0,1,319.3,184.93Z"/><ellipse class="cls-7" cx="409.43" cy="228.23" rx="12.92" ry="22.8"/><ellipse class="cls-7" cx="409.43" cy="272.23" rx="8.06" ry="14.22"/><path class="cls-8" d="M429.13,184.92H319.3a15.08,15.08,0,0,1,20.37-14.14,15.09,15.09,0,0,1,30.06-.32,23.42,23.42,0,0,1,26.19-1.73,11.68,11.68,0,0,1,23.31,1.09,11.46,11.46,0,0,1-.53,3.48A11.69,11.69,0,0,1,429.13,184.92Z"/><circle class="cls-8" cx="370.52" cy="232.91" r="7.74"/><circle class="cls-8" cx="384.99" cy="259.81" r="10.01"/><circle class="cls-8" cx="405.01" cy="188.56" r="10.01"/><circle class="cls-8" cx="366.77" cy="279.92" r="6.51"/><circle class="cls-8" cx="347.45" cy="314.6" r="6.51"/><circle class="cls-8" cx="389.96" cy="304.9" r="8.39"/><circle class="cls-8" cx="388.49" cy="211.94" r="6.51"/><path class="cls-8" d="M339.64,290.71h0a7.81,7.81,0,0,1-7.81-7.8v-98h15.62v98A7.81,7.81,0,0,1,339.64,290.71Z"/><path class="cls-8" d="M354.9,184.92h15.62a0,0,0,0,1,0,0v23.46a7.81,7.81,0,0,1-7.81,7.81h0a7.81,7.81,0,0,1-7.81-7.81V184.92A0,0,0,0,1,354.9,184.92Z"/><path class="cls-3" d="M281.19,215.61,272,343.82a10,10,0,0,1-9.94,9.25H195.78a10,10,0,0,1-9.94-9.29L177.15,215.6a4.08,4.08,0,0,1,4.07-4.35h95.9A4.08,4.08,0,0,1,281.19,215.61Z"/><path class="cls-4" d="M281.19,215.61,272,343.82a10,10,0,0,1-9.94,9.25h-54a10,10,0,0,1-9.94-9.29L189.51,215.6a4.07,4.07,0,0,1,4.07-4.35h83.54A4.08,4.08,0,0,1,281.19,215.61Z"/><path class="cls-5" d="M272.75,243.51h0a6,6,0,0,1,6,6.43l-2.6,36.46a6,6,0,0,1-6,5.58h0a6,6,0,0,1-6-6.44l2.6-36.45A6,6,0,0,1,272.75,243.51Z"/><path class="cls-5" d="M268.69,300.38h0a6,6,0,0,1,6,6.43L274.1,315a6,6,0,0,1-6,5.58h0a6,6,0,0,1-6-6.43l.59-8.16A6,6,0,0,1,268.69,300.38Z"/><path class="cls-6" d="M267.43,239.66,260.7,334a7.33,7.33,0,0,1-7.31,6.8H204.62a7.32,7.32,0,0,1-7.31-6.83l-6.39-94.27Z"/><ellipse class="cls-7" cx="253.58" cy="267.21" rx="14.97" ry="8.48" transform="translate(-28.53 504.11) rotate(-86.52)"/><ellipse class="cls-7" cx="251.92" cy="294.57" rx="9.34" ry="5.29" transform="translate(-57.4 528.14) rotate(-86.52)"/><path class="cls-8" d="M267.43,239.65H190.92a10.51,10.51,0,0,1,10.52-10.51,10.66,10.66,0,0,1,3.67.66,10.51,10.51,0,0,1,20.94-.22,16.34,16.34,0,0,1,18.24-1.21,8.14,8.14,0,0,1,16.24.77,7.8,7.8,0,0,1-.37,2.42A8.15,8.15,0,0,1,267.43,239.65Z"/><circle class="cls-8" cx="218.94" cy="239.66" r="4.54"/><circle class="cls-8" cx="237.46" cy="254.48" r="4.54"/><circle class="cls-8" cx="225.36" cy="267.89" r="5.39"/><circle class="cls-8" cx="234.86" cy="289.13" r="6.97"/><circle class="cls-8" cx="203.69" cy="253.78" r="6.97"/><circle class="cls-8" cx="248.81" cy="242.1" r="6.97"/><circle class="cls-8" cx="239.89" cy="312.73" r="4.54"/><circle class="cls-8" cx="206.86" cy="282.16" r="4.54"/><circle class="cls-8" cx="217.63" cy="324.25" r="5.84"/><path class="cls-3" d="M144,143.52H62.79a7.16,7.16,0,0,0-7.16,7.16v85.06a14.92,14.92,0,0,0,5.27,11.39l10.88,9.24A15,15,0,0,1,77,269.06l-6.54,74.66A8.6,8.6,0,0,0,79,353.07h48.71a8.6,8.6,0,0,0,8.57-9.35l-6.54-74.66A14.92,14.92,0,0,1,135,256.37l10.88-9.24a15,15,0,0,0,5.27-11.39V150.68A7.17,7.17,0,0,0,144,143.52Z"/><path class="cls-4" d="M151.12,150.68v85.07a14.89,14.89,0,0,1-5.27,11.38L135,256.37a14.91,14.91,0,0,0-5.21,12.69l6.53,74.66a8.59,8.59,0,0,1-8.56,9.35H90.08a8.6,8.6,0,0,1-8.57-9.35L88,263.5a14.91,14.91,0,0,0-5.21-12.69l-10.88-9.24a15,15,0,0,1-5.27-11.39l0-79.5a7.17,7.17,0,0,1,7.16-7.16H144A7.17,7.17,0,0,1,151.12,150.68Z"/><rect class="cls-5" x="140.07" y="159.74" width="11.05" height="32.07" rx="5.53"/><rect class="cls-5" x="140.07" y="197.29" width="11.05" height="19.83" rx="5.53"/><path class="cls-6" d="M140.07,143.52H66.68v86.7A15,15,0,0,0,72,241.61l10.84,9.2A14.92,14.92,0,0,1,88,263.58l-6.44,69a8.61,8.61,0,0,0,8.57,9.4h26.49a8.6,8.6,0,0,0,8.56-9.4l-6.43-69A14.92,14.92,0,0,1,124,250.81l10.83-9.2a14.94,14.94,0,0,0,5.28-11.39Z"/><ellipse class="cls-7" cx="125.07" cy="178.85" rx="9.59" ry="18.03"/><ellipse class="cls-7" cx="125.07" cy="211.86" rx="5.98" ry="11.25"/><path class="cls-8" d="M140.07,143.51H66.68a10.05,10.05,0,0,1,13.61-9.45,10.09,10.09,0,0,1,20.09-.22,15.68,15.68,0,0,1,17.5-1.16,7.8,7.8,0,1,1,15.22,3.06A7.81,7.81,0,0,1,140.07,143.51Z"/><circle class="cls-8" cx="94.53" cy="146.26" r="4.35"/><circle class="cls-8" cx="104.44" cy="170.53" r="4.35"/><circle class="cls-8" cx="89.46" cy="186.57" r="5.17"/><circle class="cls-8" cx="107.53" cy="194.08" r="6.69"/><circle class="cls-8" cx="80.79" cy="159.74" r="6.69"/><circle class="cls-8" cx="123.51" cy="148.6" r="6.69"/><circle class="cls-8" cx="107.72" cy="273.03" r="4.35"/><circle class="cls-8" cx="111.17" cy="235.46" r="4.35"/><circle class="cls-8" cx="112.08" cy="316.68" r="4.35"/><circle class="cls-8" cx="99.72" cy="252.65" r="4.35"/><circle class="cls-8" cx="80.87" cy="211.25" r="4.35"/><circle class="cls-8" cx="97.91" cy="301.16" r="5.6"/></svg>