<svg id="Icons" xmlns="http://www.w3.org/2000/svg" viewBox="0 0 512 512"><defs><style>.cls-1{fill:#fbdb58;}.cls-2{fill:#efb732;}.cls-3{fill:#6b250c;}.cls-4{fill:#7a2b13;}.cls-5{fill:#8c4735;}.cls-6{fill:#a05740;}.cls-7{fill:#b76049;}.cls-8{fill:#c2aacf;}.cls-9{fill:#decee5;}.cls-10{fill:#f4e6f4;}.cls-11{fill:#d48d77;}.cls-12{fill:#eea47d;}.cls-13{fill:#ea792e;}.cls-14{fill:#fff;}.cls-15{fill:#fa4654;}.cls-16{fill:#f39e22;}.cls-17{fill:#f9c744;}.cls-18{fill:#f9eaa5;}</style></defs><title>019-beer-export</title><circle class="cls-1" cx="256" cy="256" r="255.98"/><path class="cls-2" d="M473.23,391.46A255.62,255.62,0,0,0,494.3,162.52C442.67,30.9,294.13-33.93,162.52,17.69A254.74,254.74,0,0,0,48.09,106.6,77.68,77.68,0,0,1,56.52,120c12.4,25.14,13.4,57.78,35.73,74.73,15.31,11.63,36.53,11.93,55.33,7.9s36.73-11.84,55.73-14.84a112.54,112.54,0,0,1,128.42,92.08c3.6,21,2.66,45.8,19.25,59.16,22.56,18.16,60.19.32,83.22,17.87,7.43,5.67,12,14.19,18.41,21A54.47,54.47,0,0,0,473.23,391.46Z"/><path class="cls-3" d="M328.11,337.53v67.8a6.56,6.56,0,0,1-.11,1.26,7.67,7.67,0,0,1-7.58,6.42H306.14a7.68,7.68,0,0,1-7.69-7.68v-12a22.11,22.11,0,0,0-22.11-22.12h-61a22.11,22.11,0,0,0-22.11,22.12v12a7.68,7.68,0,0,1-7.68,7.68H171.23a7.69,7.69,0,0,1-7.58-6.42,7.48,7.48,0,0,1-.1-1.26v-67.8Z"/><path class="cls-4" d="M328.11,337.53v67.8a6.56,6.56,0,0,1-.11,1.26H315.31c-4.88,0-8.85-3.44-8.85-7.69v-12c0-12.2-11.4-22.11-25.48-22.11H210.67c-14.07,0-25.47,9.91-25.47,22.11v12c0,4.25-4,7.69-8.86,7.69H163.65a7.48,7.48,0,0,1-.1-1.26v-67.8Z"/><path class="cls-3" d="M328.11,337.53v14.94c-20.6,4-47.7,7.06-82.28,7.06s-61.68-3.08-82.28-7.06V337.53Z"/><path class="cls-5" d="M381.9,168.46V310.57A16.44,16.44,0,0,1,372,325.7c-16.87,7.23-56.22,19.8-126.12,19.8s-109.26-12.57-126.12-19.8a16.45,16.45,0,0,1-10-15.13V168.45a16.46,16.46,0,0,1,10-15.13c16.84-7.22,56.16-19.78,125.9-19.78,70.06,0,109.46,12.56,126.33,19.79A16.45,16.45,0,0,1,381.9,168.46Z"/><path class="cls-6" d="M381.9,168.46V287.6A16.44,16.44,0,0,1,372,302.73c-16.87,7.22-56.22,19.79-126.12,19.79S136.57,310,119.71,302.73a16.45,16.45,0,0,1-10-15.13V168.45a16.46,16.46,0,0,1,10-15.13c16.84-7.22,56.16-19.78,125.9-19.78,70.06,0,109.46,12.56,126.33,19.79A16.45,16.45,0,0,1,381.9,168.46Z"/><path class="cls-5" d="M381.9,177.38v8.32a4,4,0,0,1-.76-.07c-.19,0-9.92-1.8-31.67-3.57s-55.53-3.52-103.86-3.52c-96.21,0-134.71,7-135.09,7.09a4,4,0,0,1-.77.08v-8.33c5.91-1,44.91-7.09,135.86-7.09C337,170.29,376,176.36,381.9,177.38Z"/><path class="cls-4" d="M381.9,184.7V193a4,4,0,0,1-.76-.07c-.19,0-9.92-1.8-31.67-3.57s-55.53-3.52-103.86-3.52c-96.21,0-134.71,7-135.09,7.09a4,4,0,0,1-.77.08V184.7c5.91-1,44.91-7.09,135.86-7.09C337,177.61,376,183.68,381.9,184.7Z"/><path class="cls-5" d="M381.9,278.8v8.32c-5.91,1-44.91,7.09-135.86,7.09-91.33,0-130.38-6.07-136.29-7.09V278.8a4,4,0,0,1,.77.07c.19,0,9.91,1.81,31.66,3.57S197.72,286,246,286c96.22,0,134.72-7,135.1-7.09A3.91,3.91,0,0,1,381.9,278.8Z"/><path class="cls-4" d="M381.9,286.12v8.32c-5.91,1-44.91,7.09-135.86,7.09-91.33,0-130.38-6.07-136.29-7.09v-8.32a4,4,0,0,1,.77.07c.19,0,9.91,1.81,31.66,3.57s55.54,3.52,103.86,3.52c96.22,0,134.72-7,135.1-7.09A3.91,3.91,0,0,1,381.9,286.12Z"/><rect class="cls-5" x="109.75" y="228.07" width="272.15" height="8.25"/><rect class="cls-4" x="109.75" y="235.39" width="272.15" height="8.25"/><ellipse class="cls-7" cx="254.13" cy="201.8" rx="11.65" ry="25.46" transform="translate(43 448.22) rotate(-87.86)"/><ellipse class="cls-7" cx="306.11" cy="203.73" rx="7.78" ry="17.42" transform="translate(91.11 502.04) rotate(-87.86)"/><ellipse class="cls-7" cx="236.82" cy="148.25" rx="11.65" ry="25.46" transform="translate(79.84 379.39) rotate(-87.86)"/><ellipse class="cls-7" cx="288.81" cy="150.19" rx="7.78" ry="17.42" transform="translate(127.96 433.2) rotate(-87.86)"/><path class="cls-8" d="M176.07,135V344a6.58,6.58,0,0,1-8.25,6.36l-11.9-3.14a6.58,6.58,0,0,1-4.9-6.35V138.17a6.59,6.59,0,0,1,4.9-6.36l11.9-3.14A6.58,6.58,0,0,1,176.07,135Z"/><path class="cls-9" d="M176.07,135V315.94a6.57,6.57,0,0,1-8.25,6.35l-11.9-3.13a6.57,6.57,0,0,1-4.9-6.36V138.17a6.59,6.59,0,0,1,4.9-6.36l11.9-3.14A6.58,6.58,0,0,1,176.07,135Z"/><ellipse class="cls-10" cx="161.21" cy="180.53" rx="6.92" ry="19.46"/><ellipse class="cls-10" cx="161.21" cy="215.99" rx="4.55" ry="9.54"/><path class="cls-8" d="M315.59,135V344a6.57,6.57,0,0,0,8.24,6.36l11.91-3.14a6.57,6.57,0,0,0,4.89-6.35V138.17a6.58,6.58,0,0,0-4.89-6.36l-11.91-3.14A6.57,6.57,0,0,0,315.59,135Z"/><path class="cls-9" d="M315.59,135V315.94a6.56,6.56,0,0,0,8.24,6.35l11.91-3.13a6.56,6.56,0,0,0,4.89-6.36V138.17a6.58,6.58,0,0,0-4.89-6.36l-11.91-3.14A6.57,6.57,0,0,0,315.59,135Z"/><ellipse class="cls-10" cx="330.45" cy="180.53" rx="6.92" ry="19.46"/><ellipse class="cls-10" cx="330.45" cy="215.99" rx="4.55" ry="9.54"/><path class="cls-11" d="M109.75,249.49v25.72H88.1a6,6,0,0,1-6-6v-13.8a6,6,0,0,1,6-6Z"/><path class="cls-12" d="M109.75,249.49v17H88.1a6,6,0,0,1-6-6v-5.1a6,6,0,0,1,6-6Z"/><path class="cls-13" d="M451.36,217.36l-23.43-40.59L390.82,198.2l23.44,40.58a2.58,2.58,0,0,0,4.82-1.21l.14-4.62.49-15.13a7.32,7.32,0,0,1,10.77-6.22l13.34,7.15,4.08,2.18A2.59,2.59,0,0,0,451.36,217.36Z"/><path class="cls-14" d="M399.64,200.56l18,31.17a2.52,2.52,0,0,0,1.59,1.22l.49-15.13a7.32,7.32,0,0,1,10.77-6.22l13.34,7.15a2.5,2.5,0,0,0-.26-2l-18-31.17Z"/><path class="cls-13" d="M343.34,176.94l-23.43,40.59a2.58,2.58,0,0,0,3.46,3.57l4.07-2.19,13.34-7.14A7.33,7.33,0,0,1,351.56,218l.48,15.12.14,4.63A2.59,2.59,0,0,0,357,239l23.43-40.59Z"/><path class="cls-14" d="M345.7,185.76l-18,31.17a2.48,2.48,0,0,0-.26,2l13.34-7.14A7.33,7.33,0,0,1,351.56,218l.48,15.12a2.49,2.49,0,0,0,1.59-1.22l18-31.17Z"/><path class="cls-15" d="M438.26,176.94a8.6,8.6,0,0,1-8.91,8.75h-.25A8.66,8.66,0,0,0,421,197.25a8.88,8.88,0,0,1,.53,3,8.68,8.68,0,0,1-14,6.76,8.65,8.65,0,0,0-13.58,4.42,8.66,8.66,0,0,1-16.61,0,8.65,8.65,0,0,0-8.33-6.22,8.54,8.54,0,0,0-5.25,1.8,8.55,8.55,0,0,1-5.25,1.84,8.68,8.68,0,0,1-8.19-11.6,8.54,8.54,0,0,0,.5-2.92,8.66,8.66,0,0,0-8.89-8.64h-.28a8.66,8.66,0,0,1-4.86-15.8,8.65,8.65,0,0,0,0-14.27,8.38,8.38,0,0,1-3.78-7,8.63,8.63,0,0,1,8.92-8.76h.24a8.65,8.65,0,0,0,8.15-11.55,8.92,8.92,0,0,1-.54-3,8.69,8.69,0,0,1,14-6.76,8.54,8.54,0,0,0,5.25,1.8,8.65,8.65,0,0,0,8.33-6.21,8.66,8.66,0,0,1,16.61,0,8.65,8.65,0,0,0,13.58,4.41,8.5,8.5,0,0,1,5.24-1.84,8.7,8.7,0,0,1,8.2,11.61,8.56,8.56,0,0,0-.51,2.92,8.66,8.66,0,0,0,8.9,8.63h.26a8.66,8.66,0,0,1,4.88,15.8,8.64,8.64,0,0,0,0,14.27A8.4,8.4,0,0,1,438.26,176.94Z"/><path class="cls-10" d="M423.07,162.76a37.44,37.44,0,1,1-37.44-37.44A37.43,37.43,0,0,1,423.07,162.76Z"/><path class="cls-16" d="M417.53,162.76a31.9,31.9,0,1,1-31.9-31.9A31.9,31.9,0,0,1,417.53,162.76Z"/><ellipse class="cls-17" cx="399.64" cy="149.23" rx="9.03" ry="13.32" transform="translate(-9.89 268.69) rotate(-36.74)"/><ellipse class="cls-17" cx="404" cy="173.03" rx="9.26" ry="4.89" transform="translate(152.65 533.56) rotate(-78.3)"/><path class="cls-14" d="M295.11,436.25H284.54a13.31,13.31,0,0,1-13.31-13.31V412.37a5.78,5.78,0,0,0-5.78-5.78h0a5.78,5.78,0,0,0-5.79,5.78v10.57a13.31,13.31,0,0,1-13.31,13.31H235.78A5.78,5.78,0,0,0,230,442h0a5.78,5.78,0,0,0,5.78,5.78h10.57a13.31,13.31,0,0,1,13.31,13.32V471.7a5.78,5.78,0,0,0,5.79,5.78h0a5.78,5.78,0,0,0,5.78-5.78V461.13a13.31,13.31,0,0,1,13.31-13.32h10.57a5.78,5.78,0,0,0,5.78-5.78h0A5.78,5.78,0,0,0,295.11,436.25Z"/><path class="cls-18" d="M155.43,93.76H144.86a13.31,13.31,0,0,1-13.31-13.31V69.88a5.78,5.78,0,0,0-5.79-5.78h0A5.78,5.78,0,0,0,120,69.88V80.45a13.31,13.31,0,0,1-13.31,13.31H96.1a5.78,5.78,0,0,0-5.78,5.78h0a5.78,5.78,0,0,0,5.78,5.79h10.57A13.31,13.31,0,0,1,120,118.64v10.57a5.78,5.78,0,0,0,5.78,5.78h0a5.78,5.78,0,0,0,5.79-5.78V118.64a13.31,13.31,0,0,1,13.31-13.31h10.57a5.78,5.78,0,0,0,5.78-5.79h0A5.78,5.78,0,0,0,155.43,93.76Z"/><path class="cls-18" d="M466.72,297.43H458.6a10.24,10.24,0,0,1-10.24-10.23v-8.12a4.44,4.44,0,0,0-4.44-4.45h0a4.44,4.44,0,0,0-4.44,4.45v8.12a10.23,10.23,0,0,1-10.24,10.23h-8.12a4.45,4.45,0,0,0-4.45,4.45h0a4.44,4.44,0,0,0,4.45,4.44h8.12a10.23,10.23,0,0,1,10.24,10.24v8.12a4.44,4.44,0,0,0,4.44,4.44h0a4.44,4.44,0,0,0,4.44-4.44v-8.12a10.24,10.24,0,0,1,10.24-10.24h8.12a4.44,4.44,0,0,0,4.45-4.44h0A4.45,4.45,0,0,0,466.72,297.43Z"/></svg>